<mxfile host="app.diagrams.net" modified="2023-06-01T08:13:52.511Z" agent="Mozilla/5.0 (X11; Linux x86_64; rv:109.0) Gecko/20100101 Firefox/113.0" etag="vnfHsys2cLd_Np6FzQ_V" version="21.3.6" type="github">
  <diagram id="a45cf8ec-cd66-6f27-3ac3-be6e809c9e4a" name="Page-1">
    <mxGraphModel dx="1728" dy="942" grid="1" gridSize="10" guides="1" tooltips="1" connect="1" arrows="1" fold="1" page="1" pageScale="1" pageWidth="827" pageHeight="1169" background="none" math="0" shadow="0">
      <root>
        <mxCell id="0" />
        <mxCell id="1" parent="0" />
        <mxCell id="2" value="Maintenance" style="rounded=1;whiteSpace=wrap;html=1;shadow=0;strokeColor=none;fillColor=#BAC8D3;gradientColor=none;fontSize=18;fontColor=#AE4132;verticalAlign=bottom;fontStyle=0;opacity=40;strokeWidth=3;" parent="1" vertex="1">
          <mxGeometry x="1480" y="310" width="150" height="440" as="geometry" />
        </mxCell>
        <mxCell id="3" value="" style="rounded=1;whiteSpace=wrap;html=1;shadow=0;strokeColor=none;fillColor=#BAC8D3;gradientColor=none;fontSize=18;fontColor=#F08705;opacity=40;fontStyle=0;strokeWidth=3;" parent="1" vertex="1">
          <mxGeometry x="215" y="70" width="1215" height="701" as="geometry" />
        </mxCell>
        <mxCell id="4" value="&lt;span&gt;Section 1&lt;/span&gt;" style="rounded=1;whiteSpace=wrap;html=1;shadow=0;strokeColor=none;fillColor=#BAC8D3;gradientColor=none;fontSize=18;fontColor=#AE4132;verticalAlign=top;opacity=70;fontStyle=0;strokeWidth=3;" parent="1" vertex="1">
          <mxGeometry x="490" y="79" width="300" height="103" as="geometry" />
        </mxCell>
        <mxCell id="5" value="&lt;span style=&quot;line-height: 17.1818180084229px&quot;&gt;Section 3&lt;/span&gt;" style="rounded=1;whiteSpace=wrap;html=1;shadow=0;strokeColor=none;fillColor=#BAC8D3;gradientColor=none;fontSize=18;fontColor=#AE4132;verticalAlign=top;fontStyle=0;opacity=70;strokeWidth=3;" parent="1" vertex="1">
          <mxGeometry x="485" y="269" width="300" height="105" as="geometry" />
        </mxCell>
        <mxCell id="6" value="&lt;span style=&quot;line-height: 17.1818180084229px&quot;&gt;Section 5&lt;/span&gt;" style="rounded=1;whiteSpace=wrap;html=1;shadow=0;strokeColor=none;fillColor=#BAC8D3;gradientColor=none;fontSize=18;fontColor=#AE4132;verticalAlign=top;fontStyle=0;opacity=70;strokeWidth=3;" parent="1" vertex="1">
          <mxGeometry x="315" y="449" width="295" height="115" as="geometry" />
        </mxCell>
        <mxCell id="7" value="Server Farm" style="rounded=1;whiteSpace=wrap;html=1;shadow=0;strokeColor=none;fillColor=#BAC8D3;gradientColor=none;fontSize=18;fontColor=#AE4132;verticalAlign=top;fontStyle=0;opacity=70;strokeWidth=3;" parent="1" vertex="1">
          <mxGeometry x="630" y="439" width="270" height="120" as="geometry" />
        </mxCell>
        <mxCell id="8" value="Service Processing" style="rounded=1;whiteSpace=wrap;html=1;shadow=0;strokeColor=none;fillColor=#BAC8D3;gradientColor=none;fontSize=18;fontColor=#AE4132;verticalAlign=top;fontStyle=0;opacity=70;strokeWidth=3;" parent="1" vertex="1">
          <mxGeometry x="920" y="439" width="280" height="130" as="geometry" />
        </mxCell>
        <mxCell id="9" value="&lt;span style=&quot;line-height: 17.1818180084229px&quot;&gt;Section 4&lt;/span&gt;&lt;br&gt;" style="rounded=1;whiteSpace=wrap;html=1;shadow=0;strokeColor=none;fillColor=#BAC8D3;gradientColor=none;fontSize=18;fontColor=#AE4132;verticalAlign=top;opacity=70;fontStyle=0;strokeWidth=3;" parent="1" vertex="1">
          <mxGeometry x="900" y="269" width="300" height="105" as="geometry" />
        </mxCell>
        <mxCell id="10" value="&lt;span style=&quot;line-height: 17.1818180084229px&quot;&gt;Section 2&lt;/span&gt;&lt;br&gt;" style="rounded=1;whiteSpace=wrap;html=1;shadow=0;strokeColor=none;fillColor=#BAC8D3;gradientColor=none;fontSize=18;fontColor=#AE4132;verticalAlign=top;opacity=70;fontStyle=0;strokeWidth=3;" parent="1" vertex="1">
          <mxGeometry x="900" y="79" width="300" height="108" as="geometry" />
        </mxCell>
        <mxCell id="12" value="Branch 3 (overseas)" style="rounded=1;whiteSpace=wrap;html=1;shadow=0;strokeColor=none;fillColor=#BAC8D3;gradientColor=none;fontSize=18;fontColor=#AE4132;verticalAlign=bottom;fontStyle=0;opacity=40;strokeWidth=3;" parent="1" vertex="1">
          <mxGeometry x="1260" y="993" width="457" height="180" as="geometry" />
        </mxCell>
        <mxCell id="13" value="Contractors" style="rounded=1;whiteSpace=wrap;html=1;shadow=0;strokeColor=none;fillColor=#BAC8D3;gradientColor=none;fontSize=18;fontColor=#AE4132;verticalAlign=bottom;fontStyle=0;opacity=40;strokeWidth=3;" parent="1" vertex="1">
          <mxGeometry x="872.5" y="1093" width="294" height="207" as="geometry" />
        </mxCell>
        <mxCell id="14" value="Branch 2" style="rounded=1;whiteSpace=wrap;html=1;shadow=0;strokeColor=none;fillColor=#BAC8D3;gradientColor=none;fontSize=18;fontColor=#AE4132;fontStyle=0;verticalAlign=bottom;opacity=40;strokeWidth=3;" parent="1" vertex="1">
          <mxGeometry x="337" y="993" width="420" height="157" as="geometry" />
        </mxCell>
        <mxCell id="15" value="Branch 1" style="rounded=1;whiteSpace=wrap;html=1;shadow=0;strokeColor=none;fillColor=#BAC8D3;gradientColor=none;fontSize=18;fontColor=#AE4132;verticalAlign=bottom;fontStyle=0;opacity=40;strokeWidth=3;" parent="1" vertex="1">
          <mxGeometry x="243" y="809" width="440" height="171" as="geometry" />
        </mxCell>
        <mxCell id="16" value="Consumers" style="rounded=1;whiteSpace=wrap;html=1;shadow=0;strokeColor=none;fillColor=#BAC8D3;gradientColor=none;fontSize=18;fontColor=#AE4132;verticalAlign=bottom;fontStyle=0;opacity=40;strokeWidth=3;" parent="1" vertex="1">
          <mxGeometry x="22" y="488" width="115" height="542" as="geometry" />
        </mxCell>
        <mxCell id="17" value="Cloud 3" style="ellipse;shape=cloud;whiteSpace=wrap;html=1;shadow=0;strokeColor=#23445D;fillColor=#BAC8D3;gradientColor=none;fontSize=18;fontColor=#23445D;gradientDirection=north;fontStyle=0;strokeWidth=2;" parent="1" vertex="1">
          <mxGeometry x="1480" y="118" width="120" height="80" as="geometry" />
        </mxCell>
        <mxCell id="18" value="Cloud 4" style="ellipse;shape=cloud;whiteSpace=wrap;html=1;shadow=0;strokeColor=#23445D;fillColor=#BAC8D3;gradientColor=none;fontSize=18;fontColor=#23445D;gradientDirection=north;fontStyle=0;strokeWidth=2;" parent="1" vertex="1">
          <mxGeometry x="1480" y="220" width="120" height="80" as="geometry" />
        </mxCell>
        <mxCell id="19" value="Internet" style="ellipse;shape=cloud;whiteSpace=wrap;html=1;shadow=0;strokeColor=#23445D;fillColor=#BAC8D3;gradientColor=none;fontSize=18;fontColor=#23445D;gradientDirection=north;fontStyle=0;strokeWidth=2;" parent="1" vertex="1">
          <mxGeometry x="970" y="790" width="120" height="80" as="geometry" />
        </mxCell>
        <mxCell id="20" value="" style="strokeWidth=2;strokeColor=#666666;dashed=0;align=center;html=1;fontSize=8;shape=mxgraph.eip.messageChannel;shadow=0;fillColor=#FFFFFF;gradientColor=none;fontColor=#F08705;fontStyle=0" parent="1" vertex="1">
          <mxGeometry x="360" y="230" width="440" height="20" as="geometry" />
        </mxCell>
        <mxCell id="21" value="" style="edgeStyle=elbowEdgeStyle;strokeWidth=2;rounded=0;endArrow=none;startArrow=none;startSize=10;endSize=10;dashed=0;html=1;strokeColor=#23445D;fontSize=18;fontColor=#F08705;startFill=0;endFill=0;fontStyle=0" parent="1" source="24" target="20" edge="1">
          <mxGeometry relative="1" as="geometry">
            <mxPoint x="540" y="170" as="sourcePoint" />
            <mxPoint x="540" y="230" as="targetPoint" />
          </mxGeometry>
        </mxCell>
        <mxCell id="22" value="" style="image;html=1;image=img/lib/clip_art/computers/Monitor_Tower_128x128.png;shadow=0;strokeColor=#000000;fillColor=#FFFFFF;gradientColor=none;fontSize=18;fontColor=#F08705;fontStyle=0" parent="1" vertex="1">
          <mxGeometry x="385" y="97" width="80" height="80" as="geometry" />
        </mxCell>
        <mxCell id="23" value="" style="image;html=1;image=img/lib/clip_art/networking/Bridge_128x128.png;shadow=0;strokeColor=#000000;fillColor=#FFFFFF;gradientColor=none;fontSize=18;fontColor=#F08705;fontStyle=0" parent="1" vertex="1">
          <mxGeometry x="270" y="97" width="80" height="80" as="geometry" />
        </mxCell>
        <mxCell id="24" value="" style="image;html=1;image=img/lib/clip_art/computers/Netbook_128x128.png;shadow=0;strokeColor=#000000;fillColor=#FFFFFF;gradientColor=none;fontSize=18;fontColor=#F08705;fontStyle=0" parent="1" vertex="1">
          <mxGeometry x="500" y="97" width="80" height="80" as="geometry" />
        </mxCell>
        <mxCell id="25" value="" style="image;html=1;image=img/lib/clip_art/computers/Netbook_128x128.png;shadow=0;strokeColor=#000000;fillColor=#FFFFFF;gradientColor=none;fontSize=18;fontColor=#F08705;fontStyle=0" parent="1" vertex="1">
          <mxGeometry x="590" y="97" width="80" height="80" as="geometry" />
        </mxCell>
        <mxCell id="26" value="" style="image;html=1;image=img/lib/clip_art/computers/Netbook_128x128.png;shadow=0;strokeColor=#000000;fillColor=#FFFFFF;gradientColor=none;fontSize=18;fontColor=#F08705;fontStyle=0" parent="1" vertex="1">
          <mxGeometry x="690" y="97" width="80" height="80" as="geometry" />
        </mxCell>
        <mxCell id="27" value="" style="image;html=1;image=img/lib/clip_art/computers/Netbook_128x128.png;shadow=0;strokeColor=#000000;fillColor=#FFFFFF;gradientColor=none;fontSize=18;fontColor=#F08705;fontStyle=0" parent="1" vertex="1">
          <mxGeometry x="920" y="97" width="80" height="80" as="geometry" />
        </mxCell>
        <mxCell id="28" value="" style="image;html=1;image=img/lib/clip_art/computers/Netbook_128x128.png;shadow=0;strokeColor=#000000;fillColor=#FFFFFF;gradientColor=none;fontSize=18;fontColor=#F08705;fontStyle=0" parent="1" vertex="1">
          <mxGeometry x="1010" y="97" width="80" height="80" as="geometry" />
        </mxCell>
        <mxCell id="29" value="" style="image;html=1;image=img/lib/clip_art/computers/Netbook_128x128.png;shadow=0;strokeColor=#000000;fillColor=#FFFFFF;gradientColor=none;fontSize=18;fontColor=#F08705;fontStyle=0" parent="1" vertex="1">
          <mxGeometry x="1110" y="100" width="77" height="77" as="geometry" />
        </mxCell>
        <mxCell id="30" value="" style="image;html=1;image=img/lib/clip_art/computers/Netbook_128x128.png;shadow=0;strokeColor=#000000;fillColor=#FFFFFF;gradientColor=none;fontSize=18;fontColor=#F08705;fontStyle=0" parent="1" vertex="1">
          <mxGeometry x="500" y="289" width="80" height="80" as="geometry" />
        </mxCell>
        <mxCell id="31" value="" style="image;html=1;image=img/lib/clip_art/computers/Netbook_128x128.png;shadow=0;strokeColor=#000000;fillColor=#FFFFFF;gradientColor=none;fontSize=18;fontColor=#F08705;fontStyle=0" parent="1" vertex="1">
          <mxGeometry x="590" y="289" width="80" height="80" as="geometry" />
        </mxCell>
        <mxCell id="32" value="" style="image;html=1;image=img/lib/clip_art/computers/Netbook_128x128.png;shadow=0;strokeColor=#000000;fillColor=#FFFFFF;gradientColor=none;fontSize=18;fontColor=#AE4132;fontStyle=0" parent="1" vertex="1">
          <mxGeometry x="690" y="289" width="80" height="80" as="geometry" />
        </mxCell>
        <mxCell id="33" value="" style="image;html=1;image=img/lib/clip_art/computers/Netbook_128x128.png;shadow=0;strokeColor=#000000;fillColor=#FFFFFF;gradientColor=none;fontSize=18;fontColor=#F08705;fontStyle=0" parent="1" vertex="1">
          <mxGeometry x="920" y="289" width="80" height="80" as="geometry" />
        </mxCell>
        <mxCell id="34" value="" style="image;html=1;image=img/lib/clip_art/computers/Netbook_128x128.png;shadow=0;strokeColor=#000000;fillColor=#FFFFFF;gradientColor=none;fontSize=18;fontColor=#F08705;fontStyle=0" parent="1" vertex="1">
          <mxGeometry x="1010" y="289" width="80" height="80" as="geometry" />
        </mxCell>
        <mxCell id="35" value="" style="image;html=1;image=img/lib/clip_art/computers/Netbook_128x128.png;shadow=0;strokeColor=#000000;fillColor=#FFFFFF;gradientColor=none;fontSize=18;fontColor=#F08705;fontStyle=0" parent="1" vertex="1">
          <mxGeometry x="1110" y="289" width="80" height="80" as="geometry" />
        </mxCell>
        <mxCell id="36" value="" style="image;html=1;image=img/lib/clip_art/computers/Netbook_128x128.png;shadow=0;strokeColor=#000000;fillColor=#FFFFFF;gradientColor=none;fontSize=18;fontColor=#F08705;fontStyle=0" parent="1" vertex="1">
          <mxGeometry x="330" y="474" width="80" height="80" as="geometry" />
        </mxCell>
        <mxCell id="37" value="" style="image;html=1;image=img/lib/clip_art/computers/Netbook_128x128.png;shadow=0;strokeColor=#000000;fillColor=#FFFFFF;gradientColor=none;fontSize=18;fontColor=#F08705;fontStyle=0" parent="1" vertex="1">
          <mxGeometry x="420" y="474" width="80" height="80" as="geometry" />
        </mxCell>
        <mxCell id="38" value="" style="image;html=1;image=img/lib/clip_art/computers/Netbook_128x128.png;shadow=0;strokeColor=#000000;fillColor=#FFFFFF;gradientColor=none;fontSize=18;fontColor=#F08705;fontStyle=0" parent="1" vertex="1">
          <mxGeometry x="520" y="474" width="80" height="80" as="geometry" />
        </mxCell>
        <mxCell id="39" value="" style="image;html=1;image=img/lib/clip_art/computers/Server_Rack_128x128.png;shadow=0;strokeColor=#000000;fillColor=#FFFFFF;gradientColor=none;fontSize=18;fontColor=#F08705;fontStyle=0" parent="1" vertex="1">
          <mxGeometry x="630" y="474" width="80" height="80" as="geometry" />
        </mxCell>
        <mxCell id="40" value="" style="image;html=1;image=img/lib/clip_art/computers/Server_Rack_128x128.png;shadow=0;strokeColor=#000000;fillColor=#FFFFFF;gradientColor=none;fontSize=18;fontColor=#F08705;fontStyle=0" parent="1" vertex="1">
          <mxGeometry x="720" y="474" width="80" height="80" as="geometry" />
        </mxCell>
        <mxCell id="41" value="" style="image;html=1;image=img/lib/clip_art/computers/Server_Rack_128x128.png;shadow=0;strokeColor=#000000;fillColor=#FFFFFF;gradientColor=none;fontSize=18;fontColor=#F08705;fontStyle=0" parent="1" vertex="1">
          <mxGeometry x="810" y="474" width="80" height="80" as="geometry" />
        </mxCell>
        <mxCell id="42" value="" style="image;html=1;image=img/lib/clip_art/computers/Server_Tower_128x128.png;shadow=0;strokeColor=#000000;fillColor=#FFFFFF;gradientColor=none;fontSize=18;fontColor=#F08705;fontStyle=0" parent="1" vertex="1">
          <mxGeometry x="925" y="484" width="80" height="80" as="geometry" />
        </mxCell>
        <mxCell id="43" value="" style="image;html=1;image=img/lib/clip_art/computers/Server_Tower_128x128.png;shadow=0;strokeColor=#000000;fillColor=#FFFFFF;gradientColor=none;fontSize=18;fontColor=#F08705;fontStyle=0" parent="1" vertex="1">
          <mxGeometry x="1025" y="484" width="80" height="80" as="geometry" />
        </mxCell>
        <mxCell id="44" value="" style="image;html=1;image=img/lib/clip_art/computers/Server_Tower_128x128.png;shadow=0;strokeColor=#000000;fillColor=#FFFFFF;gradientColor=none;fontSize=18;fontColor=#F08705;fontStyle=0" parent="1" vertex="1">
          <mxGeometry x="1115" y="484" width="80" height="80" as="geometry" />
        </mxCell>
        <mxCell id="45" value="" style="strokeWidth=2;strokeColor=#666666;dashed=0;align=center;html=1;fontSize=8;shape=mxgraph.eip.messageChannel;shadow=0;fillColor=#FFFFFF;gradientColor=none;fontColor=#F08705;fontStyle=0" parent="1" vertex="1">
          <mxGeometry x="918" y="229" width="422" height="20" as="geometry" />
        </mxCell>
        <mxCell id="46" value="" style="strokeWidth=2;strokeColor=#666666;dashed=0;align=center;html=1;fontSize=8;shape=mxgraph.eip.messageChannel;shadow=0;fillColor=#FFFFFF;gradientColor=none;fontColor=#F08705;fontStyle=0" parent="1" vertex="1">
          <mxGeometry x="350" y="399" width="440" height="20" as="geometry" />
        </mxCell>
        <mxCell id="47" value="" style="strokeWidth=2;strokeColor=#666666;dashed=0;align=center;html=1;fontSize=8;shape=mxgraph.eip.messageChannel;shadow=0;fillColor=#FFFFFF;gradientColor=none;fontColor=#F08705;fontStyle=0" parent="1" vertex="1">
          <mxGeometry x="918" y="399" width="412" height="20" as="geometry" />
        </mxCell>
        <mxCell id="48" value="" style="strokeWidth=2;strokeColor=#666666;dashed=0;align=center;html=1;fontSize=8;shape=mxgraph.eip.messageChannel;shadow=0;fillColor=#FFFFFF;gradientColor=none;fontColor=#F08705;fontStyle=0" parent="1" vertex="1">
          <mxGeometry x="230" y="594" width="1090" height="20" as="geometry" />
        </mxCell>
        <mxCell id="49" value="Cloud 1" style="ellipse;shape=cloud;whiteSpace=wrap;html=1;shadow=0;strokeColor=#23445D;fillColor=#BAC8D3;gradientColor=none;fontSize=18;fontColor=#23445D;fontStyle=0;gradientDirection=north;strokeWidth=2;" parent="1" vertex="1">
          <mxGeometry x="50" y="97" width="120" height="80" as="geometry" />
        </mxCell>
        <mxCell id="50" value="Cloud 2" style="ellipse;shape=cloud;whiteSpace=wrap;html=1;shadow=0;strokeColor=#23445D;fillColor=#BAC8D3;gradientColor=none;fontSize=18;fontColor=#23445D;fontStyle=0;gradientDirection=north;strokeWidth=2;" parent="1" vertex="1">
          <mxGeometry x="50" y="359" width="120" height="80" as="geometry" />
        </mxCell>
        <mxCell id="51" value="" style="image;html=1;image=img/lib/clip_art/networking/Router_128x128.png;shadow=0;strokeColor=#000000;fillColor=#FFFFFF;gradientColor=none;fontSize=18;fontColor=#F08705;fontStyle=0" parent="1" vertex="1">
          <mxGeometry x="1240" y="117" width="80" height="80" as="geometry" />
        </mxCell>
        <mxCell id="52" value="" style="image;html=1;image=img/lib/clip_art/networking/Router_128x128.png;shadow=0;strokeColor=#000000;fillColor=#FFFFFF;gradientColor=none;fontSize=18;fontColor=#F08705;fontStyle=0" parent="1" vertex="1">
          <mxGeometry x="1250" y="281" width="80" height="80" as="geometry" />
        </mxCell>
        <mxCell id="53" value="Livebox" style="image;html=1;image=img/lib/clip_art/networking/Router_128x128.png;shadow=0;strokeColor=#000000;fillColor=#FFFFFF;gradientColor=none;fontSize=18;fontColor=#F08705;fontStyle=0" parent="1" vertex="1">
          <mxGeometry x="660" y="679" width="80" height="80" as="geometry" />
        </mxCell>
        <mxCell id="54" value="" style="image;html=1;image=img/lib/clip_art/computers/Monitor_Tower_128x128.png;shadow=0;strokeColor=#000000;fillColor=#FFFFFF;gradientColor=none;fontSize=18;fontColor=#F08705;fontStyle=0" parent="1" vertex="1">
          <mxGeometry x="1230" y="484" width="80" height="80" as="geometry" />
        </mxCell>
        <mxCell id="55" value="" style="image;html=1;image=img/lib/clip_art/networking/Wireless_Router_128x128.png;shadow=0;strokeColor=#000000;fillColor=#FFFFFF;gradientColor=none;fontSize=18;fontColor=#F08705;fontStyle=0" parent="1" vertex="1">
          <mxGeometry x="400" y="679" width="80" height="80" as="geometry" />
        </mxCell>
        <mxCell id="56" value="" style="image;html=1;image=img/lib/clip_art/networking/Wireless_Router_128x128.png;shadow=0;strokeColor=#000000;fillColor=#FFFFFF;gradientColor=none;fontSize=18;fontColor=#F08705;fontStyle=0" parent="1" vertex="1">
          <mxGeometry x="1340" y="484" width="80" height="80" as="geometry" />
        </mxCell>
        <mxCell id="57" value="" style="image;html=1;image=img/lib/clip_art/networking/Wireless_Router_128x128.png;shadow=0;strokeColor=#000000;fillColor=#FFFFFF;gradientColor=none;fontSize=18;fontColor=#F08705;fontStyle=0" parent="1" vertex="1">
          <mxGeometry x="573" y="815" width="80" height="80" as="geometry" />
        </mxCell>
        <mxCell id="58" style="edgeStyle=orthogonalEdgeStyle;rounded=0;html=1;fontSize=18;fontColor=#F08705;endArrow=none;endFill=0;strokeColor=#23445D;strokeWidth=2;curved=1;fontStyle=0" parent="1" source="53" target="57" edge="1">
          <mxGeometry relative="1" as="geometry" />
        </mxCell>
        <mxCell id="59" value="" style="image;html=1;image=img/lib/clip_art/computers/Netbook_128x128.png;shadow=0;strokeColor=#000000;fillColor=#FFFFFF;gradientColor=none;fontSize=18;fontColor=#F08705;fontStyle=0" parent="1" vertex="1">
          <mxGeometry x="258" y="815" width="80" height="80" as="geometry" />
        </mxCell>
        <mxCell id="60" value="" style="image;html=1;image=img/lib/clip_art/computers/Netbook_128x128.png;shadow=0;strokeColor=#000000;fillColor=#FFFFFF;gradientColor=none;fontSize=18;fontColor=#F08705;fontStyle=0" parent="1" vertex="1">
          <mxGeometry x="348" y="815" width="80" height="80" as="geometry" />
        </mxCell>
        <mxCell id="61" value="" style="image;html=1;image=img/lib/clip_art/computers/Netbook_128x128.png;shadow=0;strokeColor=#000000;fillColor=#FFFFFF;gradientColor=none;fontSize=18;fontColor=#F08705;fontStyle=0" parent="1" vertex="1">
          <mxGeometry x="448" y="815" width="80" height="80" as="geometry" />
        </mxCell>
        <mxCell id="62" value="" style="strokeWidth=2;strokeColor=#666666;dashed=0;align=center;html=1;fontSize=8;shape=mxgraph.eip.messageChannel;shadow=0;fillColor=#FFFFFF;gradientColor=none;fontColor=#F08705;fontStyle=0" parent="1" vertex="1">
          <mxGeometry x="258" y="925" width="415" height="20" as="geometry" />
        </mxCell>
        <mxCell id="63" value="" style="image;html=1;image=img/lib/clip_art/computers/Netbook_128x128.png;shadow=0;strokeColor=#000000;fillColor=#FFFFFF;gradientColor=none;fontSize=18;fontColor=#F08705;fontStyle=0" parent="1" vertex="1">
          <mxGeometry x="362" y="993" width="80" height="80" as="geometry" />
        </mxCell>
        <mxCell id="64" value="" style="image;html=1;image=img/lib/clip_art/computers/Netbook_128x128.png;shadow=0;strokeColor=#000000;fillColor=#FFFFFF;gradientColor=none;fontSize=18;fontColor=#F08705;fontStyle=0" parent="1" vertex="1">
          <mxGeometry x="452" y="993" width="80" height="80" as="geometry" />
        </mxCell>
        <mxCell id="65" value="" style="image;html=1;image=img/lib/clip_art/computers/Netbook_128x128.png;shadow=0;strokeColor=#000000;fillColor=#FFFFFF;gradientColor=none;fontSize=18;fontColor=#F08705;fontStyle=0" parent="1" vertex="1">
          <mxGeometry x="552" y="993" width="80" height="80" as="geometry" />
        </mxCell>
        <mxCell id="66" value="" style="strokeWidth=2;strokeColor=#666666;dashed=0;align=center;html=1;fontSize=8;shape=mxgraph.eip.messageChannel;shadow=0;fillColor=#FFFFFF;gradientColor=none;fontColor=#F08705;fontStyle=0" parent="1" vertex="1">
          <mxGeometry x="362" y="1095" width="385" height="20" as="geometry" />
        </mxCell>
        <mxCell id="67" value="" style="image;html=1;image=img/lib/clip_art/computers/Netbook_128x128.png;shadow=0;strokeColor=#000000;fillColor=#FFFFFF;gradientColor=none;fontSize=18;fontColor=#F08705;fontStyle=0" parent="1" vertex="1">
          <mxGeometry x="1590" y="997" width="80" height="80" as="geometry" />
        </mxCell>
        <mxCell id="68" value="" style="image;html=1;image=img/lib/clip_art/computers/Netbook_128x128.png;shadow=0;strokeColor=#000000;fillColor=#FFFFFF;gradientColor=none;fontSize=18;fontColor=#F08705;fontStyle=0" parent="1" vertex="1">
          <mxGeometry x="1500" y="997" width="80" height="80" as="geometry" />
        </mxCell>
        <mxCell id="69" value="" style="image;html=1;image=img/lib/clip_art/computers/Netbook_128x128.png;shadow=0;strokeColor=#000000;fillColor=#FFFFFF;gradientColor=none;fontSize=18;fontColor=#F08705;fontStyle=0" parent="1" vertex="1">
          <mxGeometry x="1390" y="997" width="80" height="80" as="geometry" />
        </mxCell>
        <mxCell id="70" value="" style="strokeWidth=2;strokeColor=#666666;dashed=0;align=center;html=1;fontSize=8;shape=mxgraph.eip.messageChannel;shadow=0;fillColor=#FFFFFF;gradientColor=none;fontColor=#F08705;fontStyle=0" parent="1" vertex="1">
          <mxGeometry x="1290" y="1121" width="400" height="20" as="geometry" />
        </mxCell>
        <mxCell id="75" value="" style="image;html=1;image=img/lib/clip_art/networking/Wireless_Router_128x128.png;shadow=0;strokeColor=#000000;fillColor=#FFFFFF;gradientColor=none;fontSize=18;fontColor=#F08705;fontStyle=0" parent="1" vertex="1">
          <mxGeometry x="657" y="993" width="80" height="80" as="geometry" />
        </mxCell>
        <mxCell id="76" value="" style="image;html=1;image=img/lib/clip_art/computers/Workstation_128x128.png;shadow=0;strokeColor=#000000;fillColor=#FFFFFF;gradientColor=none;fontSize=18;fontColor=#F08705;fontStyle=0" parent="1" vertex="1">
          <mxGeometry x="1520" y="419" width="80" height="80" as="geometry" />
        </mxCell>
        <mxCell id="77" value="" style="image;html=1;image=img/lib/clip_art/computers/Workstation_128x128.png;shadow=0;strokeColor=#000000;fillColor=#FFFFFF;gradientColor=none;fontSize=18;fontColor=#F08705;fontStyle=0" parent="1" vertex="1">
          <mxGeometry x="1520" y="524" width="80" height="80" as="geometry" />
        </mxCell>
        <mxCell id="78" value="" style="image;html=1;image=img/lib/clip_art/computers/Workstation_128x128.png;shadow=0;strokeColor=#000000;fillColor=#FFFFFF;gradientColor=none;fontSize=18;fontColor=#F08705;fontStyle=0" parent="1" vertex="1">
          <mxGeometry x="1520" y="629" width="80" height="80" as="geometry" />
        </mxCell>
        <mxCell id="79" value="" style="image;html=1;image=img/lib/clip_art/computers/Workstation_128x128.png;shadow=0;strokeColor=#000000;fillColor=#FFFFFF;gradientColor=none;fontSize=18;fontColor=#F08705;fontStyle=0" parent="1" vertex="1">
          <mxGeometry x="40" y="503" width="80" height="80" as="geometry" />
        </mxCell>
        <mxCell id="80" value="" style="image;html=1;image=img/lib/clip_art/computers/Workstation_128x128.png;shadow=0;strokeColor=#000000;fillColor=#FFFFFF;gradientColor=none;fontSize=18;fontColor=#F08705;fontStyle=0" parent="1" vertex="1">
          <mxGeometry x="50" y="599" width="80" height="80" as="geometry" />
        </mxCell>
        <mxCell id="81" value="" style="image;html=1;image=img/lib/clip_art/computers/Workstation_128x128.png;shadow=0;strokeColor=#000000;fillColor=#FFFFFF;gradientColor=none;fontSize=18;fontColor=#F08705;fontStyle=0" parent="1" vertex="1">
          <mxGeometry x="50" y="693" width="80" height="80" as="geometry" />
        </mxCell>
        <mxCell id="82" value="&lt;div&gt;OPNsense&lt;/div&gt;&lt;div&gt;Unbound DNS&lt;br&gt;&lt;/div&gt;" style="image;html=1;image=img/lib/clip_art/networking/Firewall_128x128.png;shadow=0;strokeColor=#000000;fillColor=#FFFFFF;gradientColor=none;fontSize=18;fontColor=#F08705;fontStyle=0" parent="1" vertex="1">
          <mxGeometry x="990" y="640" width="80" height="80" as="geometry" />
        </mxCell>
        <mxCell id="83" style="edgeStyle=none;rounded=0;html=1;fontSize=18;fontColor=#F08705;endArrow=none;endFill=0;strokeColor=#23445D;strokeWidth=2;fontStyle=0" parent="1" source="22" target="23" edge="1">
          <mxGeometry relative="1" as="geometry" />
        </mxCell>
        <mxCell id="84" value="" style="image;html=1;image=img/lib/clip_art/networking/Router_128x128.png;shadow=0;strokeColor=#000000;fillColor=#FFFFFF;gradientColor=none;fontSize=18;fontColor=#F08705;fontStyle=0" parent="1" vertex="1">
          <mxGeometry x="378" y="289" width="80" height="80" as="geometry" />
        </mxCell>
        <mxCell id="85" value="" style="edgeStyle=elbowEdgeStyle;strokeWidth=2;rounded=0;endArrow=none;startArrow=none;startSize=10;endSize=10;dashed=0;html=1;strokeColor=#23445D;fontSize=18;fontColor=#F08705;startFill=0;endFill=0;fontStyle=0" parent="1" source="25" target="20" edge="1">
          <mxGeometry relative="1" as="geometry">
            <mxPoint x="630" y="170" as="sourcePoint" />
            <mxPoint x="630" y="230" as="targetPoint" />
          </mxGeometry>
        </mxCell>
        <mxCell id="86" value="" style="edgeStyle=elbowEdgeStyle;strokeWidth=2;rounded=0;endArrow=none;startArrow=none;startSize=10;endSize=10;dashed=0;html=1;strokeColor=#23445D;fontSize=18;fontColor=#F08705;startFill=0;endFill=0;fontStyle=0" parent="1" source="26" target="20" edge="1">
          <mxGeometry relative="1" as="geometry">
            <mxPoint x="730" y="170" as="sourcePoint" />
            <mxPoint x="730" y="230" as="targetPoint" />
          </mxGeometry>
        </mxCell>
        <mxCell id="87" value="" style="edgeStyle=elbowEdgeStyle;strokeWidth=2;rounded=0;endArrow=none;startArrow=none;startSize=10;endSize=10;dashed=0;html=1;strokeColor=#23445D;fontSize=18;fontColor=#F08705;startFill=0;endFill=0;fontStyle=0" parent="1" source="27" target="45" edge="1">
          <mxGeometry relative="1" as="geometry">
            <mxPoint x="910" y="169" as="sourcePoint" />
            <mxPoint x="910" y="222" as="targetPoint" />
          </mxGeometry>
        </mxCell>
        <mxCell id="88" value="" style="edgeStyle=elbowEdgeStyle;strokeWidth=2;rounded=0;endArrow=none;startArrow=none;startSize=10;endSize=10;dashed=0;html=1;strokeColor=#23445D;fontSize=18;fontColor=#F08705;startFill=0;endFill=0;fontStyle=0" parent="1" source="28" target="45" edge="1">
          <mxGeometry relative="1" as="geometry">
            <mxPoint x="560" y="197" as="sourcePoint" />
            <mxPoint x="560" y="250" as="targetPoint" />
          </mxGeometry>
        </mxCell>
        <mxCell id="89" value="" style="edgeStyle=elbowEdgeStyle;strokeWidth=2;rounded=0;endArrow=none;startArrow=none;startSize=10;endSize=10;dashed=0;html=1;strokeColor=#23445D;fontSize=18;fontColor=#F08705;startFill=0;endFill=0;fontStyle=0" parent="1" source="29" target="45" edge="1">
          <mxGeometry relative="1" as="geometry">
            <mxPoint x="1060" y="187" as="sourcePoint" />
            <mxPoint x="1060" y="239" as="targetPoint" />
          </mxGeometry>
        </mxCell>
        <mxCell id="90" value="" style="edgeStyle=elbowEdgeStyle;strokeWidth=2;rounded=0;endArrow=none;startArrow=none;startSize=10;endSize=10;dashed=0;html=1;strokeColor=#23445D;fontSize=18;fontColor=#F08705;startFill=0;endFill=0;fontStyle=0" parent="1" source="51" target="45" edge="1">
          <mxGeometry relative="1" as="geometry">
            <mxPoint x="1070" y="197" as="sourcePoint" />
            <mxPoint x="1070" y="249" as="targetPoint" />
          </mxGeometry>
        </mxCell>
        <mxCell id="91" value="" style="edgeStyle=elbowEdgeStyle;strokeWidth=2;rounded=0;endArrow=none;startArrow=none;startSize=10;endSize=10;dashed=0;html=1;strokeColor=#23445D;fontSize=18;fontColor=#F08705;startFill=0;endFill=0;fontStyle=0" parent="1" source="30" target="46" edge="1">
          <mxGeometry relative="1" as="geometry">
            <mxPoint x="550" y="187" as="sourcePoint" />
            <mxPoint x="550" y="240" as="targetPoint" />
          </mxGeometry>
        </mxCell>
        <mxCell id="92" value="" style="edgeStyle=elbowEdgeStyle;strokeWidth=2;rounded=0;endArrow=none;startArrow=none;startSize=10;endSize=10;dashed=0;html=1;strokeColor=#23445D;fontSize=18;fontColor=#F08705;startFill=0;endFill=0;fontStyle=0" parent="1" source="31" target="46" edge="1">
          <mxGeometry relative="1" as="geometry">
            <mxPoint x="560" y="197" as="sourcePoint" />
            <mxPoint x="560" y="250" as="targetPoint" />
          </mxGeometry>
        </mxCell>
        <mxCell id="93" value="" style="edgeStyle=elbowEdgeStyle;strokeWidth=2;rounded=0;endArrow=none;startArrow=none;startSize=10;endSize=10;dashed=0;html=1;strokeColor=#23445D;fontSize=18;fontColor=#F08705;startFill=0;endFill=0;fontStyle=0" parent="1" source="32" target="46" edge="1">
          <mxGeometry relative="1" as="geometry">
            <mxPoint x="570" y="207" as="sourcePoint" />
            <mxPoint x="570" y="260" as="targetPoint" />
          </mxGeometry>
        </mxCell>
        <mxCell id="94" value="" style="edgeStyle=elbowEdgeStyle;strokeWidth=2;rounded=0;endArrow=none;startArrow=none;startSize=10;endSize=10;dashed=0;html=1;strokeColor=#23445D;fontSize=18;fontColor=#F08705;startFill=0;endFill=0;fontStyle=0" parent="1" source="36" target="48" edge="1">
          <mxGeometry relative="1" as="geometry">
            <mxPoint x="550" y="379" as="sourcePoint" />
            <mxPoint x="550" y="409" as="targetPoint" />
          </mxGeometry>
        </mxCell>
        <mxCell id="95" value="" style="edgeStyle=elbowEdgeStyle;strokeWidth=2;rounded=0;endArrow=none;startArrow=none;startSize=10;endSize=10;dashed=0;html=1;strokeColor=#23445D;fontSize=18;fontColor=#F08705;startFill=0;endFill=0;fontStyle=0" parent="1" source="37" target="48" edge="1">
          <mxGeometry relative="1" as="geometry">
            <mxPoint x="300" y="564" as="sourcePoint" />
            <mxPoint x="300" y="604" as="targetPoint" />
          </mxGeometry>
        </mxCell>
        <mxCell id="96" value="" style="edgeStyle=elbowEdgeStyle;strokeWidth=2;rounded=0;endArrow=none;startArrow=none;startSize=10;endSize=10;dashed=0;html=1;strokeColor=#23445D;fontSize=18;fontColor=#F08705;startFill=0;endFill=0;fontStyle=0" parent="1" source="38" target="48" edge="1">
          <mxGeometry relative="1" as="geometry">
            <mxPoint x="310" y="574" as="sourcePoint" />
            <mxPoint x="310" y="614" as="targetPoint" />
          </mxGeometry>
        </mxCell>
        <mxCell id="97" value="" style="edgeStyle=elbowEdgeStyle;strokeWidth=2;rounded=0;endArrow=none;startArrow=none;startSize=10;endSize=10;dashed=0;html=1;strokeColor=#23445D;fontSize=18;fontColor=#F08705;startFill=0;endFill=0;fontStyle=0" parent="1" source="39" target="48" edge="1">
          <mxGeometry relative="1" as="geometry">
            <mxPoint x="490" y="564" as="sourcePoint" />
            <mxPoint x="490" y="604" as="targetPoint" />
          </mxGeometry>
        </mxCell>
        <mxCell id="98" value="" style="edgeStyle=elbowEdgeStyle;strokeWidth=2;rounded=0;endArrow=none;startArrow=none;startSize=10;endSize=10;dashed=0;html=1;strokeColor=#23445D;fontSize=18;fontColor=#F08705;startFill=0;endFill=0;fontStyle=0" parent="1" source="40" target="48" edge="1">
          <mxGeometry relative="1" as="geometry">
            <mxPoint x="500" y="574" as="sourcePoint" />
            <mxPoint x="500" y="614" as="targetPoint" />
          </mxGeometry>
        </mxCell>
        <mxCell id="99" value="" style="edgeStyle=elbowEdgeStyle;strokeWidth=2;rounded=0;endArrow=none;startArrow=none;startSize=10;endSize=10;dashed=0;html=1;strokeColor=#23445D;fontSize=18;fontColor=#F08705;startFill=0;endFill=0;fontStyle=0" parent="1" source="41" target="48" edge="1">
          <mxGeometry relative="1" as="geometry">
            <mxPoint x="735" y="564" as="sourcePoint" />
            <mxPoint x="735" y="604" as="targetPoint" />
          </mxGeometry>
        </mxCell>
        <mxCell id="100" value="" style="edgeStyle=elbowEdgeStyle;strokeWidth=2;rounded=0;endArrow=none;startArrow=none;startSize=10;endSize=10;dashed=0;html=1;strokeColor=#23445D;fontSize=18;fontColor=#F08705;startFill=0;endFill=0;fontStyle=0" parent="1" source="42" target="48" edge="1">
          <mxGeometry relative="1" as="geometry">
            <mxPoint x="745" y="574" as="sourcePoint" />
            <mxPoint x="745" y="614" as="targetPoint" />
          </mxGeometry>
        </mxCell>
        <mxCell id="101" value="" style="edgeStyle=elbowEdgeStyle;strokeWidth=2;rounded=0;endArrow=none;startArrow=none;startSize=10;endSize=10;dashed=0;html=1;strokeColor=#23445D;fontSize=18;fontColor=#F08705;startFill=0;endFill=0;fontStyle=0" parent="1" source="43" target="48" edge="1">
          <mxGeometry relative="1" as="geometry">
            <mxPoint x="755" y="584" as="sourcePoint" />
            <mxPoint x="755" y="624" as="targetPoint" />
          </mxGeometry>
        </mxCell>
        <mxCell id="102" value="" style="edgeStyle=elbowEdgeStyle;strokeWidth=2;rounded=0;endArrow=none;startArrow=none;startSize=10;endSize=10;dashed=0;html=1;strokeColor=#23445D;fontSize=18;fontColor=#F08705;startFill=0;endFill=0;fontStyle=0" parent="1" source="44" target="48" edge="1">
          <mxGeometry relative="1" as="geometry">
            <mxPoint x="765" y="594" as="sourcePoint" />
            <mxPoint x="765" y="634" as="targetPoint" />
          </mxGeometry>
        </mxCell>
        <mxCell id="103" value="" style="edgeStyle=elbowEdgeStyle;strokeWidth=2;rounded=0;endArrow=none;startArrow=none;startSize=10;endSize=10;dashed=0;html=1;strokeColor=#23445D;fontSize=18;fontColor=#F08705;startFill=0;endFill=0;fontStyle=0" parent="1" source="82" target="48" edge="1">
          <mxGeometry relative="1" as="geometry">
            <mxPoint x="775" y="604" as="sourcePoint" />
            <mxPoint x="775" y="644" as="targetPoint" />
          </mxGeometry>
        </mxCell>
        <mxCell id="104" value="" style="edgeStyle=elbowEdgeStyle;strokeWidth=2;rounded=0;endArrow=none;startArrow=none;startSize=10;endSize=10;dashed=0;html=1;strokeColor=#23445D;fontSize=18;fontColor=#F08705;startFill=0;endFill=0;fontStyle=0" parent="1" source="33" target="47" edge="1">
          <mxGeometry relative="1" as="geometry">
            <mxPoint x="785" y="614" as="sourcePoint" />
            <mxPoint x="785" y="654" as="targetPoint" />
          </mxGeometry>
        </mxCell>
        <mxCell id="105" value="" style="edgeStyle=elbowEdgeStyle;strokeWidth=2;rounded=0;endArrow=none;startArrow=none;startSize=10;endSize=10;dashed=0;html=1;strokeColor=#23445D;fontSize=18;fontColor=#F08705;startFill=0;endFill=0;fontStyle=0" parent="1" source="34" target="47" edge="1">
          <mxGeometry relative="1" as="geometry">
            <mxPoint x="970" y="379" as="sourcePoint" />
            <mxPoint x="970" y="409" as="targetPoint" />
          </mxGeometry>
        </mxCell>
        <mxCell id="106" value="" style="edgeStyle=elbowEdgeStyle;strokeWidth=2;rounded=0;endArrow=none;startArrow=none;startSize=10;endSize=10;dashed=0;html=1;strokeColor=#23445D;fontSize=18;fontColor=#F08705;startFill=0;endFill=0;fontStyle=0" parent="1" source="35" target="47" edge="1">
          <mxGeometry relative="1" as="geometry">
            <mxPoint x="980" y="389" as="sourcePoint" />
            <mxPoint x="980" y="419" as="targetPoint" />
          </mxGeometry>
        </mxCell>
        <mxCell id="107" value="" style="edgeStyle=elbowEdgeStyle;strokeWidth=2;rounded=0;endArrow=none;startArrow=none;startSize=10;endSize=10;dashed=0;html=1;strokeColor=#23445D;fontSize=18;fontColor=#F08705;startFill=0;endFill=0;fontStyle=0" parent="1" source="52" target="47" edge="1">
          <mxGeometry relative="1" as="geometry">
            <mxPoint x="990" y="399" as="sourcePoint" />
            <mxPoint x="990" y="429" as="targetPoint" />
          </mxGeometry>
        </mxCell>
        <mxCell id="108" style="edgeStyle=none;rounded=0;html=1;startArrow=none;startFill=0;endArrow=none;endFill=0;fontSize=18;fontColor=#F08705;strokeColor=#23445D;strokeWidth=2;fontStyle=0" parent="1" source="51" target="17" edge="1">
          <mxGeometry relative="1" as="geometry" />
        </mxCell>
        <mxCell id="109" style="edgeStyle=orthogonalEdgeStyle;rounded=0;html=1;startArrow=none;startFill=0;endArrow=none;endFill=0;fontSize=18;fontColor=#F08705;strokeColor=#23445D;strokeWidth=2;curved=1;fontStyle=0" parent="1" source="52" target="18" edge="1">
          <mxGeometry relative="1" as="geometry">
            <Array as="points">
              <mxPoint x="1404" y="321" />
              <mxPoint x="1404" y="260" />
            </Array>
          </mxGeometry>
        </mxCell>
        <mxCell id="110" style="edgeStyle=none;rounded=0;html=1;startArrow=none;startFill=0;endArrow=none;endFill=0;fontSize=18;fontColor=#F08705;strokeColor=#23445D;strokeWidth=2;fontStyle=0" parent="1" source="82" target="19" edge="1">
          <mxGeometry relative="1" as="geometry" />
        </mxCell>
        <mxCell id="111" value="" style="image;html=1;image=img/lib/clip_art/computers/Laptop_128x128.png;shadow=0;strokeColor=#000000;fillColor=#FFFFFF;gradientColor=none;fontSize=18;fontColor=#F08705;fontStyle=0" parent="1" vertex="1">
          <mxGeometry x="897.5" y="1110" width="80" height="80" as="geometry" />
        </mxCell>
        <mxCell id="112" value="" style="image;html=1;image=img/lib/clip_art/computers/Laptop_128x128.png;shadow=0;strokeColor=#000000;fillColor=#FFFFFF;gradientColor=none;fontSize=18;fontColor=#F08705;fontStyle=0" parent="1" vertex="1">
          <mxGeometry x="977.5" y="1110" width="80" height="80" as="geometry" />
        </mxCell>
        <mxCell id="113" value="" style="image;html=1;image=img/lib/clip_art/computers/Laptop_128x128.png;shadow=0;strokeColor=#000000;fillColor=#FFFFFF;gradientColor=none;fontSize=18;fontColor=#F08705;fontStyle=0" parent="1" vertex="1">
          <mxGeometry x="987.5" y="1190" width="80" height="80" as="geometry" />
        </mxCell>
        <mxCell id="114" value="" style="image;html=1;image=img/lib/clip_art/computers/Laptop_128x128.png;shadow=0;strokeColor=#000000;fillColor=#FFFFFF;gradientColor=none;fontSize=18;fontColor=#F08705;fontStyle=0" parent="1" vertex="1">
          <mxGeometry x="1082.5" y="1171" width="80" height="80" as="geometry" />
        </mxCell>
        <mxCell id="115" style="edgeStyle=orthogonalEdgeStyle;rounded=0;html=1;startArrow=none;startFill=0;endArrow=none;endFill=0;fontSize=18;fontColor=#F08705;strokeColor=#23445D;strokeWidth=2;curved=1;fontStyle=0" parent="1" source="23" target="49" edge="1">
          <mxGeometry relative="1" as="geometry" />
        </mxCell>
        <mxCell id="116" style="edgeStyle=orthogonalEdgeStyle;rounded=0;html=1;startArrow=none;startFill=0;endArrow=none;endFill=0;fontSize=18;fontColor=#F08705;strokeColor=#23445D;strokeWidth=2;curved=1;fontStyle=0" parent="1" source="84" target="50" edge="1">
          <mxGeometry relative="1" as="geometry" />
        </mxCell>
        <mxCell id="117" style="edgeStyle=orthogonalEdgeStyle;rounded=0;html=1;startArrow=none;startFill=0;endArrow=none;endFill=0;fontSize=18;fontColor=#F08705;strokeColor=#23445D;strokeWidth=2;curved=1;fontStyle=0" parent="1" source="55" target="79" edge="1">
          <mxGeometry relative="1" as="geometry">
            <Array as="points">
              <mxPoint x="210" y="680" />
              <mxPoint x="210" y="543" />
            </Array>
          </mxGeometry>
        </mxCell>
        <mxCell id="118" style="edgeStyle=orthogonalEdgeStyle;rounded=0;html=1;startArrow=none;startFill=0;endArrow=none;endFill=0;fontSize=18;fontColor=#F08705;strokeColor=#23445D;strokeWidth=2;curved=1;fontStyle=0" parent="1" source="55" target="80" edge="1">
          <mxGeometry relative="1" as="geometry">
            <Array as="points">
              <mxPoint x="200" y="680" />
              <mxPoint x="200" y="639" />
            </Array>
          </mxGeometry>
        </mxCell>
        <mxCell id="119" style="edgeStyle=orthogonalEdgeStyle;rounded=0;html=1;startArrow=none;startFill=0;endArrow=none;endFill=0;fontSize=18;fontColor=#F08705;strokeColor=#23445D;strokeWidth=2;curved=1;fontStyle=0" parent="1" source="55" target="81" edge="1">
          <mxGeometry relative="1" as="geometry">
            <Array as="points">
              <mxPoint x="210" y="680" />
              <mxPoint x="210" y="733" />
            </Array>
          </mxGeometry>
        </mxCell>
        <mxCell id="120" value="" style="edgeStyle=elbowEdgeStyle;strokeWidth=2;rounded=0;endArrow=none;startArrow=none;startSize=10;endSize=10;dashed=0;html=1;strokeColor=#23445D;fontSize=18;fontColor=#F08705;startFill=0;endFill=0;fontStyle=0" parent="1" source="48" target="53" edge="1">
          <mxGeometry relative="1" as="geometry">
            <mxPoint x="489.7619047619048" y="564.4761904761906" as="sourcePoint" />
            <mxPoint x="489.7619047619048" y="603.7619047619048" as="targetPoint" />
          </mxGeometry>
        </mxCell>
        <mxCell id="121" value="" style="edgeStyle=elbowEdgeStyle;strokeWidth=2;rounded=0;endArrow=none;startArrow=none;startSize=10;endSize=10;dashed=0;html=1;strokeColor=#23445D;fontSize=18;fontColor=#F08705;startFill=0;endFill=0;fontStyle=0" parent="1" source="48" target="54" edge="1">
          <mxGeometry relative="1" as="geometry">
            <mxPoint x="650.4761904761904" y="624" as="sourcePoint" />
            <mxPoint x="650.4761904761904" y="689.4761904761906" as="targetPoint" />
          </mxGeometry>
        </mxCell>
        <mxCell id="122" style="edgeStyle=orthogonalEdgeStyle;rounded=0;html=1;startArrow=none;startFill=0;endArrow=none;endFill=0;fontSize=18;fontColor=#F08705;strokeColor=#23445D;strokeWidth=2;curved=1;fontStyle=0" parent="1" source="114" edge="1">
          <mxGeometry relative="1" as="geometry">
            <Array as="points">
              <mxPoint x="1132.5" y="1160" />
              <mxPoint x="1132.5" y="1160" />
            </Array>
            <mxPoint x="1132.5" y="1050" as="targetPoint" />
          </mxGeometry>
        </mxCell>
        <mxCell id="123" style="edgeStyle=orthogonalEdgeStyle;rounded=0;html=1;startArrow=none;startFill=0;endArrow=none;endFill=0;fontSize=18;fontColor=#F08705;strokeColor=#23445D;strokeWidth=2;curved=1;fontStyle=0" parent="1" source="113" edge="1">
          <mxGeometry relative="1" as="geometry">
            <Array as="points">
              <mxPoint x="1072.5" y="1230" />
              <mxPoint x="1072.5" y="1120" />
              <mxPoint x="1132.5" y="1120" />
            </Array>
            <mxPoint x="1132.5" y="1050" as="targetPoint" />
          </mxGeometry>
        </mxCell>
        <mxCell id="126" style="edgeStyle=none;rounded=0;html=1;startArrow=none;startFill=0;endArrow=none;endFill=0;fontSize=18;fontColor=#F08705;strokeColor=#23445D;strokeWidth=2;fontStyle=0" parent="1" source="54" target="56" edge="1">
          <mxGeometry relative="1" as="geometry" />
        </mxCell>
        <mxCell id="127" style="edgeStyle=orthogonalEdgeStyle;rounded=0;html=1;startArrow=none;startFill=0;endArrow=none;endFill=0;fontSize=18;fontColor=#F08705;strokeColor=#23445D;strokeWidth=2;curved=1;fontStyle=0" parent="1" source="78" target="56" edge="1">
          <mxGeometry relative="1" as="geometry">
            <Array as="points">
              <mxPoint x="1460" y="669" />
              <mxPoint x="1460" y="524" />
            </Array>
          </mxGeometry>
        </mxCell>
        <mxCell id="128" style="edgeStyle=orthogonalEdgeStyle;rounded=0;html=1;startArrow=none;startFill=0;endArrow=none;endFill=0;fontSize=18;fontColor=#F08705;strokeColor=#23445D;strokeWidth=2;curved=1;fontStyle=0" parent="1" source="77" target="56" edge="1">
          <mxGeometry relative="1" as="geometry" />
        </mxCell>
        <mxCell id="129" style="edgeStyle=orthogonalEdgeStyle;rounded=0;html=1;startArrow=none;startFill=0;endArrow=none;endFill=0;fontSize=18;fontColor=#F08705;strokeColor=#23445D;strokeWidth=2;curved=1;fontStyle=0" parent="1" source="76" target="56" edge="1">
          <mxGeometry relative="1" as="geometry" />
        </mxCell>
        <mxCell id="130" value="" style="image;html=1;image=img/lib/clip_art/networking/Router_128x128.png;shadow=0;strokeColor=#000000;fillColor=#FFFFFF;gradientColor=none;fontSize=18;fontColor=#F08705;fontStyle=0" parent="1" vertex="1">
          <mxGeometry x="1290" y="997" width="80" height="80" as="geometry" />
        </mxCell>
        <mxCell id="133" style="edgeStyle=orthogonalEdgeStyle;rounded=0;html=1;startArrow=none;startFill=0;endArrow=none;endFill=0;fontSize=18;fontColor=#F08705;strokeColor=#23445D;strokeWidth=2;curved=1;fontStyle=0" parent="1" edge="1">
          <mxGeometry relative="1" as="geometry">
            <Array as="points">
              <mxPoint x="1247.5" y="1080" />
              <mxPoint x="1132.5" y="1080" />
            </Array>
            <mxPoint x="1247.5" y="1159" as="sourcePoint" />
            <mxPoint x="1132.5" y="1050" as="targetPoint" />
          </mxGeometry>
        </mxCell>
        <mxCell id="134" value="" style="edgeStyle=elbowEdgeStyle;strokeWidth=2;rounded=0;endArrow=none;startArrow=none;startSize=10;endSize=10;dashed=0;html=1;strokeColor=#23445D;fontSize=18;fontColor=#F08705;startFill=0;endFill=0;fontStyle=0" parent="1" source="67" target="70" edge="1">
          <mxGeometry relative="1" as="geometry">
            <mxPoint x="1065.4761904761904" y="688" as="sourcePoint" />
            <mxPoint x="1065.4761904761904" y="717.7619047619048" as="targetPoint" />
          </mxGeometry>
        </mxCell>
        <mxCell id="135" value="" style="edgeStyle=elbowEdgeStyle;strokeWidth=2;rounded=0;endArrow=none;startArrow=none;startSize=10;endSize=10;dashed=0;html=1;strokeColor=#23445D;fontSize=18;fontColor=#F08705;startFill=0;endFill=0;fontStyle=0" parent="1" source="68" target="70" edge="1">
          <mxGeometry relative="1" as="geometry">
            <mxPoint x="1249.5867768595042" y="1086.9669421487604" as="sourcePoint" />
            <mxPoint x="1249.5867768595042" y="1130.7685950413222" as="targetPoint" />
          </mxGeometry>
        </mxCell>
        <mxCell id="136" value="" style="edgeStyle=elbowEdgeStyle;strokeWidth=2;rounded=0;endArrow=none;startArrow=none;startSize=10;endSize=10;dashed=0;html=1;strokeColor=#23445D;fontSize=18;fontColor=#F08705;startFill=0;endFill=0;fontStyle=0" parent="1" source="69" target="70" edge="1">
          <mxGeometry relative="1" as="geometry">
            <mxPoint x="1259.5867768595042" y="1096.9669421487604" as="sourcePoint" />
            <mxPoint x="1259.5867768595042" y="1140.7685950413222" as="targetPoint" />
          </mxGeometry>
        </mxCell>
        <mxCell id="137" value="" style="edgeStyle=elbowEdgeStyle;strokeWidth=2;rounded=0;endArrow=none;startArrow=none;startSize=10;endSize=10;dashed=0;html=1;strokeColor=#23445D;fontSize=18;fontColor=#F08705;startFill=0;endFill=0;fontStyle=0" parent="1" source="130" target="70" edge="1">
          <mxGeometry relative="1" as="geometry">
            <mxPoint x="1269.5867768595042" y="1106.9669421487604" as="sourcePoint" />
            <mxPoint x="1269.5867768595042" y="1150.7685950413222" as="targetPoint" />
          </mxGeometry>
        </mxCell>
        <mxCell id="142" style="edgeStyle=none;rounded=0;html=1;startArrow=none;startFill=0;endArrow=none;endFill=0;fontSize=18;fontColor=#F08705;strokeColor=#23445D;strokeWidth=2;fontStyle=0" parent="1" source="53" target="75" edge="1">
          <mxGeometry relative="1" as="geometry" />
        </mxCell>
        <mxCell id="143" value="" style="edgeStyle=elbowEdgeStyle;strokeWidth=2;rounded=0;endArrow=none;startArrow=none;startSize=10;endSize=10;dashed=0;html=1;strokeColor=#23445D;fontSize=18;fontColor=#F08705;startFill=0;endFill=0;fontStyle=0" parent="1" source="59" target="62" edge="1">
          <mxGeometry relative="1" as="geometry">
            <mxPoint x="443.08264462809916" y="463.87603305785115" as="sourcePoint" />
            <mxPoint x="443.08264462809916" y="504.37190082644634" as="targetPoint" />
          </mxGeometry>
        </mxCell>
        <mxCell id="144" value="" style="edgeStyle=elbowEdgeStyle;strokeWidth=2;rounded=0;endArrow=none;startArrow=none;startSize=10;endSize=10;dashed=0;html=1;strokeColor=#23445D;fontSize=18;fontColor=#F08705;startFill=0;endFill=0;fontStyle=0" parent="1" source="60" target="62" edge="1">
          <mxGeometry relative="1" as="geometry">
            <mxPoint x="308.37190082644634" y="905.1983471074379" as="sourcePoint" />
            <mxPoint x="308.37190082644634" y="934.9504132231405" as="targetPoint" />
          </mxGeometry>
        </mxCell>
        <mxCell id="145" value="" style="edgeStyle=elbowEdgeStyle;strokeWidth=2;rounded=0;endArrow=none;startArrow=none;startSize=10;endSize=10;dashed=0;html=1;strokeColor=#23445D;fontSize=18;fontColor=#F08705;startFill=0;endFill=0;fontStyle=0" parent="1" source="61" target="62" edge="1">
          <mxGeometry relative="1" as="geometry">
            <mxPoint x="397.62809917355366" y="905.1983471074379" as="sourcePoint" />
            <mxPoint x="397.62809917355366" y="934.9504132231405" as="targetPoint" />
          </mxGeometry>
        </mxCell>
        <mxCell id="146" value="" style="edgeStyle=elbowEdgeStyle;strokeWidth=2;rounded=0;endArrow=none;startArrow=none;startSize=10;endSize=10;dashed=0;html=1;strokeColor=#23445D;fontSize=18;fontColor=#F08705;startFill=0;endFill=0;fontStyle=0" parent="1" source="57" target="62" edge="1">
          <mxGeometry relative="1" as="geometry">
            <mxPoint x="407.62809917355366" y="915.1983471074379" as="sourcePoint" />
            <mxPoint x="407.62809917355366" y="944.9504132231405" as="targetPoint" />
          </mxGeometry>
        </mxCell>
        <mxCell id="147" value="" style="edgeStyle=elbowEdgeStyle;strokeWidth=2;rounded=0;endArrow=none;startArrow=none;startSize=10;endSize=10;dashed=0;html=1;strokeColor=#23445D;fontSize=18;fontColor=#F08705;startFill=0;endFill=0;fontStyle=0" parent="1" source="63" target="66" edge="1">
          <mxGeometry relative="1" as="geometry">
            <mxPoint x="411.62809917355366" y="959.1983471074379" as="sourcePoint" />
            <mxPoint x="411.62809917355366" y="988.9504132231405" as="targetPoint" />
          </mxGeometry>
        </mxCell>
        <mxCell id="148" value="" style="edgeStyle=elbowEdgeStyle;strokeWidth=2;rounded=0;endArrow=none;startArrow=none;startSize=10;endSize=10;dashed=0;html=1;strokeColor=#23445D;fontSize=18;fontColor=#F08705;startFill=0;endFill=0;fontStyle=0" parent="1" source="64" target="66" edge="1">
          <mxGeometry relative="1" as="geometry">
            <mxPoint x="421.62809917355366" y="969.1983471074379" as="sourcePoint" />
            <mxPoint x="421.62809917355366" y="998.9504132231405" as="targetPoint" />
          </mxGeometry>
        </mxCell>
        <mxCell id="149" value="" style="edgeStyle=elbowEdgeStyle;strokeWidth=2;rounded=0;endArrow=none;startArrow=none;startSize=10;endSize=10;dashed=0;html=1;strokeColor=#23445D;fontSize=18;fontColor=#F08705;startFill=0;endFill=0;fontStyle=0" parent="1" source="65" target="66" edge="1">
          <mxGeometry relative="1" as="geometry">
            <mxPoint x="431.62809917355366" y="979.1983471074379" as="sourcePoint" />
            <mxPoint x="431.62809917355366" y="1008.9504132231405" as="targetPoint" />
          </mxGeometry>
        </mxCell>
        <mxCell id="150" value="" style="edgeStyle=elbowEdgeStyle;strokeWidth=2;rounded=0;endArrow=none;startArrow=none;startSize=10;endSize=10;dashed=0;html=1;strokeColor=#23445D;fontSize=18;fontColor=#F08705;startFill=0;endFill=0;fontStyle=0" parent="1" source="75" target="66" edge="1">
          <mxGeometry relative="1" as="geometry">
            <mxPoint x="441.62809917355366" y="989.1983471074379" as="sourcePoint" />
            <mxPoint x="441.62809917355366" y="1018.9504132231405" as="targetPoint" />
          </mxGeometry>
        </mxCell>
        <mxCell id="151" value="" style="edgeStyle=elbowEdgeStyle;strokeWidth=2;rounded=0;endArrow=none;startArrow=none;startSize=10;endSize=10;dashed=0;html=1;strokeColor=#23445D;fontSize=18;fontColor=#F08705;startFill=0;endFill=0;fontStyle=0" parent="1" source="22" target="20" edge="1">
          <mxGeometry relative="1" as="geometry">
            <mxPoint x="550.5797101449277" y="186.68115942028987" as="sourcePoint" />
            <mxPoint x="550.5797101449277" y="240.30434782608688" as="targetPoint" />
          </mxGeometry>
        </mxCell>
        <mxCell id="152" value="" style="edgeStyle=elbowEdgeStyle;strokeWidth=2;rounded=0;endArrow=none;startArrow=none;startSize=10;endSize=10;dashed=0;html=1;strokeColor=#23445D;fontSize=18;fontColor=#F08705;startFill=0;endFill=0;fontStyle=0" parent="1" source="84" target="46" edge="1">
          <mxGeometry relative="1" as="geometry">
            <mxPoint x="560.5797101449277" y="196.68115942028987" as="sourcePoint" />
            <mxPoint x="560.5797101449277" y="250.30434782608688" as="targetPoint" />
          </mxGeometry>
        </mxCell>
        <mxCell id="153" value="" style="edgeStyle=elbowEdgeStyle;strokeWidth=2;rounded=0;endArrow=none;startArrow=none;startSize=10;endSize=10;dashed=0;html=1;strokeColor=#23445D;fontSize=18;fontColor=#F08705;startFill=0;endFill=0;fontStyle=0" parent="1" source="48" target="55" edge="1">
          <mxGeometry relative="1" as="geometry">
            <mxPoint x="490.4878048780488" y="563.6341463414635" as="sourcePoint" />
            <mxPoint x="490.4878048780488" y="603.8780487804879" as="targetPoint" />
          </mxGeometry>
        </mxCell>
        <mxCell id="154" value="" style="image;html=1;image=img/lib/clip_art/networking/Router_128x128.png;shadow=0;strokeColor=#000000;fillColor=#FFFFFF;gradientColor=none;fontSize=18;fontColor=#F08705;fontStyle=0" parent="1" vertex="1">
          <mxGeometry x="230" y="474" width="80" height="80" as="geometry" />
        </mxCell>
        <mxCell id="155" value="" style="edgeStyle=elbowEdgeStyle;strokeWidth=2;rounded=0;endArrow=none;startArrow=none;startSize=10;endSize=10;dashed=0;html=1;strokeColor=#23445D;fontSize=18;fontColor=#F08705;startFill=0;endFill=0;fontStyle=0" parent="1" source="154" target="48" edge="1">
          <mxGeometry relative="1" as="geometry">
            <mxPoint x="427.57971014492773" y="391.6811594202899" as="sourcePoint" />
            <mxPoint x="285.29268292682923" y="593.7560975609755" as="targetPoint" />
          </mxGeometry>
        </mxCell>
        <mxCell id="156" value="" style="image;html=1;image=img/lib/clip_art/computers/Workstation_128x128.png;shadow=0;strokeColor=#000000;fillColor=#FFFFFF;gradientColor=none;fontSize=18;fontColor=#F08705;fontStyle=0" parent="1" vertex="1">
          <mxGeometry x="50" y="799" width="80" height="80" as="geometry" />
        </mxCell>
        <mxCell id="157" value="" style="image;html=1;image=img/lib/clip_art/computers/Workstation_128x128.png;shadow=0;strokeColor=#000000;fillColor=#FFFFFF;gradientColor=none;fontSize=18;fontColor=#F08705;fontStyle=0" parent="1" vertex="1">
          <mxGeometry x="50" y="901" width="80" height="80" as="geometry" />
        </mxCell>
        <mxCell id="158" style="edgeStyle=orthogonalEdgeStyle;rounded=0;html=1;startArrow=none;startFill=0;endArrow=none;endFill=0;fontSize=18;fontColor=#F08705;strokeColor=#23445D;strokeWidth=2;curved=1;fontStyle=0" parent="1" source="156" target="55" edge="1">
          <mxGeometry relative="1" as="geometry">
            <Array as="points">
              <mxPoint x="220" y="839" />
              <mxPoint x="220" y="680" />
            </Array>
          </mxGeometry>
        </mxCell>
        <mxCell id="159" style="edgeStyle=orthogonalEdgeStyle;rounded=0;html=1;startArrow=none;startFill=0;endArrow=none;endFill=0;fontSize=18;fontColor=#F08705;strokeColor=#23445D;strokeWidth=2;curved=1;fontStyle=0" parent="1" source="157" target="55" edge="1">
          <mxGeometry relative="1" as="geometry">
            <Array as="points">
              <mxPoint x="230" y="941" />
              <mxPoint x="230" y="680" />
            </Array>
          </mxGeometry>
        </mxCell>
        <mxCell id="160" value="HAProxy / Let&#39;s encrypt" style="image;html=1;image=img/lib/clip_art/networking/UPS_128x128.png;shadow=0;strokeColor=#000000;fillColor=#F2F2F2;gradientColor=none;fontSize=18;fontColor=#F08705;fontStyle=0" parent="1" vertex="1">
          <mxGeometry x="1220" y="659" width="80" height="80" as="geometry" />
        </mxCell>
        <mxCell id="161" style="edgeStyle=orthogonalEdgeStyle;rounded=0;jumpStyle=none;html=1;exitX=0.5;exitY=1;entryX=1;entryY=0.5;shadow=0;labelBackgroundColor=#ffffff;startArrow=none;startFill=0;endArrow=none;endFill=0;endSize=10;jettySize=auto;orthogonalLoop=1;strokeColor=#2F5B7C;strokeWidth=2;fillColor=#F08705;fontFamily=Helvetica;fontSize=14;fontColor=#F08705;align=left;curved=1;" parent="1" source="162" target="46" edge="1">
          <mxGeometry relative="1" as="geometry" />
        </mxCell>
        <mxCell id="162" value="" style="image;html=1;image=img/lib/clip_art/networking/Concentrator_128x128.png;shadow=0;strokeColor=#000000;fillColor=#F2F2F2;gradientColor=none;fontSize=18;fontColor=#F08705;fontStyle=0" parent="1" vertex="1">
          <mxGeometry x="810" y="289" width="80" height="80" as="geometry" />
        </mxCell>
        <mxCell id="163" style="edgeStyle=orthogonalEdgeStyle;rounded=0;html=1;entryX=1;entryY=0.5;startArrow=none;startFill=0;endArrow=none;endFill=0;fontSize=18;fontColor=#F08705;strokeColor=#23445D;strokeWidth=2;curved=1;fontStyle=0" parent="1" source="162" target="20" edge="1">
          <mxGeometry relative="1" as="geometry">
            <Array as="points">
              <mxPoint x="840" y="240" />
            </Array>
          </mxGeometry>
        </mxCell>
        <mxCell id="164" style="edgeStyle=orthogonalEdgeStyle;rounded=0;html=1;entryX=0;entryY=0.5;startArrow=none;startFill=0;endArrow=none;endFill=0;fontSize=18;fontColor=#F08705;strokeColor=#23445D;strokeWidth=2;curved=1;fontStyle=0" parent="1" source="162" target="45" edge="1">
          <mxGeometry relative="1" as="geometry">
            <Array as="points">
              <mxPoint x="860" y="240" />
            </Array>
          </mxGeometry>
        </mxCell>
        <mxCell id="165" style="edgeStyle=orthogonalEdgeStyle;rounded=0;html=1;entryX=0;entryY=0.5;startArrow=none;startFill=0;endArrow=none;endFill=0;fontSize=18;fontColor=#F08705;strokeColor=#23445D;strokeWidth=2;curved=1;fontStyle=0" parent="1" source="162" target="47" edge="1">
          <mxGeometry relative="1" as="geometry">
            <Array as="points">
              <mxPoint x="860" y="409" />
            </Array>
          </mxGeometry>
        </mxCell>
        <mxCell id="166" value="" style="edgeStyle=elbowEdgeStyle;strokeWidth=2;rounded=0;endArrow=none;startArrow=none;startSize=10;endSize=10;dashed=0;html=1;strokeColor=#23445D;fontSize=18;fontColor=#F08705;startFill=0;endFill=0;fontStyle=0" parent="1" source="48" target="160" edge="1">
          <mxGeometry relative="1" as="geometry">
            <mxPoint x="1164.8780487804877" y="573.390243902439" as="sourcePoint" />
            <mxPoint x="1164.8780487804877" y="603.8780487804878" as="targetPoint" />
          </mxGeometry>
        </mxCell>
        <mxCell id="167" value="HomeLab" style="text;html=1;strokeColor=none;fillColor=none;align=center;verticalAlign=middle;whiteSpace=wrap;overflow=hidden;shadow=0;fontSize=36;fontColor=#AE4132;fontStyle=0" parent="1" vertex="1">
          <mxGeometry x="750" y="649" width="240" height="110" as="geometry" />
        </mxCell>
        <mxCell id="168" value="ENTERPRISE NETWORK" style="text;html=1;strokeColor=none;fillColor=none;align=center;verticalAlign=middle;whiteSpace=wrap;overflow=hidden;shadow=0;fontSize=36;fontColor=#AE4132;fontStyle=0" parent="1" vertex="1">
          <mxGeometry x="137" y="15" width="1380" height="45" as="geometry" />
        </mxCell>
        <mxCell id="169" value="" style="image;html=1;image=img/lib/clip_art/computers/Workstation_128x128.png;shadow=0;strokeColor=#000000;fillColor=#FFFFFF;gradientColor=none;fontSize=18;fontColor=#F08705;fontStyle=0" parent="1" vertex="1">
          <mxGeometry x="1520" y="321" width="80" height="80" as="geometry" />
        </mxCell>
        <mxCell id="170" style="edgeStyle=orthogonalEdgeStyle;rounded=0;html=1;startArrow=none;startFill=0;endArrow=none;endFill=0;fontSize=18;fontColor=#F08705;strokeColor=#23445D;strokeWidth=2;curved=1;fontStyle=0" parent="1" source="169" target="56" edge="1">
          <mxGeometry relative="1" as="geometry">
            <mxPoint x="1420.5882352941178" y="433.52941176470597" as="targetPoint" />
            <Array as="points">
              <mxPoint x="1460" y="360" />
              <mxPoint x="1460" y="524" />
            </Array>
          </mxGeometry>
        </mxCell>
        <mxCell id="171" style="edgeStyle=orthogonalEdgeStyle;rounded=0;jumpStyle=none;html=1;exitX=0;exitY=0.5;entryX=0;entryY=0.5;shadow=0;labelBackgroundColor=none;startArrow=none;startFill=0;endArrow=classic;endFill=1;endSize=6;jettySize=auto;orthogonalLoop=1;strokeColor=#23445D;strokeWidth=2;fillColor=#F08705;fontFamily=Helvetica;fontSize=14;fontColor=#F08705;align=left;fontStyle=0" parent="1" source="168" target="168" edge="1">
          <mxGeometry relative="1" as="geometry" />
        </mxCell>
        <mxCell id="172" style="edgeStyle=orthogonalEdgeStyle;rounded=0;jumpStyle=none;html=1;exitX=0.75;exitY=0;entryX=0.75;entryY=0;shadow=0;labelBackgroundColor=none;startArrow=none;startFill=0;endArrow=classic;endFill=1;endSize=6;jettySize=auto;orthogonalLoop=1;strokeColor=#23445D;strokeWidth=2;fillColor=#F08705;fontFamily=Helvetica;fontSize=14;fontColor=#FFFFFF;align=left;fontStyle=0" parent="1" source="27" target="27" edge="1">
          <mxGeometry relative="1" as="geometry" />
        </mxCell>
        <mxCell id="Gd91A1qmPAlGAlpDpAQz-172" value="TrueNAS Scale" style="rounded=1;whiteSpace=wrap;html=1;shadow=0;strokeColor=none;fillColor=#BAC8D3;gradientColor=none;fontSize=18;fontColor=#AE4132;verticalAlign=top;fontStyle=0;opacity=70;strokeWidth=3;" vertex="1" parent="1">
          <mxGeometry x="1082.5" y="1380" width="397.5" height="260" as="geometry" />
        </mxCell>
        <mxCell id="Gd91A1qmPAlGAlpDpAQz-173" value="21 TB SSD Pool" style="fontColor=#0066CC;verticalAlign=top;verticalLabelPosition=bottom;labelPosition=center;align=center;html=1;outlineConnect=0;fillColor=#CCCCCC;strokeColor=#6881B3;gradientColor=none;gradientDirection=north;strokeWidth=2;shape=mxgraph.networks.storage;" vertex="1" parent="1">
          <mxGeometry x="1195" y="1439" width="50" height="60" as="geometry" />
        </mxCell>
        <mxCell id="Gd91A1qmPAlGAlpDpAQz-174" value="2 TB Nvme Pool" style="fontColor=#0066CC;verticalAlign=top;verticalLabelPosition=bottom;labelPosition=center;align=center;html=1;outlineConnect=0;fillColor=#CCCCCC;strokeColor=#6881B3;gradientColor=none;gradientDirection=north;strokeWidth=2;shape=mxgraph.networks.storage;" vertex="1" parent="1">
          <mxGeometry x="1320" y="1439" width="50" height="60" as="geometry" />
        </mxCell>
        <mxCell id="Gd91A1qmPAlGAlpDpAQz-175" value="&lt;font color=&quot;#e66100&quot;&gt;Samba&lt;/font&gt;" style="shape=image;html=1;verticalAlign=top;verticalLabelPosition=bottom;labelBackgroundColor=#ffffff;imageAspect=0;aspect=fixed;image=https://cdn1.iconfinder.com/data/icons/nuvola2/128x128/devices/samba_unmount.png" vertex="1" parent="1">
          <mxGeometry x="1082.5" y="1450" width="38" height="38" as="geometry" />
        </mxCell>
        <mxCell id="Gd91A1qmPAlGAlpDpAQz-177" value="" style="edgeStyle=elbowEdgeStyle;strokeWidth=2;rounded=0;endArrow=none;startArrow=none;startSize=10;endSize=10;dashed=0;html=1;strokeColor=#23445D;fontSize=18;fontColor=#F08705;startFill=0;endFill=0;fontStyle=0" edge="1" parent="1" source="Gd91A1qmPAlGAlpDpAQz-172" target="Gd91A1qmPAlGAlpDpAQz-172">
          <mxGeometry relative="1" as="geometry">
            <mxPoint x="1115" y="1410" as="sourcePoint" />
            <mxPoint x="1115" y="1475" as="targetPoint" />
            <Array as="points">
              <mxPoint x="1200" y="1470" />
            </Array>
          </mxGeometry>
        </mxCell>
        <mxCell id="Gd91A1qmPAlGAlpDpAQz-178" style="edgeStyle=none;rounded=0;html=1;fontSize=18;fontColor=#F08705;endArrow=none;endFill=0;strokeColor=#23445D;strokeWidth=2;fontStyle=0;entryX=1;entryY=0.5;entryDx=0;entryDy=0;" edge="1" parent="1" source="Gd91A1qmPAlGAlpDpAQz-173" target="Gd91A1qmPAlGAlpDpAQz-175">
          <mxGeometry relative="1" as="geometry">
            <mxPoint x="1172.5" y="1468.5" as="sourcePoint" />
            <mxPoint x="1137.5" y="1468.5" as="targetPoint" />
          </mxGeometry>
        </mxCell>
        <mxCell id="Gd91A1qmPAlGAlpDpAQz-180" value="" style="shape=image;imageAspect=0;aspect=fixed;verticalLabelPosition=bottom;verticalAlign=top;image=data:image/png,iVBORw0KGgoAAAANSUhEUgAAB9AAAAWKCAYAAACgsv7BAAAABmJLR0QA/wD/AP+gvaeTAAAgAElEQVR4nOzde5idZWHv/d/9TA4ECAblICqgIh5CqyIhCadWilq3h7daK2q17fat1W3tVmu1VCVh5YCH1117bW2rqD0q7DaKe9taSwUMyGmSjCIq4AlQoALxFCGEQ2ae+/0Da9WNkITM3DNrPp/rmmuuEK7JN/lj1qznt551JwAAAAAAAAAAAAAAAAAAAAAAAAAAAAAAAAAAAAAAAAAAAAAAAAAAAAAAAAAAAAAAAAAAAAAAAAAAAAAAAAAAAAAAAAAAAAAAAAAAAAAAAAAAAAAAAAAAAAAAAAAAAAAAAAAAAAAAAAAAAAAAAAAAAAAAAAAAAAAAAAAAAAAAAAAAAAAAAAAAAAAAAAAAAAAAAAAAAAAAAAAAAAAAAAAAAAAAAAAAAAAAAAAAAAAAAAAAAAAAAAAAAAAAAAAAAAAAAAAAAAAAAAAAAAAAAAAAAAAAAAAAAAAAAAAAAAAAAAAAAAAAAAAAAAAAAAAAAAAAAAAAAAAAAAAAAAAAAAAAAAAAAAAAAAAAAAAAAAAAAAAAAAAAAAAAAAAAAAAAAAAAAAAAAAAAAAAAAAAAAAAAAAAAAAAAAAAAAAAAAAAAAAAAAAAAAAAAAAAAAAAAAAAAAAAAAAAAAAAAAAAAAAAAAAAAAAAAAAAAAAAAAAAAAAAAAAAAAAAAAAAAAAAAAAAAAAAAAAAAAAAAAAAAAAAAAAAAAAAAAAAAAAAAAAAAAAAAAAAAAAAAAAAAAAAAAAAAAAAAAAAAAAAAAAAAAAAAAAAAAAAAAAAAAAAAAAAAAAAAAAAAAAAAAAAAAAAAAAAAAAAAAAAAAAAAAAAAAAAAAAAAAAAAAAAAAAAAAAAAAAAAAAAAAAAAAAAAAAAAAAAAAAAAAAAAAAAAAAAAAAAAAAAAAAAAAAAAAAAAAAAAAAAAAAAAAAAAAAAAAAAAAAAAAAAAAAAAAAAAAAAAAAAAAAAAAAAAAAAAAAAAAAAAAAAAAAAAAAAAAAAAAAAAAAAAAAAAAAAAAAAAAAAAAAAAAAAAAAAAAAAAAAAAAAAAAAAAAAAAAAAAAAAAAAAAAAAAAAAAAAAAAAAAAAAAAAAAAAAAAAAAAAAAAAAAAAAAAAAAAAAAAAAAAAAAAAAAAAAAAAAAAAAAAAAAAAAAAAAAAAAAAAAAAAAAAAAAAAAAAAAAAAAAAAAAAAAAAAAAAAAAAAAAAAAAAAAAAAAAAAAAAAAAAAAAAAAAAAAAAAAAAAAAAAAAAAAAAAAAAAAAAAAAAAAAAAAAAAAAAAAAAAAAAAAAAAAAAAAAAAAAAAAAAAAAAAAAAAAAAAAAAAAAAAAAAAAAAAAAAAAAAAAAAAAAAAAAAAAAAAAAAAAAAAAAAAAAAAAAAAAAAAAAAAAAAAAAAAAAAAAAAAAAAAAAAAAAAAAAAAAAAAAAAAAAAAAAAAAAAAAAAAAAAAAAAAAAAAAAAAAAAAAAAAAAAAAAAAAAAAAAAAAAAAAAAAAAAAAAAAAAAAAAAAAAAAAAAAAAAAAAAAAAAAAAAAAAAAAAAAAAAAAAAAAAAAAAAAAAAAAAAAAAAAAAAAAAAAAAAAAAAAAAAAAAAAAAAAAAAAAAAAAAAAAAAAAAAAAAAAAAAAAAAAAAAAAAAAAAAAAAAAAAAAAAAAAAAAAAAAAAAAAAAAAAAAAAAAAAAAAAAAAAAAAAAAAAAAAAAAAAAAAAAAAAAAAAAAAAADNYaR0AAAAAM8ZgdJ9kfO+MzF+YOrF3ysi+6fuFSd07JQtSuoVJnZO+7pWUeUn2TCnzk7pHShb81NeqmZfUvX7+H1a2pmT7z/zHbanlrtTckdQ7U8pdKXVbarYndWvSbUupW9OX21L6LenLbcn2rcmcrRksv3W3/3sAAADAkDGgAwAAMDsN1u+dkb0fntofkJSDUvr9k+7B6fOQlP4hSR6SlAff8zn7JVnUNni3+H6S7/34c8n30pfvp8v3kv77SW5Jyc0ZL5uTbd/O4MStbXMBAABgahnQAQAAGC6D2iWXPDTd3ENTyyEp/cFJDk66hyf9Q5NyYJKHJdmzcelMsC3JTUm9OcktSW5M6a5PzQ1JvSH99m8lx92cQekbdwIAAMBuYUAHAABg5hmM7Zc544/JRHdYSn9YUg5LzSNTcnCSRySZ2zpxFtme5MbU3JAu1yXlmtR6TdJfk37uNRks+W7rQAAAANhRBnQAAACmp8H6vdMteFzSPSE1i9PVx9wzlNfDkjyodR477IdJrk1yTZKvpZarUvqvZMGCr+RNT7q9cRsAAAD8FAM6AAAAbb1j7EEZH//F9FmcdE9I6uIkj0tyaOs0JlVNcn2Sr6aWq9PVq1PKlzLefzmD5be2jgMAAGB2MqADAAAwdQYXPyxl3lFJPSpdFqfmiCSPT9K1TmNauSmpVya5KimfS8rn8vhvfiUnnzzROgwAAIDhZkAHAABg91u3biRfecTiZM5RqVmSUpckeWKSBa3TmLG2peYLST6XkjGjOgAAAJPBgA4AAMADN9jw2JS6LCVLkhyVlCOT7Nk6i6F3e2ouv+cu9WxK141mxZJrWkcBAAAwcxnQAQAA2DnvumKv3HXHkak5KinHpeapSfZvnQU/8sOkbkotlyTlc6lzL8rgyC2towAAAJgZDOgAAADct9NHD8x4+aWU/FJKOTa1PjHJnNZZsIPGU8oXU/uLU7oLMzLnorzlKd9pHQUAAMD0ZEAHAADgp/14MK/HJ+W4JE+J548Ml2uTcl5SL0k3fmFOPe5brYMAAACYHlwAAQAAmO3etuEh2Z5fSSlPS+pTkzy2dRJMsa+l5vx05bzMuWt93nzCD1oHAQAA0IYBHQAAYLYZrJ+TbsGTUsrTUuvTkvLUeEt2+A99kstTc1667rxMbL04gxPvbB0FAADA1DCgAwAAzAaDDY/NSJ6dmmcmOSHJgtZJMENsS/LZlHwqGflUViy5pnUQAAAAk8eADgAAMIwG6+dkzoLlmSjPSclzkyxunQRD4p7z02s+mXr7ue5OBwAAGC4GdAAAgGFx+thB6Sf+n9TyrKSelGSv1kkw5G5PyvlJ/ef04/+UwXGbWwcBAADwwBjQAQAAZrLBpkdnZOK5qXlhUo5J0rVOglnqP85O/2S6/h+z4pirWwcBAACw8wzoAAAAM0mtJaePHZ2J+ryU+rwkT2idBNyrq5L6T0n38axcuql1DAAAADvGgA4AADATrN54RGp9YUpeluSw1jnATrk+qf8nXT6aty67JKXU1kEAAADcOwM6AADAdPWfo/lvJjm8dQ6wWxjTAQAApjEDOgAAwHQyGF2crrw0yYviTnMYdtel5qzUelYGy69qHQMAAIABHQAAoL3BxQ/LyJwXpuaFSTmudQ7QxFWp+Wi6/F1WLLuudQwAAMBsZUAHAABo4Z0XL8ydc389pb4sKScmGWmdBEwLfZILk/qR9PlYBstvbR0EAAAwmxjQAQAApsqgdhnZ+NTU+vKkvCDJgtZJwLS2LSVnJ/nbTCy9IIPStw4CAAAYdgZ0AACAybb20oenjrwsNb8X55oDu+bG1JyZbuSDWbHkmtYxAAAAw8qADgAAMBkG6/dI2fP5KeXlST0pSdc6CRgKfZILkvxVFj347Lz28Lsa9wAAAAwVAzoAAMDutGb08PTld1Pyu0n2a50DDLUtSVmXvrw3g6O/3DoGAABgGBjQAQAAHqh160Zy9SOfldK/NiknxXMtYOp9LqkfyN79h/OGY+9oHQMAADBTuagDAACwqwaXPTJl5JUp9f9NcmDrHIAkm5P61+km3p9Tj/tW6xgAAICZxoAOAACws9aOHp9aXpua5yeZ0zoH4F70Sf1MaveerDz6kymltg4CAACYCQzoAAAAO+I9X5+fLd9/UUr+KDVPbJ0DsBO+mlLflz0WfChvetLtrWMAAACmMwM6AADAfRmMHZIy8fspeUWSh7TOAXgAtiTlQ+m792aw5PrWMQAAANORAR0AAODeDDY+OSP1Dal5cZK5rXMAdqM+yafS1dNz6vLR1jEAAADTiQEdAADgJ60dPT59OSXJs+M5EzD06iWp5X/mCd/6eE4+eaJ1DQAAQGsuBgEAALzn6/Oz5XsvTcofJVncOgegga8m9d1Z9JC/y2sPv6t1DAAAQCsGdAAAYPYarN873YL/lpQ3JDmodQ7ANHBTUt+d+eNn5JTjb2sdAwAAMNUM6AAAwOwzGN0nI+XVqfnjJA9unQMwDd2a1L9N3709g6U3t44BAACYKgZ0AABg9hhsfGi6+odJXp1kYescgBlga2o+mJGJP82px/576xgAAIDJZkAHAACG32D0EenKKUl+N8mC1jkAM9BdqeVDqf07Mlh+Y+sYAACAyWJABwAAhtfgkgNS5rwhJa+N4Rxgd7g7Jf+YiW6QwdHXto4BAADY3QzoAADA8DGcA0w2QzoAADCUDOgAAMDwOH3soIz3p6TUV8ZwDjAV7k7qh9KPn57B8d9uHQMAAPBAGdABAICZ7+0X7Zu7570uJW9IsrB1DsAsdFdS/i799hUZHLe5dQwAAMCuMqADAAAz12Bsz4xM/PfUnJJk39Y5AGRrav4i80fenj9Z8sPWMQAAADvLgA4AAMw8Z4zNzeb+Fal1RZKDWucA8H/5TlLflv6O92dw4p2tYwAAAHaUAR0AAJg5ai1ZvfHFKVmT5LDWOQDcr28l5dT0R5+VQelbxwAAANwfAzoAADAzrB1dnj7/IynHtU4BYKddmVL/OCuWf6p1CAAAwH0xoAMAANPbYMNjM5K1qfmNeA4DMMPV85LyxqxcdkXrEgAAgHvj4hMAADA9ve3z+2f7+Gkp9ZVJ5rbOAWC3mUjJ36YbWZG3LrmpdQwAAMBPMqADAADTy+DKeem2vj7JW5Ps0zoHgElzW1LelkX7/llee/hdrWMAAAASAzoAADCdrNn0tNT+fyZZ3DoFgClzQ5JTs3LZ37cOAQAAMKADAADtDTY8Nl3eneTZrVMAaKVckNTXOx8dAABoyYAOAAC0M7h8UcrdK1PyB3HOOQDJRGo+kHl3vzVvPuEHrWMAAIDZx4AOAABMvVpL1mz6naS+M8kBrXMAmHY2p9Y3ZuWyj6SU2joGAACYPQzoAADA1Fqz6XGp/V8kOal1CgDTXM1nU8rvZ+XSK1unAAAAs4MBHQAAmBrvumKvbLvzTSl5c5J5rXMAmDG2J/V9WbDgLXnTk25vHQMAAAw3AzoAADD5Vm18bkr98ySHtE4BYMa6NqX+96xY/qnWIQAAwPAyoAMAAJNnsOnR6fr3JXlG6xQAhkTJR1Mm/jCnHvvvrVMAAIDhY0AHAAB2v8H6ORlZ8JrUsjbJ3q1zABg6t6dkTSa2/WkGJ463jgEAAIaHAR0AANi9Vm94UpIPJjm6dQoAQ++KJK/OymWXtQ4BAACGgwEdAADYPQZje6brVyX19UnmtM4BYNbok/r+9HlzBstvbR0DAADMbAZ0AADggVu18aSU+oEkj26dAsCsdX1KeVVWLD2ndQgAADBzGdABAIBdNxjbM2ViZUrelKRrnQMAKfloRvLqvGXZ91qnAAAAM48BHQAA2DWrRp+eUj6Y5NDWKQDwM25OKa/JiqUfbx0CAADMLAZ0AABg5wxG98lI/kdqeUU8pwBgejsrc/Jad6MDAAA7ysUuAABgx60ZfUZq+VCSg1unAMAOuik1v5fTlv1L6xAAAGD6M6ADAAD3792XLshtI6c56xyAGavkw5m3/TU55fjbWqcAAADTlwEdAAC4b6s3Hp30f5+Ux7dOAYAH6Jsp/cuz4pgLWocAAADTkwEdAAC4d4P1czKy5x+lZnWSea1zAGA3qUn5YPruDzNYsq11DAAAML0Y0AEAgP/bYMNjU+qHU8rS1ikAMClKvpiJ+pIMll/VOgUAAJg+nF0IAAD8tNUbXpEunzeeAzDUap6YrmzK6g2vaJ0CAABMH+5ABwAA7jEY3Scj5f2peUnrFACYWvXjmbv9FXnzCT9oXQIAALRlQAcAAJLVly1LurOSPLp1CgA0cn3S/WZWHn1J6xAAAKAdAzoAAMxm69aN5KuHvjE1a5LMbZ0DAI2Np+b01KWrMyh96xgAAGDqGdABAGC2Wrvx4PT1zCQntE4BgOmlnpe++60Mlt7cugQAAJhaBnQAAJiNVm08KaWemeTA1ikAME19JzUvz2nL/qV1CAAAMHUM6AAAMJusWzeSqw9dkZIVSbrWOQAwzdWkvjf9wjdlcMTdrWMAAIDJZ0AHAIDZYnDJAelGzkzK01qnAMAM87mU+pKsWP711iEAAMDkcscJAADMBqtGn55uzpeM5wCwS45KLWNZNfqC1iEAAMDkcgc6AAAMs0HtMrJxRWpWxgtoAeCBqkn50/S3vzmDE8dbxwAAALufAR0AAIbVYHSfdOXvkjyvdQoADJmLMjLyorx1yU2tQwAAgN3LgA4AAMNo9YYnJTk7yWGtUwBgSG1OyUuyYtlnWocAAAC7j7dwBACAYbN6w28nuSzGcwCYTAek5pysHn196xAAAGD3cQc6AAAMi8H6OSl7rk3JKa1TAGB2Kf+QvvvdDJZsa10CAAA8MAZ0AAAYBoOx/dL1H03qU1unAMCsVPKFTPTPz+CYb7ZOAQAAdp0BHQAAZrp7zjv/RJJDW6cAwCz33dR6ck5bvr51CAAAsGucgQ4AADPZ6o0nJ7k0xnMAmA72SymfzpoNjlMBAIAZyh3oAAAwEw1ql27jmiRvjp/rAWAaKh/Igd0f5FVLtrcuAQAAdpwLbQAAMNO88+KFuWvumUme2zoFALgv9bz081+YwZFbWpcAAAA7xoAOAAAzydpLH55+5J+THNk6BQDYIV9Pqc/OiuVfbx0CAADcP2egAwDATLF209L0I2MxngPATHJ4arksa0ePbx0CAADcPwM6AADMBKtGX5C+X5/koa1TAICd9pD05bys2vCS1iEAAMB9M6ADAMB0t2b0dSllXZI9W6cAALtsfkrOzKoNg9YhAADAz+cMdAAAmK4GV87LyNYPpOZ3WqcAALtRqR/MAXNek1ct2d46BQAA+GkGdAAAmI4G6/dOt+fHkvxq6xQAYDLU89LPf2EGR25pXQIAAPwnAzoAAEw3p48dlH7iU6l5cusUAGBSXZm+f04Gx3yzdQgAAHAPAzoAAEwng9HF6cq/JjmkdQoAMCW+m3TPy8qjL2kdAgAAJF3rAAAA4EdWb/zldOWSGM8BYDbZL+k/nTUbntc6BAAAMKADAMD0sGrji5L6b0kWtU4BAKbcnqn5aFZv/K+tQwAAYLYzoAMAQGurN/y3lHpWkvmtUwCAZuYk9a+zZsObWocAAMBsZkAHAICW1mw4Jclfxs/mAEBSUvP/ZdWGd7QOAQCA2aq0DgAAgFlr1YZBSk5rnQEATEvvT7/0NRmUvnUIAADMJgZ0AACYarWWrN70Zyn1da1TAIDprPxDDux+O69asr11CQAAzBYGdAAAmErr1o3kq4f+VWp+p3UKADAjnJ9+2/MyOHFr6xAAAJgNDOgAADBV3vP1+dny/f+V5PmtUwCAGaTWjZlbnpW3LPte6xQAABh2BnQAAJgK77pir9xx1/9O6tNbpwAAM9KV6bc/I4Pjv906BAAAhpkBHQAAJtvbL9o32+f9S5JjWqcAADPadeknnpHBsd9oHQIAAMPKgA4AAJPp9LGDMjFxbpIjWqcAAMOgfDvJM7Jy6ZWtSwAAYBgZ0AEAYLIMLntkuu7cJI9pnQIADJXvJBMnZeWxX2odAgAAw8aADgAAk2HNpsel9ucneXjrFABgKBnRAQBgEhjQAQBgdxtc+ph0IxfEeA4ATC4jOgAA7GZd6wAAABgqay85NN3IuTGeAwCTb/9k5PysvvQXW4cAAMCwcAc6AADsLoOxQ9JNXJDkUa1TAIBZ5Tvpu1/J4Ogvtw4BAICZzoAOAAC7w9qNB6evFyR5dOsUAGBW2py+O8mIDgAAD4wBHQAAHqjB6CPSlQuSHNY6BQCY1YzoAADwADkDHQAAHojTRw9Ml3NjPAcA2jsgXX9+Bpt+oXUIAADMVO5ABwCAXXX66IGZKJ9Jsrh1CgDAT9iclF/JyqVXtg4BAICZxh3oAACwKwaXHJCJcn6M5wDA9HNAUj+T1RuPaB0CAAAzjQEdAAB21ts+v3+6OZ9J4qI0ADBdHZDUc7Nm0+NahwAAwExiQAcAgJ3x9ov2zcT4OTGeAwDT30Gp/flZe8mhrUMAAGCmcAY6AADsqMHlizJy9/rUPLl1CgDAjqtfST/nhAyWfLd1CQAATHfuQAcAgB3x7ksXpLv7n4znAMDMUx6fMvGveefFC1uXAADAdGdABwCA+3PG2NxsHflYkhNapwAA7JKSJblr7icyWL9H6xQAAJjODOgAAHBfBrXLLf3fJ3lW6xQAgAfoxHR7/kMG6+e0DgEAgOnKgA4AAD9PrSXdpvcl9cWtUwAAdpNfS7fnX6XW0joEAACmo5HWAQAAMG11z3pHSl7XOgMAYDd7Uj574/ys/9D5rUMAAGC68UpTAAC4N2s2/GFq3t06AwBg0pTyxqxY+qetMwAAYDoxoAMAwM9atfFFKfWsOPIIABhuNTW/l9OW/VXrEAAAmC4M6AAA8JNWb/zlpP5bkvmtUwAApsBESn1xViz/WOsQAACYDgzoAADwH1ZvPCKpFyXZt3UKAMAUuju1PienLT+3dQgAALRmQAcAgCRZe+nD049cluTg1ikAAA3cmr6ekMHyL7YOAQCAlpzpCAAAb79o3/Qjn47xHACYvfZJV/45p48d1DoEAABaMqADADC7nTE2N9vnfTTJ4tYpAACNHZK+/2QG6/duHQIAAK0Y0AEAmN1u6f88yUmtMwAApoVan5JuwboM1s9pnQIAAC34QRhgtqu15B0XL8r4vEWZyNx0dWEyskdKFqTvF+bHjxV175TMvfcvUvrU/PDHv+xyR9Ldec9vTdyZ8dya1Fszf/yH+ZPjt6SUOsl/K4Ads3rjqUl9ZesMAIDppfyXlD3fk+T3W5cAs9w7L16YO7Iw2WOfdP3ClPKge36jzklfF/74/ytZkNQ9fv4X6rak1h9dj6pbkoyn5NakuzN9uSO5e2uyaEsGR9w9eX8ZAGaK0joAgN1ssH6PjCx8eGp9aEq/f2p5WGo9IMkBKTkoKYtS6qLULEp+/DHVbktya5JbU+ttKeUHKdmcWm5Jqd9OXzanqzelllvSd7dksOS7DRqBYbdqw0tScmb8TAwAcO9K/jgrlr2rdQYwJN558cLcPf9hKRP7p+ahqeWhqfWAlHJQkgNT85B02Sc1C5Psk2TfBpXbkrIlqT+4Z2gvW5L6nSQ3J7klKZtT600p3ebMvevbefMJP2jQCMAkc7EQYKZ51xV75fa7Ds9I/5jUPDLJwUk55J7PeUSSA5v2TY67k2xOzTdTcm1qrkvJtUmuSzdxbd56zLfd1Q7slNWbjkv685Lcxx0KAACzXp9afz2nLf9E6xBgBhhc+uB03aNSy6NT8qjkpz4OTrKgad/k2Jrk+h993JjUG5LyzXTlGxnf/o0MjtvcuA+AXWBAB5iOBrXLyOcelb5fnJIjknp4ah6TksOTHNQ6bxq6K6nXJbkutXwlJVcl/ZfSl6szWH5r6zhgmlkzdljqxGiS/VqnAADMAFuTHJ+Vy65oHQJMA2eMzc1N44dnJItTszgpR6Tksal5VJIHtc6bhm5NKd9Ird9I8o0kVybd1em3Xp3BiXe2jgPg3hnQAVobjO2XMn5kuvKUJEfc8+QjT0iyZ+OyYfGtJFcn5cup/VUp3ZfT3/4lT1JglhqM7pOuXJZkcesUAIAZ5PqM1KV56/JbWocAU6TWklWXHZYycmS6LM5/XrN6bJK5jeuGwUSSa5NcmeSq1Hwh3cjnc+pR13qXRYD2DOgAU+ltn98/E9uXpdanJOXIJE9JckjrrFloe5IvJ2VTUjcl2ZR+25UZnDjeOgyYRIPapdv4iSTPaZ0CADADXZZ+2694MTIMqcHYISnjR6dkSZIlSVmSZFHrrFnoh0m5PLVenlI+n74by2lHfdWoDjC1DOgAk+WMsbm5pX9ySl2eZFlqlic5rHUWP9e2pF6e2o0l2ZTaXZTBkutbRwG70aoN70jJKa0zAABmrJIzc+rS3zLkwAz3riv2yrY7jk3pjk/qjwbzHNA6i5/r+0ndkGQ0tWzI/JHR/MmSH7aOAhhmBnSA3eXdly7I7WVZ0v1yanlqUpclWdA6iwfkupR8Nn29MN2cz2bFkmtaBwG7aPXGlyX1w60zAACGwFuzctnbWkcAO+HtF+2bu+cfn5JfSuoJSY5KMqd1FrusT8lVqbkgpV6YiYnPZnDc5tZRAMPEgA6wqwZXzkt3+zGp/Ukp5alJliaZ37iKyXVjSi5MXy5MrRdmsOxrrYOAHbB209L0/YVJ9midAgAwBPqU8uysWHpO6xDg53jH2IOyvT8pfX1quvxyan4hSdc6i0l1dZILU/OZ1InzMzj2+62DAGYyAzrAzhiMPT4jE09PzTOSPDXJ3o2LaOvapJ6TUv41EyOfyWDJttZBwM8YXPywdPM2JfVhrVMAAIbI91OyJCuWXdc6BEhSa8mq0SPTdc9M8swkx8Qd5rPZRGr9XFLOzUj5dPbvLsurlmxvHQUwkxjQAe7LYP0eKXufmPTPTcmzkxzSOolp684kn03JOZkY+dcMlnyldRDMeoMr56VsXZ+SY1unAAAMnZIvZK+JY/OGY+9onQKz0mBsv3QTz0jJM390o8eBrZOYtrYmOTepn8xI/iVvXX5L6yCA6c6ADvCzTh89MOPlOSl5TpKnJ9mrdRIz0nWp+WRKOTuP/+bFOfnkidZBMOus2vCXKXl16wwAgKFV8uGsWPbbrTNg1liz4VGpeX5qnv+jFwp7W3Z2Vp9kU0r+OTWfzMplV7QOApiODOgASbJ248Gp/a+nlhckOS6egLB7bU7K/0npz84Bc9Z72yyYAqtGX55S/pY1AtAAACAASURBVLp1BsBO2p5kbusIgJ1S6h9kxfK/aJ0BQ2uw6RcyUp+fWp+f5MjWOQyda1Nzdkp/dlYs35hSausggOnAgA7MXms2PCrJb6TmBUmWxvdEpsYPUvJPSf/xTNz56QxOvLN1EAydtRuWpM9FSfZonQIMrW1Jbklyc1K+k9TvpuaHKXVL0m1J6paUfksyZ1tKvyXjZTwptyYTd2f+9tvTlfGccvxtO/ynvfPihenrnNw1d69kZF66PCipc1LKg9JP7JWURenqotQ8KLUsSlcWpdb9UrN/Sh6a5IAke07SvwXA9qQ7MSuPvqR1CAyNtRuWZCK/kZLnJ3ls6xxmjRuScna6/uyML7s0g9K3DgJoxVgEzC5v+/z+Gd/+oiS/mWR5fB+krduSenZK+XAmll7giQnsBvd8nx9LckjrFGDGuiW1fislN6Z2N6TLDelzY0q5MX1uyl7zbsmbnnR768id9q4r9sqd2x+aMn5QJsrBKfXhSQ5OysFJHpHk0NwztAPsgvLt9Dkqg6U3ty6BGWvNhkellpcm/UuT8vjWOcx6N6TmrNR6VgbLv9g6BmCqGY6A4feuK/bKtruel1J/M8kzksxpnQT34obU8pHU/iMZLL+qdQzMSOvWjeQrh56b5MTWKcC0tznJlUn5elKvSa3XpJRvpN92TQYnbm0d18xgdJ90I4elTByWlMOSelhqd3hSfyHJfq3zgGnvohw4cpIjq2AnDC59cLqRk1Pz0pQcF9frmY5KvpxazkzfnZXBkutb5wBMBQ/IwPBavem4lP7lqTk5ycLWObDDasZSyofTb/+HDI7b3DoHZozVG05P8pbWGcC08oMkl6eWL6WrV6fmqszJVXnLsu+1DptxBmP7peuPSOoTUrM4pfxiUp+cZFHrNGA6qe/JyuWva10B09oZY3OzuX9uav2tJM9KMq91EuygPsn61PI3WTj+8bzh2DtaBwFMFgM6MFxOHzso/cRvp+blSR7XOgceoPEkn0zN+1OXnust3uE+rNr0X1L6TybpWqcAzdyUlE2p9fJ0+ULK+OU59bhvtY4aems2PCp9npzUI1PKk5MsTXJg6yygoVpeltOWntk6A6adNWOHpY6/Iikvj8dKZr4tqflfKeVvsnLpptYxALubAR2Y+WotWbvh6anl1UmeE2/RznC6NiUfyMT437grHX7GYOyQdBOfT/KQ1inAlJlI8uWkXpJ0l6XUS7Ji2XWto/iRNWOHpR8/NqUcm5TjknpEvMAJZpNt6esxzsyFJIMr56Vs/bWU+sqknBTX4xlGJV9Myvsz7+6P5JTjb2udA7A7eMAGZq7BpQ/OyJyXp9ZXJTm8dQ5MkbuT8vGUiTNy6vILU0ptHQRNnTE2NzdPfDYly1unAJPq1iSjKbk0fb00e4yPujg3g7xj7EHZ3h+TmmOS/tikLIsjlmDYXZN+3pIMjtzSOgSaGFz6mJSRV6Tkv8bd5swetyX1w+lH3pfB0V9uHQPwQBjQgZlnMPrEjHSvT60vTrKgdQ60U7+SUv4yE9v+JoMTt7augSZWb/yzpL6+dQaw292W5PyknJu+vziLr78yJ5880TqK3WTdupFc9chfTFePT/KMJCcm2btxFbDblbOzculvtK6AKbVq40kp9fW552xz777CbHZRat6buu1/Z3DieOsYgJ1lQAdmjlWjT08pb0zy9Pj+BT9pS2rOyMjEe3Pqsf/eOgamzJqNv55aPxaPCTAMakquSK3nJN05ObC7NK9asr11FFNkcOW8jGw9Pn2emS6/mpontk4Cdpfymqxc+petK2BSvefr87PlBy/50Qt7n9Q6B6aZ61Py55mY90HvSgLMJC42AtPbGWNzc0v/oqS+MZ6EwP3ZntR/TEbenZVHX946BibV2ksOTT/nC0kWtU4Bdtn3knJukn9Ln3MyWHpz6yCmibWXPjx996sp5ZmpeVqSfVsnAbvszvTlmAyWfqF1COx2b/v8/hm/+9VJ+f14m3a4P1uT/G1KfU9WLP966xiA+2NAB6anweg+6fLKpLw2ycGtc2AG+kxq3p2VSz/lnHSGzmD9nJQ9L0zJsa1TgJ12eUo+kdqfk8ffMOZt2blf69aN5GuPXJaJ/pnpyq+5Ox1mpK+l33aUY6cYGmtGD08tf5zkZfn/2bvz+LrKOvHjn+fctNCWHRTHDZ0RQVERaZNQQKnogIIrWhXEBRdQEJAR2Zrk5KZs8hMVUFlccMGluI3juIw4HQHbJI0LKgqCo6CjooLI0tLlnuf3R3EGgbZpm+R7l8/7P9rkng+vF+Tmnu95nge2jM6RWkwF6csU+RwW9IxFx0jSujhAl9RcyuHHUhQnQH4rsE10jtQGfgacye63fN4hhdrG4MhCEmdEZ0gat+uARaR8patNtNnKsd2pVa+EPJ/M06JzJI1X/jT9vUdGV0ibpb7k6aTaaWTmA7XoHKn15avIxTkMdH8nukSSHswBuqTmUI7tTq1xOplXA9Oic6Q29AvgTKrln6GctyY6Rtpkg8PzSOkqoIhOkbQeiR+T05VUeRFlzy+ic9SmhpY+BYr5ZF4J7BGdI2lD0hvp7748ukLaaAtHZlNxBvASvJ8uTYZl5Hwm/T1fdRdFSc3CN3xJsRZ+bxeqaadDPgrois6ROsCvSfn9bLvjxRy/68roGGmjnH3N9qye/iPg8dEpkh7Wz8hcSVF9nr59fh4dow5TH92DnF9J4pXAU6NzJD2se0nF3vTNuTE6RBqXhcP7UaVTgEPwPro0+RI/pmIhAz1XRqdIkm/8kmKUw48lpQUkjsIV51KEW4Bz2G6HjztIV0vIOTE0+lXg0OgUSX/nf8hcTlFd4dBcTaNc9jSKxhGQ3gA8KjpH0gPkPMqjuvbj6Nmro1OkdVo7OF8IPCc6RepImWspqj769vmv6BRJncsBuqSpdebwzqwpTiPlo4Eto3MkcSuZfp5yy6c9I11NbWj4WHK6KDpDEgBrIH2dzEd4yq+/7vuHmla5uIvazEPJvBk4GM+rlZrFWfT3nBEdIT1EfWRP4EzWrjiXFC5fRUEfC3qHo0skdR4H6JKmRrlkB1LteBLvBLaJzpH0ED8nM0B/9xc8b0pNpxzbnaLxfWBmdIrU4X5L5gpy7UOUs2+NjpE2Snnto6lNO5LMW4F/jM6ROlxFzs9joHdxdIgEPPB4wTfhw1ZSE8pXUaTTWNAzFl0iqXM4QJc0ucrFW1GbeSyZU4HtonMkbUBmmJROpb/7u9EpErB29WCa8T1S6o5OkTrUShJfheJSFsz+jg9ZqeWVuaA29lyoXkfmFcCM6CSpQ/2WqrEn5dw7okPUwcrvPZLUdRKJE4EtonMkbUi+iqo4mbL7R9ElktqfA3RJk6Nc3EUx8xhgENghOkfSxkpfBU6nv/v66BJ1uPrwEKQF0RlSB/oF5A/TlT7F6T23R8dIk+KsHzyCNauPBN4GPCk6R+o4ic/S13N4dIY60LnXbs3KrtMhnYAPUkmtpgIup0pnUHb/ITpGUvtygC5p4g0OP5+U3gfsEZ0iabM0gI9TrTmDct8/RseoA9VH9gGuBrqiU6SOkbmaonovjd6vUaYqOkeaEmUuSKMvIeV/gbRvdI7UWfJr6O/9XHSFOsTan/dvJLEQeFR0jqTNchdwJtVW76fcY1V0jKT24wBd0sQplzyJWu0sMq+MTpE0oe4h81623+Fsjt91ZXSMOsR5181ixX0/BHaNTpE6QAV8HTiL/p6l0TFSqHLps6gVJ5J5DT7AJU2F26nlPTij97boELW5+tIecvF+Er3RKZIm1M1kTmeg58roEEntxQG6pM1XDm9Dkc4ATsAzo6Q2lm8gFe+kr/ub0SXqAPXRSyC/NTpDanN3kfNl5K4LKGffGh0jNZVy6RMoaidAfhOwdXSO1N7yl+jvPSy6Qm1qaOSJZN4DvCI6RdJkSt+mqk6k7P1ZdImk9uAAXdKmK3NBMfIGSGfi1ldSJ/kaKZ9EX+9N0SFqU4MjB5H4Bv6uKk2WW4ALqPJHKHvvio6Rmto5Y9uyuvFWMu8AHhedI7Uvt3LXBDvvulksX3kGKb8T2DI6R9KUWEPmw+RGSTn3jugYSa3Nm5KSNk192b7k6v0kZkenSAqxCng/M7asc/Ke90bHqI2cM7Ytqxo/wSGFNBl+BnmIasUXKOetiY6RWsolY9O4rXoV5AXAbtE5Uhv6M7X8NLdy14QYHH0RKV8I7BKdIinE7ZD6qe691M89kjaVA3RJG+eskR1Zw/nAkfgzRBLcQuZYBnr+PTpEbWJo9GPk/MboDKnN/IKc6uQ5n6VMVXSM1NIWLapxwy5HAP3AP0XnSO3Frdy1mcrhx1KkC4CXRadIagKJH5OKt7Bgzmh0iqTW4/BL0vgNjr6IxMWQHx2dIqnpfI0qv42y97fRIWphgyOHkPhadIbURm6BfBbVio+58kKaYGUuSKOHkTgLeFJ0jtQ+3Mpdm2DtEYNvhnQesE10jqSmUkH6CNW9/0I5757oGEmtwwG6pA07c+wfaKy5CNLLo1MkNbW/kvIAjZ4LXeGojbZ26/afAo+NTpHawK2kfD7b7ngxx++6MjpGamuXjE3jtsZrgAHgH6NzpDZwO1V6GmX3H6JD1CLqy/YiNy4mpe7oFElN7dekfDR9vf8RHSKpNThAl7RuOScWLjuGnM/BJ3gljVfmWnI+mrL3Z9EpaiH1kU8Ar4vOkFrcb0npLBqzPkq5x6roGKmjXHDTFvz1jreS06nu2CVtti/T3+MD/Fq/cmwmqTqLlI8DatE5klpE4hM0GidRzr0jOkVSc3OALunhDS3bjVxdBuwfnSKpJa0icRaPrJ3F0bNXR8eoyQ0uewGp+np0htTC/gjpTKp7L6Wcd190jNTRzl8yg3trx5A5A9gxOkdqWZnDGej5bHSGmlR9ZH/gY3iEhqRNcxs5ncBA9+ejQyQ1Lwfokv5eubiL2sx/IVMCW0bnSGp16SdUvI6y+0fRJWpS5103ixX3/Ri3vZU2xWrIH2Z6Vz+nzv5rdIykByh/uB1p1akkTgS2iM6RWpBbueuhzl8yg7trAyROBoroHEkt7+tUtbdRzr41OkRS83GALun/1If3hvRRYM/oFEltZSXQz+63vJf58xvRMWoy9eEPQDo+OkNqQf9K1XgX5dybo0Mkrcfanb3eCxwSnSK1ILdy1/9x1bmkyXEXcAp93ZeQUo6OkdQ8HKBLgkWLatz4+HeT0yAwLTpHUpvKLKHIb6Cv96boFDWJhcO9VOl7uHpEGr/Ej6nSSQx0fyc6RdJGGBw5iMT5wFOjU6SW4lbuKsdmUqw5G9Jx+LlB0qTJ36DGGzmj97boEknNwQG61OkWjj6OKn8KeE50iqSOsJzEqSzovsgneztcef10int+AOwRnSK1iD+R6GO3Wz7ibh5SiyoXd1GbcfT9Dy57Pro0Pn+kajyFcu4d0SEKsHBkNhWfAXaNTpHUEf5I5igGev49OkRSPAfoUierj86HfDGwfXSKpI7zHarVr6Pc73fRIQoyNDJApozOkFrAKnK+kC26hjznXGoTZ1+zPau2GCDlt+MOYNKGJT5KX8+bozM0hcpcUIy+C1iIPyclTa0MfJCtGu/mpLkromMkxXGALnWic6/dmpVdF0B6Q3SKpI72ZzJv8MneDlSO7U7R+BGwRXSK1NzSt0nVsR59IbWpte+HHwLmRadITS5TpANY0H11dIimQHntoymmfRI4MDpFUke7niofTtn74+gQSTEcoEudpj46B/IVuP2VpOaQIV/Idju+m+N3XRkdoylSH/kO8NzoDKmJ/QXyqfT1XOZxF1IHGBx5JYkPATtFp0hN7Ea222FPPzO0ucHhl5DSR/DnoaTmsJLEAI3u8yhTFR0jaWo5QJc6RZkLaiPvIKf3ANOjcyTp76T0A6he7SrLDjA4fCQpfTI6Q2paiStprDmOct8/RqdImkJnDu9Mlc4jc2R0itS8Uh/93QujKzQJysVbUsw4F9I78H61pKaTr6Ja83qPIZQ6i7+QSJ2gHHs8RePTwP7RKZK0HneT87EM9H4qOkST5Oxrtmf19J8DO0enSE3oFnLxNgbmfCM6RFKgoZFDyXwIeFx0itSE7iPlZ/jQbZtZe5zFF4A9olMkaT3+ROIo+nq+Fh0iaWoU0QGSJtng8PMpGt/H4bmk5rc1KX2S+sgnKMdmRsdoEqyefhYOz6UHa0B6P9Xypzk8l0Rfz9fYYvUewEWAW4VKf29LcvHB6AhNoProfIrGKA7PJTW/R5D5KvWRM1m0qBYdI2nyuQJdalc5JxaOHE9O/w/ois6RpI2Tb6Dqehnl7BuiSzRB6qNzIA/jA5zSA6SfQOMt9O8zEl0iqQnVR/YBLsPBkvT3Un4lfb1fiM7QZigXd5FmLiTxbrw/LanlpP+iWv0qj92S2pu/oEjt6Nxrt2Zl1+WQXh6dIkmb4S9kjmSg59+jQ7SZFi2qccMuy4C9olOkJrGKRJ1H1t7D0bNXR8dIamLl9dMp7j4V0gJgWnSO1CR+w4wtn8LJe94bHaJNsHDJY2jUFpGYG50iSZvh11TVYZT7/CA6RNLkcIAutZty5MkUfAlXKUhqD5nMe8jdp1MmtzFtVUPDx5LTRdEZUnPINwCvpb/3+9ElklrIwpHZVFwBPDk6RWoKOZ3NQPfp0RnaSPXR50D+HPCo6BRJmgArgePo7/lIdIikiecAXWonQ6MvJ+fLga2jUyRpgn2daatey2n7/yU6RBvprJEdWcMvgB2iU6QmcDFV7V8oZy+PDpHUgs67bhYr7ns/8OboFKkJrCIVz6Bvzo3RIRqHtccMnkpOQ4BnB0tqL5kPk7c6kXKPVdEpkiaOA3SpHSxaVOPnu/SR6MOzZSW1r1spOIwFPWPRIdoI9ZEPA8dEZ0jB/kTOb2Gg91+jQyS1gcGRl5G4FNgpOkWKla+iv/f50RXagAtu2oI777gUeF10iiRNou9TrDmMBfveEh0iaWI4QJdaXTm2E8Waz0J6XnSKJE2Be+8/F/3L0SEah/qyvaBahqtM1Nm+SZXeSNn9h+gQSW2kvPbRFNMvh+zwUJ0tpcPo6/5SdIbWobz20aSuL5NSd3SKJE2B2yjSfBZ0Xx0dImnzOUCXWlm57GkU1deAXaJTJGkKVSROp6/n3OgQrUfOifro1ST2i06RgqwgcQoLui8ipRwdI6kN5ZxYOHoimbOALaNzpCC/plr+FMp590WH6EEWjsym4ivAY6JTJGkKrSGl4+nr/nB0iKTN4wBdalWDoweS8heBbaNTJClE4rM0lh/lzbImNTh6BCl/OjpDCnI9cAT9PddFh0jqAPXRPSBfAewZnSIFOYP+nrOiI/QAgyOvJHE5MDM6RZJi5Auoet5JmaroEkmbxgG61Irqw0dBuhiYFp0iSaEyVzONl3N6z+3RKXqA866bxYr7bsTVJupEmQ+z/Q7v5PhdV0anSOog5eItqc24gJzeEp0iBbibWm03zpj9++iQjpdzYmhZCbkP7ztL6njpi2y15khOmrsiukTSxvMXGamVrN0Od4DEQHSKJDWR/yZVh9K3z8+jQ3S/wZHS9yp1oPvIHMdAz0ejQyR1sMHhI0npYlz1qU6T0sfp6z4qOqOjlddPp7jn48Dh0SmS1ERGqNa8mHLfP0aHSNo4DtClVnHBTVvw1zs+SuaI6BRJakJ3ktMrGOj+TnRIx1u45DFUtRuBWdEp0hT6FRSH0T/nh9EhknT/ucNfAHaJTpGmUAW5m/7e70eHdKTyh9tRrPoSMC86RZKa0C9JxSH0zbkxOkTS+BXRAZLG4exrtufOO77l8FyS1mk7Uv46gyOviQ7peLl2Jg7P1VkWU63pdXguqWks6Bmji72Bb0WnSFOoIKcLyNnFQlOtvPbR1FYtxuG5JK3LP5GrpdRHnxMdImn8HKBLza5c9o+snr4U8A1WktZvOolPMzR8QnRIx6ov24vMkdEZ0hTJ5DxE1f08t+OT1HRO77md3W85hJzOBnJ0jjQlEnNZOHJYdEZHqS95OsW0ETLPjE6RpCa3PeRvufBDah0+lSk1s/rSHij+Fdg5OkWSWku+gL6eE0nJG8ZTqT78bUjPi86QpsBdpPRG+rq/FB0iSRs0NHIomU8B20WnSFPgV1Rb7U65x6rokLY3ODyPlL4MbBudIkktJJOpM9BTRodIWj8H6FKzGhp+ITl9AZgRnSJJrSlfTrXiLZTz1kSXdITB4ZeQ0leiM6TJl35CtebllHNvji6RpHErR55MwZeAPaJTpEmXOJ6+ngujM9ra4MhrSFwOTI9OkaQWdTFV97GUqYoOkfTwHKBLzWho+BXkdAV+EJGkzfXvVLX5lLOXR4e0tXJxF8XMnwK7RadIkyt/iRkzXsfJe94bXSJJG61cvBXFzE8DL4lOkSbZn6jykyh774oOaUv1kWOAD+LRoJK0eRKforH8KBd+SM3JX3SkZjM4fCQ5fQ6H55I0EQ6haFzF2ddsHx3S1ooZR+HwXO0u5/dS9bzS4bmkllXOu4fdbzmMnD4QnSJNskeQ0rujI9rS0MjJwIfwnrIkbb7MkRSzPkd5vXMAqQm5Al1qJvXht0L6MH4QkaSJlfgRtWn/zOnP+lN0Sts5f8kM7qn9AnhsdIo0SRrAifT3XBQdIkkTZu1nzw8CXdEp0iRZQZF2Y0H3b6JD2sbQyClkzonOkKT2k7/BVtVhnDR3RXSJpP/jkE5qFkPDx0K6GP+/lKSJl3kma1Z/l/LaR0entJ17uk7A4bna173k9DKH55LaTn/vpWQOBe6OTpEmyQxyHoiOaAs5J+oj73V4LkmTJb2Au2vfpBzeJrpE0v9xBbrUDIZG+8i5Hp0hSR3gRorGgSyY+z/RIW3h7Gu2Z/X0XwJuka82lH4H6VD65/wwukSSJk19eG9I/wb8Q3SKNAkaVPkZlL0/iw5pWYsW1bhxl0vIvCk6RZLaXmaYPP0FlHvdGZ0iyZWuUrz6yLkOzyVpyuxGVfsuC7+3S3RIW1g9/VQcnqstpZ9Q0OvwXFLb6+/9PsWafUj8NDpFmgQ1ijQYHdGyysVd3PCETzs8l6QpkuilWPWfnPWDR0SnSHIFuhQn50R92ftI+YToFEnqQLdSNQ6knHtzdEjLKq99NMW0m4CZ0SnSxMpXMb3rFZw6+6/RJZI0Zc69dmtWdn0e0guiU6QJliH10N+9LDqkpSxaVOOGXT4JHB6dIkmdJ99AxfMpe38bXSJ1MlegSxHKXLBw2UcdnktSmMdT1P6LoWW7RYe0rDStH4fnaj8foVrxAofnkjrOKfvdzc5dLyGlj0enSBMsQeUq9I2xdtv2T+HwXJKCpN0p0n9Rjj0+ukTqZK5Al6Zazon66AdJvC06RZLE/1AVz6ac89/RIS1l4fd2oer6BTA9OkWaMJnz6O8+hZRydIokhck5UR85j5T+JTpFmljpAPq7vxtd0fTKXFAbvZzMkdEpkiRuplZ7NmfM/n10iNSJXIEuTbWh0XMcnktS03gMRbWYcukTokNaSp42gMNztZPMuQz0vNvhuaSOl1JmoPddJE6NTpEmVM4LoxOaXs6JYtmHHZ5LUtN4Eo3GYs4c3jk6ROpErkCXptLgcJ2U+qIzJEkPcTPV6udQ7ve76JCmVy55EkXt50BXdIo0ATIpnUxf93ujQySp6dRHjgMuwHtHahc5/zMDvd+OzmhKOSeGRj8EHBOdIkl6kMSP6Fr1XE7b/y/RKVIncQW6NFXqI+92eC5JTetJFNO+zVk/eER0SNOr1fpxeK72UAFvd3guSevQ33MRKR3L2p+XUutLaSg6oSnlnBhadjEOzyWpOWWeyepp/8Z5182KTpE6iU8RS1NhaPhYcrooOkOStAGJH1PjuZzec3t0SlMqR55MwfU4QFfra0B6M/3dl0eHSFLTq48cDnwC3//VDjIHM9DzreiMplIfPQ/yu6IzJEkb9J9Uyw+hnHdfdIjUCVyBLk22+sjryOmC6AxJ0jhknsEavs3Z12wfndKUarmON8/V+laR8qsdnkvSOPX3fIZUHQasjE6RNltiIDqhqQwNn+bwXJJaxnMpZn6FC27aIjpE6gSuQJcm09Doy8n58zhskKTWkrmavPwgn+p9gKGlTyEXP8UHMNXaVpLzqxjo/dfoEElqOYPLXkCqvgjMiE6RNksqnk/fnKuiM8LVR14HXI73hyWpxeQvUa14FeW8NdElUjvzBqg0WQZHX0TOn8PhuSS1nsSzKWZ+ijL7u9L/Kk7D3x3V2u4l5xc4PJekTTQw5xvkfAhwb3SKtFmqylXoQ6MvBz6Gw3NJakHp5RQzLiNnf4ZLk8iboNJkGFp6ACkvAqZFp0iSNtkrSMs8ggNgaOyfyLwmOkPaDPeRipcy0Ls4OkSSWtpA72JS8VLAXXrUuhL7MTh6YHRGmMHheeR8BVCLTpEkbar0BurL3hddIbUzB+jSRCvHdicXXwK2jE6RJG2mlI9laOSM6Ix4a07BHVXUulaT03y3apWkCdI35yoyL8Uz0dXKUjUYnRCiPrInKXnPSpLaQconMDR8QnSG1K7c4kGaSGcO70wjLQWeGJ0iSZowGfKb6e/9WHRIiIWjj6PKNwPTo1OkTdCAdDj93YuiQySp7QyOvorkKla1sCI9hwXdV0dnTJmhsX8iN5YAj4xOkSRNmIrEYfT1fCU6RGo3rkCXJsr5S2bQSF/G4bkktZsE6VIGR14WHRKikU/G4blaUyantzk8l6RJMtD9eTJvAqroFGmTVPmU6IQpUy7Zgdz4dxyeS1K7Kch8hoXDvdEhUrtxBbo0EcpcUIx+AejM4YokdYblFMU8FswZjQ6ZMmt3VvkVMCM6RdpoKR9HX+8HozMkqe3VR44DLozOkDZBBvaiv+e66JBJVV4/neKe/wCeE50iSZo0t5HYh76eX0WHSO3CFejSRCiWvReH55LU7mZSVf9KOfb46JAp0+BEHJ6rJaXTHJ5L0hTpCn4SRQAAIABJREFU77kI8jujM6RNkEi09yr0nBPFPZfh8FyS2t3OZP6ds6/ZPjpEaheuQJc219DI0WQujs6QJE2Z66nyXMreu6JDJtW5127Nymm3AttFp0gbJ9Xp7x6IrpCkjlMfHoK0IDpD2kgNqsbulHNvjg6ZFIMjJQl/L5KkTpG5mu13+GeO33VldIrU6lyBLm2OwZFDyLi6SZI6yx4U6bMsWlSLDplUK7uOxuG5Wk6+wOG5JAXp7+0jc150hrSRaqTaSdERk6I+/GoS/dEZkqQplHg2d/7lcnJ28ay0mRygS5tq4chsEp8H2nuAIkl6OC/k57ucHR0xaS4Zmwbp+OgMaSN9hr6eE6MjJKmj9XefAnwmOkPaKIk3Uo4+KjpjQtVHnwPpE7j7qCR1oPxqhpaV0RVSq3OALm2KhaOPo+LfgFnRKZKkIImTGRx+Y3TGpLit8RrgcdEZ0rhlrma7HY4ipRydIkkdLaXMdjscBVwTnSJthC0p8juiIyZMufQJkL8ATI9OkSRFyX0MDh8ZXSG1Mgfo0sa6ZGwaVfVZoL2eTpYkbbyULmFweF50xoTKOZE4OTpD2gi/ZNq0V3jGmyQ1ieN3XUnVeClwY3SKtBHexnnXtf4iifOXzKAovgDsFJ0iSQqVSOlSFo7Mjg6RWpUDdGlj3VZdBGnf6AxJUlOYRkqLWPi9XaJDJkx99IVknhadIY3Tn0i1gzj9WX+KDpEkPUA59w5S7RDAn89qFduzYuXroyM22721jwJ7R2dIkprCllRcyVkjO0aHSK3IAbq0MQZH3gT5rdEZkqSmshONri9QLt4yOmRCJE6KTpDGaQXwEvpm/zI6RJL0MNb+fH4JcF90ijQ++UTK3Lr3SuvD7yLzmugMSVJTeQJr+AyLFtWiQ6RW07q/FEpTrb5sLxIXRmdIkppQYja1mZdGZ2y2ctnTgPbakl7tKgNvpr9naXSIJGk9+nuWkvKRQBWdIo3DrqSRF0VHbJLB0QMhnR2dIUlqSv/MDbvUoyOkVuMAXRqPcskOUH0RmBGdIklqUpkjGRx9S3TGZimqdwIpOkPasPxu+ns+E10hSRqHvt4vAKdFZ0jjktI7oxM2Wrn0CaT8OaArOkWS1LROY2j4FdERUivxBqm0IYsW1bhhl28BB0anSJKa3n0U7M+CnrHokI121g8ewZrVtwLtsRW92tnF9Pe8LTpCkrSRBkcuJnF0dIa0YXk2/b3fj64Yl3JsJrXGUjLPiE6RJDW9u0hFN31zbowOkVqBK9ClDblhl7NweC5JGp8tqfgi5dhO0SEbbc2ao3F4rub3Tarl74iOkCRtgrz8OOBb0RnSBqV0QnTCuNWqixyeS5LGaRty9SXOvXbr6BCpFThAl9ZnaOSlwMnRGZKklvJ4isbnWbSoFh0ybpeMTYN8THSGtAG/povXUs5bEx0iSdoE5bw1TFv1GuCX0SnSemVexZnDO0dnbFB9+NXk/MboDElSS3kqK6d9ipzdnVraAAfo0roMLX0KmU/iUQeSpI33XG54Qn90xLj9oZoPPCY6Q1qP5cBLOb3n9ugQSdJmOG3/v1ClVwArolOk9ZhOld4cHbFeQ0ufAukj0RmSpJb0EhaOvis6Qmp2DtClh3P+khnk4krA7UwkSZson0F99DnRFeOSsltiq7nlfAz9PddFZ0iSJkDZ/SPAnW/U3DLHUC7uis54WOXYTCgWAbOiUyRJLSpzFgtH50ZnSM3MAbr0cO6pvQfYIzpDktTSapCvaPrz0MvRZwI90RnSOmUuZKD3U9EZkqQJ1N/zScgfis6Q1uOx1Ga8NDriYRWNC8k8LTpDktTSuqjypymHt4kOkZqVA3TpwYZGDwaOjc6QJLWFx1A0PtHUZ0vV8nHRCdI6ZYbJW7m1nCS1o527TgSuic6Q1ikXzXdvqD78auCo6AxJUlt4IrV0UXSE1Kya92auFOHM4Z1ppOuAnaNTJElt5R309zTfh5Lyh9tRrPotbv+o5vQHqtV7U+73u+gQSdIkWbjkMVS17+NncDWrqng65ZyfRmcAMLRsN3I1BmwVnSJJaitH0N/zmegIqdm4Al36m5wTjfQx/OAuSZp451Ef2TM64iFqK1+Pw3M1p9UU6VUOzyWpzS2Y+z+QXgWsiU6RHlaq3h6dAMAlY9Ooqk/j8FySNPE+RLn0CdERUrNxgC79zcLR44AXRmdIktrSlsCVnHvt1tEhfyent0YnSA8r5ZNZ0H11dIYkaQr0d38XOCU6Q3pYiddSLo4fWt+2pp/E7OgMSVJb2pYifZpFi2rRIVIzcYAuAZTLnkbmPdEZkqS2tisrp/+/6Ij/NTTyXOCp0RnSQ6T8efp6PxCdIUmaQn3d7yNxZXSG9DC2Js18VWjBwuFeSKeGNkiS2lzalxsef0Z0hdRMHKBL5eItqVVXsHZ1oCRJkyi/haHRg6Mr7ndMdID0MH7NtK6joyMkSVMspUxj+luBW6NTpIdIvCXs2uddN4sqfQroCmuQJHWI1Ed9ZJ/oCqlZOECX0qxzyDwjOkOS1BESmY9SLtkhtOKskR3JvDi0QXqoilS9kVNn/zU6RJIUoNzrTop8BNCITpEepIf6sr1Crrxi5fnAk0KuLUnqNF3AFZTD20SHSM3AAbo629DowaR8fHSGJKmT5EdTq70/NKHB64AtQhukB8ucTd8+/xWdIUkKtKD3WnLyeDU1ocabp/ySgyOHQI5b/S5J6kRPpJYuio6QmoEDdHWucngbcr4MSNEpkqQOkzmSoZGXBl7/TWHXlh7eMh5VG4yOkCQ1gUcVA2TGojOkv5eO4LzrZk3Z5cqxnUh8BO9ZSZKmWuZIhpa6a6E6ngN0da6UzgEeG50hSepQmYspx3aa8usuHO4F9pjy60rrdi8pH8HRs1dHh0iSmsDRs1eTOQK4NzpFeoBtWb5i/pRdrWh8AHjUlF1PkqQHysWHOGds2+gMKZIDdHWm+sg+JI6OzpAkdbSdKRqXTflVq+TqczWbE+nrvSk6QpLURMqeX0A+KTpD+nvpDVNymaHhFwKHT8m1JEl6eI9hVeOc6AgpktsAqfOUi7ekmPkjYLfoFEmSyOnVDHR/fkqudd51s1hx3++BrafketKGfYX+npdFR0iSmlR95MtA3LE30t/LpNqu9M3+5aRdoRzehiJdjzsmSpLiZYp0AAu6r44OkSK4Al2dp5jZh8NzSVKzSPkDnH3N9lNyrbXbTjo8V5NIv6OqvSW6QpLUxNa+T/w+OkO6X6Ja8/pJvUKRzsXhuSSpOSSqfBnl4i2jQ6QIDtDVWcrhZwAnR2dIkvQAO7Nm2rlTcqWUJveGnzR+mVS9hXL2n6NDJElNrJz9Z3J+PZCjUyQAUnodZZ6c+6n10eeAxw1KkprKk+9fkCh1HAfo6hzl4i6K9DFgWnSKJEl/J6c3Ux/Zf1KvsfB7uwDPntRrSON3CX29X4+OkCS1gIHebwOXRGdI99uF2ugBE/6q5y+ZAfkyPG5TktR8TqY+smd0hDTVHKCrc9RmvhPYOzpDkqSHkYDLuOCmLSbtCtW0I/GGnJrD76mmnxYdIUlqIVU+BfhtdIYEQGbid3W6uzYI7DrhrytJ0uabRuJyLhlzYaI6igN0dYZyyZPIlNEZkiStx27c+ZdJPGYkv3byXlvaCIm3U+51Z3SGJKmFlL13kXhHdIZ0v1dw7rVbT9ir1Zc8ncQ7J+z1JEmaaJln8sfGidEZ0lRygK72l3OiKD4MzIxOkSRp/fICyrHdJ/xl60t7gN0m/HWljZa+SF/PV6IrJEktqK/nK5C/FJ0hATNZOe1lE/JKOSfougDompDXkyRpsmQGKZc8KTpDmioO0NX+hpYdAel50RmSJI3DFhSNi9beSJtAuXbkhL6etGnupFa4elCStOmqNe8A3MVEzeDwCXmVoWVHQD5gQl5LkqTJNYOidmF0hDRVHKCrvZ133SzI50RnSJK0EQ6kPvrqCXu18vrppDxxrydtsnwKZ8z+fXSFJKmFlfv9DvIp0RkScCBnDu+8Wa9QDm8D+bwJ6pEkaSoczODIIdER0lRwgK72tmLFqcBjojMkSdooifesfQhsIl7r3oOAHSfktaRNlbmavp7LojMkSW2gr+cyMldHZ6jjdVGl+Zv1CkUxCDxqYnIkSZoiifMpr58enSFNNgfoal/l2OMhnRSdIUnSJngsy1dMzOoqV58r3kqK6hhSytEhkqQ2kFIm8xbgvugUdbjMazb5e+uje0A+dgJrJEmaKk+mdq/Hs6ntOUBX+yqq84GZ0RmSJG2SlE5maOSJm/Ua5eItgUMnJkjaRIkh+vb5eXSGJKmNlD2/IKWzojPU8fZhaHjXTfzei4BpExkjSdKUyXmActRdVNTWHKCrPdVHnwP5sOgMSZI2w5Zk3rNZr1CbcSiwzcTkSJsi/YRH1jbvv2NJkh5OY9a5JH4anaEOl4tXbfT31EcOh3zAxMdIkjRltqbIQ9ER0mRygK72s2hRjZTfH50hSdIEeAWDw/M2+btz2vgbetJEytUJHD17dXSGJKkNlXusAk6IzlCHS3njft9eu0OUuydIktrBUdSX7RUdIU0WB+hqPzfu8mYyz4zOkCRpQqR0IeXiro3+vnOv3Ro4ZOKDpPHKX2Kgd3F0hSSpjfX1/CfwlegMdbDM0xha+pRxf31txjuBXSYvSJKkKVOQq4vIOUWHSJPBAbraS/nD7ci4dYgkqZ3sQW3WWzb6u1ZOexEwY+JzpHFZSep6d3SEJKkDVI2TgVXRGepktVeM68vKsZ3I6ZRJjpEkaeok5lJfNj86Q5oMDtDVXtKqfuAR0RmSJE2onEvKxVtt3De5fbsCZS6gb/YvozMkSR2gnHszmQ9EZ6iT5fEN0IvGALDt5LZIkjTFUn4P5y9xAYfajgN0tY9y5MkkjovOkCRpEjySYsZJ4/7qcvFWkP95Enuk9bmNnBdGR0iSOsgWtTOBP0ZnqENlnkE58uT1fs3avz96aoIkSZpSj+ferndFR0gTzQG62keRBoFp0RmSJE2OdDJnDu88vi+ddQiw5eT2SOu0gLL3rugISVIHOXX2XyH3RWeogxWsfxV6wbl4z0qS1K5yfjdn/cCdgdVWHKCrPZTLngbZszYkSe1sK9YUp43rK4vqZZPcIq3Ldex+y8ejIyRJHajq+Qjw/egMdax1D9AXjj4beOnUpUiSNOW2Ys2q8e+cKLUAB+hqD0U1hP89S5LaXcrHUC59wnq/5oKbtiCnF0xNkPQgOb+T+fMb0RmSpA5UpoqcT47OUMfai6Gxf3rYv6nyOVPcIklSgPSOce+cKLUAB45qffXhvYGXRGdIkjQFtqAoBtf7FX+94/nANlOTIz1Q+iIDvYujKyRJHWzt+9CXozPUoXLjofemBpe9ANhn6mMkSZpys2gUp0ZHSBPFAbraQFoIpOgKSZKmyGupL3n6Ov824/btirCSVJwSHSFJEql2MrAyOkMdKD9ocUfOiVSt/+FXSZLaSj6Gcvix0RXSRHCArtZWX7YvcHB0hiRJU6iA2pkP+zeLFtWAF09tjgSQP0rf7F9GV0iStPb9KH80OkMdKLEv5dhO//vP9WWHAnPigiRJmnJbktKC6AhpIjhAV4urhqILJEkK8CIWjsx+yJ/e8IT9gJ0e+uXSpLqPirOjIyRJ+l+1roXAiugMdZwaqXEIcP/q89wX3CNJ0tRLHEW57B+jM6TN5QBdrWtw9EBgXnSGJEkhKk5/yJ/lfEhAiTpeupiy97fRFZIk/a8zZv+enC6NzlAHSnntblD1kZfj6nNJUmeaRtHwITK1PAfoal0pD0QnSJIU6KWUw8/4uz9JHBrUos61gmrVedERkiQ9ROYcYHl0hjpNOpjzrptFSg4OJEkdLB1JObZ7dIW0ORygqzUNDb8Q2D86Q5KkQInaA86VGhp5IvCUuBx1pvRByv1+F10hSdJDlN1/gPSh6Ax1nJncd9+HgT2jQyRJClSjqFwAqZbmAF2tqUqD0QmSJIXLHEY5/NT7/8nV55pq99DV9Z7oCEmS1mnt+9Q90RnqMJkjoxMkSYqX51Mf3SO6QtpUDtDVegZHDyQxOzpDkqQmUFBLa89Czw7QNeUu4PRn/Sk6QpKkdTr9WX8ipwujMyRJkjpQAdW7oiOkTeUAXa0nZX/oSpL0N5lXUy59FvCc6BR1lLuoGu+NjpAkaYPytPcAd0ZnSJIkdZ50BAtHHxddIW0KB+hqLeWypwEHRWdIktREahTFF4AtokPUSdL7KefeEV0hSdIGlXvdCemC6AxJkqQONI1GPjY6QtoUDtDVWmrVu4AUnSFJUpN5YnSAOspfmbby/dERkiSN2/TifOAv0RmSJEkdJ/E2zhnbNjpD2lhd0QHSuJXXPprMa6IzpDa2Bvgtmd+RuJ3EHWRuB24H7oBckdPd938dkO+kYBpVmgVAYgbkLUlpCyp2BHYgsSOwIyk9gpwfA+wc8S8mSZpI+UJO298hhCSpdZw6+6/Uhz8IaUF0iiRpk9wD3ALpT8Dt5Pzntfeu0h3k6m5IFZm/AlCwGop7oNqKimlrvz1tR6oSqdiaih0pqp3I7AhpR+ARwBOAmSH/ZlL724ZVjTcB50eHSBvDAbpaR9H1DmB6dIbU4hrAf0P6MXA9ubqZlH5NVbsF7v4d5bw1k3r185fM4N70BKjtAnkXKnYj5adDejoO1yWpFaykKj4YHSFJ0karig9S5JPx2BtJalb3Aj8j8WMyPyPzK3J1C9OLWzi95/ZJv/pZP3gE1epdaORdSDyRVDyVKj+dxFNxuC5trhO4ZOxCjp69OjpEGi+3wlZrOPfarVk57VZgu+gUqYVUwA0kllKxlBrXsab2M8rZy6PDHlY5thO1xjMg7UXO+wK9wD9EZ0mS/s7H6O95U3SEJEmbpD7yUeCo6AxJEvcCY+S0BPIyitqPaez9K8pURYc9xKJFNW58/D9S8QxS6gb2AWYDM4LLpNaS02sZ6L4iOkMaLwfoag314RMhvS86Q2pyFTmPkfgPUvE9GtOGKfe6Mzpqs5RLn0BRzCXzbBIHsXZLLUlSjExVPINyzk+jQyRJ2iT10T0g/wTvh0nSVLsL+E/gO5CXUq24btJ3QZxMl4xN4095L3JjH3I6EJgHbBWdJTW5H9Lf86zoCGm8/MCg5lcu7qKYeTOwS3SK1IT+APmbwLeouq6inP3n6KBJNbRsN3I+CPJBrP1w4tO+kjR1vkV/z8HREZIkbZb6yDcA388kaXJlUvohOX+TIn2LRxRL23rr5vL66aS794V0EAUHkXlmdJLUlFLxfPrmXBWdIY2HA3Q1v/rI4YBbe0j/588kvkGVriTf+42WfmJ3c5y/ZAZ3dz2PIr+SzMvwSV9Jmlx+0JUktYOhZc8jV9+OzpCkNvUzMldS5Cvo670pOibMwu/tQq69lMwrIc3FOYz0Nz6Yr5bhD241v/rIGLB3dIYU7E7In6Hgs6zpWdKUZ0JFOu+6WaxYeQjkI4EXALXoJElqL+kn9M3Zk5RydIkkSZutPvIjYM/oDElqE9eT0sdpFFdSzr41OqbpDI08EZhPzm+AtHt0jhQsQ2NP+uf+JDpE2hAH6Gpu9ZF9gCXRGVKg70O+lBkzruDkPe+NjmkJZ479A1XjdWTeDDwpOkeS2kLmDQz0fCI6Q5KkCVEfeR3g+5okbboVJL4GxaXuUrUR6sN7Q/FWyIfjTorqXBfT3/O26AhpQxygq7nVRz4BvC46Q5pid5H5KLnxIcq5N0fHtKycE/WRA0jpeODFQBGdJEkt6vdst8MTOX7XldEhkiRNiPL66RT3/DfwmOgUSWoxPyOn95Pv/SzlvHuiY1rWudduzcppRwAnArtF50hT7G6q/FjK3ruiQ6T1cYCu5lWO7UTR+A2wZXSKNEV+TeJiulZdymn7/yU6pq2Uy/6RVL2VxDHAttE5ktRSUj6dvt6zozMkSZpQ9dFTIfv+Jknjkr9HLs6lf87XPNZpAuWcWDh2ILk6ATgE5zXqGOlY+rs/FF0hrY8/kNW8hkZOJvOe6Axp8qWfAAvZ/ddfZP78RnRNWzv7mu1ZM/3tZE4CdojOkaQWsJwuHs/pPbdHh0iSNKHOvmZ7Vk//DTArOkWSmlRF4rM0inMo5/w0OqbtlaPPpMinAa/AXRTV7hI/pa/n6dEZ0vo4QFdzyjkxNPoLPL9Y7e1nwLnsfssVDs6nWLl4K2ozjyXzbhykS9K6JT5BX88bojMkSZoUQ6MfI+c3RmdIUpOpgK8DC+jvuS46puPUR/cg5VPIHA7UonOkSVPk/VnQe210hrQuDtDVnAZHDiLxzegMaZLcBLmfqmcRZaqiYzraOWPbsrpxIpl3AVtF50hS0/EDrSSpnS0cnUuVvxedIUnNI30RGKC/+/roko5XDj+DohiC/OLoFGlSJK6gr+e10RnSujhAV3Oqj3wemB+dIU2wO0mcw7Y7vJ/jd10ZHaMHKMd2oljTB+lYfLpXkv7mRvq6n+IZh5KktlYf+SmwR3SGJIVK6Qck3smC7qujU/Qgg8PzKNL5ZJ4ZnSJNsBVU0x9Nuded0SHSw/EsDTWfcskOwEuiM6QJtAbSpVRrdqOv51yH502onP1n+ntPgGIO8N3oHElqCild5vBcktQBPhYdIElx0u8gH81uv+52eN6kBnoX0+jeG3g98IfoHGkCzaBY9eroCGldHKCr+RS1w4EtojOkCZEZhsaz6O8+mnLfP0bnaAP65/yQ/p4DIL8GuC06R5ICraKx+lPREZIkTbqq9knAh5wldZoGmfcxY4sn0997KfPnN6KDtB5lqujv+SRV3g24iLXn1Evt4KjoAGld3MJdzac+8gNgr+gMaTMtJ1Fnt1v+nx9CWlT5w+0oVg5COg4fOJPUaRJX0tfjcTqSpM7gMXKSOknix6TiLSyYMxqdok1ULn0Wtdpl5Pys6BRps1V5T8reH0dnSA/mQEDNpRx9Jg7P1fq+RpF2p6/nXIfnLazc6076e08gVQcCN0XnSNKUqvhodIIkSVMm549EJ0jSFFgBnEJj+d4Oz1tcuc8PeGTRS2IB7qKiVpfSG6ITpIfjCnQ1l/ro+yCfGJ0hbaIVpHwafb0fiA7RBDt/yQzuKc6B9A5875TU/n7D7rc80YfAJEkdI+fE0OhNwD9Fp0jSJLkeOIL+nuuiQzTB6qN7kPKnyTwzOkXaRH+iWv5oynlrokOkB3IFuppHmQvIr4zOkDbRMiqe6fC8TZ00dwX9vSeQeQHw++gcSZpc+SMOzyVJHSWlDPmT0RmSNAky5AvYboe9HZ63qf7u62ks34fMuXg2ulrTI6jNel50hPRgDtDVPNLIgcBjojOkjVSR8xDV8rmUPb+IjtEkG+j5FrW8F/DN6BRJmiQNiuLj0RGSJE25io8BPkAmqZ38DzkfSH/vCRy/q9t8t7Ny3n0M9JxKzgcDf4jOkTZaro6ITpAezAG6mkfi8OgEaSPdQUqHMNDb7xYzHeSM3tuoug8hM4hP9kpqP99mQfdvoiMkSZpyZe9vIf9HdIYkTZDvUst7M9C7ODpEU2ig99tUq/eG/L3oFGnjpJdSjs2MrpAeyAG6mkO5eEtIL4vOkMYt8SOqYg593a5E7kRlqhjoKcnFocAd0TmSNIE+Gx0gSVKc9LnoAknafOlSdq49nzN6b4suUYByv99RrTjg/i3dpVaxFcWaF0dHSA/kAF3NIc18EbBtdIY0Tp9kVmMu5Zz/jg5RsIE536Aq5gCeIyapHaykmv7V6AhJksJMr/0r4DbHklrVveT0avq7j+bo2aujYxSonLdm7Zbu6bXAiugcaXyS27irqThAV3NI6VXRCdI4ZDKD9Pe8npPm+sun1irn/DfV8v2Ar0WnSNJm+g/Kve6MjpAkKcyps/8K6VvRGZK0Cf5AwQEMdH8+OkRNZKD7CoriAMDdCNQKDuLsa7aPjpD+xgG64pVjMyEfHJ0hbcBKcjqSgZ4yOkRNqJx3D7vf8lLgougUSdpkOV8ZnSBJUhPw/VBSq7meYk0vC3rGokPUhBbMGSWxD/Dz6BRpA6axevqLoiOkv3GArni16mBgVnSGtB63U+TnMdB9RXSImtj8+Q36e95BSu8CqugcSdpIK9miy+3bJUmqqq8C90VnSNL45KuYXtuXBfveEl2iJtbX8yumrdoXWBydIq1fOiy6QPobB+iKl3lldIK0Hn+gKg5gQe+10SFqEX3d74V8BOB5Y5JayTfXblsrSVKHK3vvAr4ZnSFJG5a+ynY7Hurv8RqX0/b/C9VWB0P6YnSKtG75IMrhbaIrJHCArmgX3LQF5BdGZ0jrcCtVY3/KOT+NDlGL6e/9HDkdhitXJLWKnNyuVpKk/+P7oqRm9xmqew/j+F1XRoeohZR7rGL3X7+KxCeiU6R12IKUDomOkMABuqL95S//DPhEkZrRLyjSfpRzb44OUYsa6P43UnoZsDw6RZI24D5y9W/REZIkNY0tVv8bsCI6Q5LW4WKq7iMp562JDlELmj+/QaP7KEiXRqdIDyu5jbuagwN0xUr5xdEJ0kPlG6jSc1jQ/ZvoErW4vu5vkqpDcIguqbl96/7taiVJEsAp+90N+RvRGZL0UPkC+rrfTpmq6BK1sDJV9M05BrgoOkV6qHzQ2p2LpVgO0BWnzAVwaHSG9CC3UjQOpuz+Q3SI2kTfPv9FKl6C27lLal6LogMkSWpCbuMuqcnky+nrOZGUcnSJ2kBKmb7u412Jria0FX+544DoCMkBuuIUy/YGHhWdIT3Ab0kcwIJ9b4kOUZvpm3MVmcMBt1eT1Gzuu3+bWkmS9EDViq/hNu6SmkXiCqqeNzk814RKKbP7r99Oyp+PTpH+XnpRdIHkAF1xcuUPQTWT20jF8/j/7N15nB1lmbfx312nOyRhC0E22UEUCIpopzvBoEZH8J3xdRyVuAw6Cjq8OoojiGxZKt2J4oaKK4o64qgY3MEFRicukHR3mn0X2UWUH/7dAAAgAElEQVRABAJkIUmfut8/AhiBkO5OVd3nVF3ff9Skc87l59Pn1Dl11/PUnJ5bo0NQUfN6fiS3d0himzUAreR367epBQAAfyeduULy30RnAICkH6m56h1s245CzJrV1I4db5PEhdVoHeb/FJ0AMEBHHDPuf45WsVrK/llzpt4YHYKKm9f9bUknRmcAwAYujA4AAKCFXRQdAKDmXBcrW/VWpTPZ0Q7FObZrnbJVs+RaEp0CPGYv9S55fnQE6o0BOmIsGNxd0guiMwBJTVn2Zs2dPhAdgpqY23OG3L4QnQEAkqTMfxmdAABAy7LGL6ITANTaTerU65TOfDQ6BDWQznxUnZ2vk3RzdAogSbLkNdEJqDcG6IiR+RGSLDoDkOx4zZn+0+gK1MwBt31A0k+iMwDU3p+UTrsuOgIAgJa1fpeyW6IzANTS/cr0Gp3ac390CGrk1BfdJ2scIem+6BRAnhwenYB6Y4COGOb/EJ0AyPU5ze0+MzoDNTRrVlPZqqMkXR6dAqDGzFlVBwDAprGNO4CyrVHir1Pa84foENTQnK6bldgbJa2NTkHd+aFKF28VXYH6YoCO8qWeyO0V0RmoOdcS7dw4IToDNZbOXKGs8TpJf41OAVBXCdu3AwCwKaYLoxMA1I0fp9nTLo6uQI3N7v6dZB+MzkDtjVNj4sujI1BfDNBRvmTZiyXtEJ2BWrtHvu5IHdu1LjoENZd23SG3N0tqRqcAqJ1hdSa/jo4AAKDlNVf9StKa6AwAdeH/rbnTvhJdAWhu9xdl9o3oDNRcJrZxRxgG6CifOW96iLRO0iylM/4cHQJIkuZ1/1qyNDoDQM24lujkroeiMwAAaHnpzBWSLY3OAFALVyrrODY6AnhCc+V7ZXZZdAZqzBigIw4DdJTPjfufI47pBM3t+X10BvB35kxdKOmC6AwANcJ2tAAAjJw5tz0BULQHlWWvU9q1KjoEeEI681EpmSVpeXQKaut5WnDJntERqCcG6CjXmTdtIfm06AzU1i81u/vz0RHAU5i5ssY7Jd0dnQKgJrKMQQAAACPVNC48A1Awf6/S6bdFVwBPMafrZrm9LzoDNZZ1vCw6AfXEAB3lWv7gNEnjozNQS/cps3fKzKNDgKeVdv1V5u+QxO8ogKLdq3nTLo+OAACgbcybeqVk3AYMQFHO0dxp50ZHABs1r/vbkr4TnYHaYoCOEAzQUbKMNztEcJmOVtp9T3QI8IzmTLtILnZJAFAwW8wFZQAAjIKZy3xxdAaASrpNmb8/OgLYpGzcf0i6PToDtfTy6ADUEwN0lMwYoKN8rq9oTg/3l0Z72Lp5kqTrojMAVJj5kugEAADajhvHTwB5yyS9Xem0h6NDgE1KD1muxN6u9b+3QJn2Udq/W3QE6ocBOsqTXjtOEvc/R9nulo87OToCGLHjD10tZUeLLyQAitLMLolOAACg/TjHTwB5+6Lm9vw+OgIYsdndv5PrrOgM1JAlLMxE6RigozzJqqmSJkZnoGbc36P0kOXRGcCozJ0+ILcvRWcAqKSV0qNXRUcAANB29r/9GkmsEgWQlz9pi3WnRkcAo+Z+sqS7ojNQMwm3Bkb5GKCjRNlLogtQO9/XvGk/iY4AxsSzUyX9KToDQOX0K505HB0BAEDbmTWrKdlAdAaAinB/n06a8Uh0BjBq6bSH5To2OgN1Y9OjC1A/DNBRIuuOLkCtLFejcVx0BDBm6bSH5f6+6AwAVeNLowsAAGhbxjbuAHLBgg+0t3k9P5P8h9EZqBHXgTp9aNvoDNQLA3SUyLn/Ocpjnuq0rrujM4DNMm/aTyT/RXQGgAqxhBP/AACMVeZLohMAtL3VyhonREcAmy3TByStis5AbSRaM8wCTZSKATrKkQ7tIWnX6AzUxh/V3Jr7R6Maso7jJa2LzgBQCa6ONWw9CwDAWI0f7pfUjM4A0MZcH1fadUd0BrDZ0ml/kvunojNQI0nCAk2UigE6ypFkvLmhPKYPKp2yNjoDyEXadYNcX47OAFABpmt1ymEPRmcAANC21t+v+JroDABt6y5NHP+J6AggN95xuqQ7ozNQE84OxygXA3SUwzO210BJ/Fea03NBdAWQq07Nl8TQC8Bm4v7nAABsPu6DDmDMTtWJB6+MjgByk3atkmtOdAZqo0fuFh2B+mCAjnKYdUUnoBZcWXJidASQu1N77pf8I9EZANqcJ9y3FQCAzcXxFMBYmK5Q1v3f0RlA7rz7W5KujM5ALWyvBYN7RUegPhigo3jrrwp6YXQG6sB/pLT7iugKoBBZxxcl3ROdAaCNZc4JfwAANlfC8RTAGGSeKrUsOgPIXWqZTGl0BurCDokuQH0wQEfxFgw8R9K20RmoPJesNzoCKEzatUqmj0dnAGhbD2te903REQAAtL05PbdKWh6dAaCNmF2muT0/jc4ACjO7+yeSlkVnoAY8Y4CO0jBAR/Gy5EXRCagB0/c1t4ftglBtzVVfknRXdAaANuS6QmYenQEAQCW4rolOANBOfB6fxVFpZi7LFkRnoA6MWRNKwwAdxbOM7dtRNFczYfU5qi+d+ahkrEIHMHrm3OIEAIC8mF8VnQCgTbiGNLv7Z9EZQOFmTztfrqHoDFQeK9BRGgboKAFXBaFwP1c6lRUAqIcsOVvS/dEZANpNcnl0AQAAlWEJ3z8BjIzZJ1h9jlowc5l9IjoDlbeLFg7tEh2BemCAjjK8IDoAFWc6IzoBKE3atUrSWdEZANqNM0AHACAvll0dnQCgLdyubOUPoyOA0ux/2w8k3RKdgYobHj4oOgH1wAAdxUqXTJa0c3QGKu1Kzen53+gIoFTZui9IWhudAaBtrFW21fXREQAAVMbwFtdIYkUpgGdm9jmlM4ejM4DSzJrVlOnz0RmoONOU6ATUAwN0FCtp8GaGorH6HPWTzvizTN+NzgDQJkx/UDqFi24AAMhLeshySXdGZwBoaY+oMzk7OgIo3bh1Z0t6KDoDVWbMnFAKBugolunA6ARU2l80afL3oiOAEM3szOgEAG2D1ecAAOSPbdwBbJzrv3RyF0NE1M9JMx6R7BvRGag0BugoBQN0FCvjzQxFsnN03H5roiuAEOn0yyRxT2MAm5bpuugEAACqxxmgA9g4t69HJwBhMvtadAIqbYrcLToC1ccAHcXifhQoUpZxNSPqzZwvJAA2zYwBOgAAuTMG6AA2ZpnS7iuiI4Aw6dRr5D4YnYHK2kbzB3aNjkD1MUBH0Z4XHYCKci1ROo2BAOqtucW3Ja2OzgDQ6obZwh0AgNw1GaADeHomLnYHlJwdXYAKazT2j05A9TFAR3HSoYmSnh2dgapyPoQB6SHLZfphdAaAltbUpB3+EB0BAEDlZNveKGlddAaAlrNSTf9udAQQzrPvSVoZnYGK8uw50QmoPgboKE6ydl9J3IsCRXhU44e/Hx0BtIRM34pOANDS7tBx+62JjgAAoHLSKWsl3R6dAaDFmH6qdNrD0RlAuHTawzL9ODoDlbVfdACqjwE6imMdvImhKL/QSTMeiY4AWoKv+rWkv0ZnAGhVfnN0AQAAFXZLdACAlrMoOgBoISyAQlH2jQ5A9TFAR3Hc2UYDxXCdF50AtIx05rBMP4nOANCq7I/RBQAAVJdznAWwoRXasnlhdATQMpqrfimJHRlQBGZPKBwDdBTHGKCjEI/K/WfREUBLybioBMDGsAIdAIDiGMdZAH9jOl/HH7o6OgNoGenMRyVdEJ2BStpXqTPfRKH4BUNx3PaJTkAlXci9pIAn2bnxv5IeiM4A0IKcE/sAABTGMlagA9iAsV018GTONu4oxHhp4NnREag2Bugo0h7RAagg1/nRCUDLObZrnaRfRmcAaEHGvVkBAChMs4PjLIDHrVVz5UXREUDLmTj+IklrojNQQR0J8ycUigE6iuFuknaPzkAFNYwvI8DT4z5rAJ4qG3d7dAIAAJU1YQ3HWQCPu1jpzBXREUDLOfHglZIujs5ABWUZA3QUigE6ijF/yQ6SxkdnoGJM12h2953RGUBLyuwiSR6dAaClrFB6yPLoCAAAKuukGY9Ieig6A0BL4KJ2YGOM1weKYAzQUSgG6ChGRwdvXshf5nzYAjYm7b5H0lXRGQBaChedAQBQNON4C0BS5txWDdiYJud0UQh2QEahGKCjGK7dohNQQYnYvh14Js590AFsyO+KLgAAoPLcGaADuFvzeq6OjgBa1ryeqyX7c3QGKocBOgrFAB1F4c0LeRvW+AmXREcArS35bXQBgBZiCSf0AQAoHMdboPbMfyczbqkGbMz618fvojNQOeyCjEIxQEcxXDtHJ6ByrtSJB6+MjgBa2rhH+yVl0RkAWkSW/Sk6AQCAGmCADmBpdADQ8syXRCegcphBoVAM0FEU3ryQLxcfsoBNOeWwByVdH50BoEVYck90AgAAlee6NzoBQDBPOGcFbIozQEfudlDqzDhRGH65UBQG6MgbV/MCI8EVvQAeZ9lfohMAAKg+jrdAza1WtuWV0RFAy8tWXylpRXQGKqVDunRydASqiwE6irJTdAAqxjMG6MBIZFxsAuAxbqyIAwCgaGYM0IF6G1I6ZW10BNDy0pnDkg1FZ6Bikow5FArDAB1F4Y0LeXpA6fTboiOAtmB2WXQCgBaRsaUsAACFyxKOt0Ct2aXRBUDb8IzXC/JlzhwKhWGAjvy5m6QdojNQIa5rohOAtjFp8g2S1kVnAGgBW6y9LzoBAIDqW8EKdKDO3DlnBYyUJbxekC/nVsIoDgN05O/jl2wlaYvoDFSJXR1dALSN4/ZbI+mm6AwA4dbq5BnLoyMAAKi8dOYKSauiMwAEsYyBIDBSCRecIGem7aMTUF0M0JG/1eO3i05AxSTOAB0YHb6QAHhQZh4dAQBATTwYHQAgRKbs0WujI4C2Mdy4TlIWnYEKcWcWhcIwQEf+kiZvWsiXsQIdGBUzBugAWH0OAEBZjAE6UFO3PrYLBYCRSLtWSbolOgNVYttGF6C6GKAjfwlvWshZ4jdGJwBtJfMbohMABHN/KDoBAIDa4LgL1BXnq4DR45wV8mPGYk4UhgE68tfMeNNCnlbo1J77oyOAttJIbo9OABDMjJVwAACUhuMuUE9+W3QB0IZuiw5AhbhPik5AdTFAR/4sYYCO/BgfqoBRG157W3QCgGDmbOEOAEBpOO4C9WRcvA6MmvO6QY5YgY7iMEBH/sy3jk5AhbjuiE4A2s68Q++TtDI6A0AgT9hKFgCA0hgDdKCOnAE6MGoslkKunNsJozAM0JE/ty2jE1AlbIcFjJqZS1x8AtSbr4guAACgNpyLV4FasuZt0QlA23FuO4g8+YToAlQXA3QUgTct5Ci5M7oAaFMM0IE6c62OTgAAoDbMV0UnAAiQNTlnBYxWI+N8FXLEYk4UhwE6ijAxOgAV4n5fdALQlkx/jU4AEMjEiXwAAMpixoVrQC1tx/duYLTWrb5fkkdnoDJYzInCMEBHATIG6MhPovujE4C25M5rB6gzYwU6AAClYecXoI4eUTplbXQE0HbSmcOSHorOQGUwi0JhGKAjf5Zw1Q/y4wzQgTHitQPUGyvQAQAoDVu4AzXEd25g7Hj9IC8T5G7REagmBugoACvQkaMseTA6AWhLxpcRoNZYCQcAQJkYoAN1Y/ZAdALQttg1EfkxfXrp+OgIVBMDdOTP1RmdgArpND5QAWOR8WUeqDdnO0kAAMpiCcddoG484zs3MFZcgII8rR03LjoB1cQAHQWwRnQBKqTBlfzAmCSsPgVqzTQcnQAAQG1kWTM6AUDZbGV0AdC+uPUJcuSrmXOiEPxioQgd0QGokHFruZIfGIssWROdACBQZpzIBwCgLAnHXaB2TJyvAsaMnVuQI9+SeRQKwQAdRWAFOvKz25/4QAWMCds3A7WWsBIOAIDyGDu/APXDd25grMxZ9IH8rB1mHoVCMEBHAdjCHblpatYsBgDAWDQyvowAdZYlHD8BACgLW7gDNWQM0IExY9EHctTBAB3FYICOAjhvWMgLH6aAMWvw+gHqjK1kAQAoD8ddoH4yBoDAmLmx6AM5crZwRyEYoANoZVl0ANC2siYn8QAAAIBSZHx3BeqH1z0wZs7rB/nxDuacKAS/WCgAB0DkpjM6AGhbSbJFdAKASBmf8wEAKE0HK5+AujHOWQFjZ+OiC1AhZsPRCagmTqyhAGxdhtyMk7tFRwBtyZt8GQHqLEu4pQ4AAGXJMo67QN2YuGgdGCszXj/IjyUM0FEIBugoAgN05Odzf2QICIxFxgp0oNYS50Q+AABl4bgL1JBzvgoYM14/yNG6NcyjUAgG6CgCb1jIz+p7+UAFjAnbYQG1lnEiHwCA8jhbuAN143znBsbM2cEBORrXwTwKhWCAjiKwZQbys3o8H6iAsUgyXjtArSWcyAcAoCzcOgWoI75zA2PH6wf5WTuOAToKwQAd+TMG6MhRY3i76ASgLblNik4AEIoBOgAA5eG4C9QP56uAseOcFXK0nHkUCsEAHUV4NDoAFeI+OToBaE/2rOgCAIHMJ0QnAABQIxOjAwCUbvvoAKCNcc4KeWIehUIwQEf+Mq2KTkCFmPGFBBgbXjtAnZkYoAMAUBaOu0Ad8Z0bGDteP8jLGqUzWYGOQjBAR/7MVkcnoEIyPlABY2K8doCaYyUcAADl4bgL1M92Sp1z68BouZu4BQLywywKheEgjwI4K9CRH4aAwNhw+wOg3tw4kQ8AQFlYgQ7UUSIt5T7OwGjNH9haUmd0BqrCmEWhMAzQUQBWoCNPtkt0AdCmnh0dACCSj48uAACgNjIG6EAtJR2cswJGq+G7RiegSljMieIwQEf+zFdGJ6BS9ooOANrUntEBAAK5bRmdAABAjbDzC1BH7ntFJwDtp8H5KuSIxZwoDgN05M/1SHQCKoUPVcBopUMTJe0QnQEgkGXbRicAAFAbJo67QB2Zcc4KGDXndYP8uDOLQmEYoCN/5sujE1ApfKgCRm14L0kWXQEgknE/RgAAyrNddACACAwCgVFj5wbkyfRgdAKqiwE6CtBggI487aQzlnA/OWA0Gtz6AKg9FwN0AADKw3EXqCNjgA6MXrJXdAGqxBmgozAM0JE/yxigI0+mFR37REcAbcWN1wxQdwkn8gEAKBHHXaCO3J4TnQC0H983ugAV4slD0QmoLgboyJ83uOoHeZsSHQC0FddB0QkAgrECHQCAMrGFO1BPB2rRokZ0BNA2Uk8kHRidgSrJHoguQHUxQEf+Gk1WoCNn2fOjC4C2Ys4AHQADdAAAyrNtdACAEBN03Z6spgVGqnHp3pK2jM5AhSSsQEdxGKAjf2tXPSQpi85AlRgDdGCk3E0yBugAttIZSyZERwAAUHlnDXWKC9eA+jLnnBUwUtkw56uQr4wV6CgOA3TkL505LIk3LuSJD1fASM2/dHexAgaAJK3yHaMTAACovPvW7ijJojMABEm4gB0YMUu44AT5SnRvdAKqiwE6imG6JzoBlbK30v5toiOAttBoviA6AUCrGLdTdAEAAJU33LFDdAKAQK6DoxOAtmHOOSvky+wv0QmoLgboKIZz5Q9ylcjUEx0BtIXMDo1OANAiPGMFOgAARWto5+gEAKH4Dg6MlGt6dAIqZthZyInCMEBHURigI1/GByxgRMz58g5gvUysQAcAoGjOLVOAmttJ6dK9oiOAlrfgkj0l7RadgUpxTd7+vugIVBcDdBSDFejInTFABzYlXdwhqSs6A0CLSDihDwBA4czYwh2ouyThQnZgU5qd06ITUDnLddx+a6IjUF0M0FGMhAE6cjdNqfOeBTyTZMLBkraMzgDQIrJk1+gEAAAqL3OOtwBY9AFsimVcaIKcOTMoFIphFIqR2Z+iE1A5k5QsnRIdAbQ004zoBAAtxJzt8QAAKJpp9+gEAOFeEh0AtDxLOGeFvDGDQqEYoKMYDd0ZnYAqarwqugBoaW6HRycAaCFmnNAHAKBo7ntEJwAId7DSS7h9ErAx6dCz5P7C6AxUjd0RXYBqY4COYgw3efNCEY6IDgBaVnrtOEkvjc4A0EKcFegAABSOC9YASImsk0UfwMYkzcPFLAp5cxZxoli8aaEYu3TeJakZnYHKeanSoYnREUBLspWHSdoqOgNAS9lB6eLx0REAAFTW+otYd4rOANACEmfRB7BxvD6QP3MWcaJQDNBRjGO71kl2b3QGKme8GhkrbIGnxZd1AE9hamy9a3QEAADV9fCzxbk1AJLkOlzuFp0BtJz1rwtuOYj8sQIdBeNDPgrkvIEhf579n+gEoCUl4rUB4Gn43tEFAABUlhnHWQCP20kLB18cHQG0nPn9h0jaOToDFeQdzJ9QKAboKJDdGl2AKrLXK3Xeu4ANpUP7y3VQdAaAFuTZc6ITAACoroTjLIC/yfwN0QlAy0kSXhcoQqZt1t4eHYFqYwiFAmV/jC5AJe2mjmXToiOAltLIjoxOANCiXPtEJwAAUF2+b3QBgFZis6ILgBbEOSsU4U86/tDV0RGoNgboKFByc3QBKirjgxfwd5zXBICNMLEyDgCAophxnAWwoX3Uu+yQ6AigZax/PewXnYFKYvEmCscAHQWym6ILUFX+RrlbdAXQEvqWPU/y50dnAGhRJlbGAQBQFGMFOoAncecCd+BxvB5QGGOAjsIxQEdxGk3exFCU3dQ3OCM6AmgJWfaW6AQALcy1LxedAQBQEG6VAuDJzN/E529AkrvJnNsaoCDO7scoHAN0FOe0afdKejg6A1XlR0cXAOHcTaa3RWcAaGlbauGy3aIjAAConAWDu0vaJjoDQMvZR70DL4+OAMIt6H+ZxI5oKIixAh3FY4COorGNOwpiRyrt52QF6q134B8kVr0A2ISmHxidAABA5TTtoOgEAC0qsWOiE4B4CYufUJym/SE6AdXHAB3FMl0XnYDK2lKWvCk6AgiViC/lADYtEQN0AADylmQviE4A0KJcb9BHf79ddAYQ5vShbeV6Q3QGKmtYkyexcBOFY4COol0bHYAKM2d4iPpKl0yW2z9HZwBoB35AdAEAABX0/OgAAC1rvIY73xodAYRZl71V0sToDFTWTTpuvzXREag+BugoGgN0FKlHC5Z1R0cAIZLGuySNj84A0AYyY4AOAED+GKAD2Di398jdojOAEO7HRieg0pg5oRQM0FE03sxQrCz7QHQCULqzhjolvS86A0CbME2JTgAAoFLOGuqU63nRGQBa2hT1Dh4eHQGUbn7/qyQdHJ2BCnNmTigHA3QUq9l9u6SV0RmotFlaMLh7dARQqnuyWZL4vQcwUttxrAQAIEd3+/MkbRGdAaDFmY6PTgBKZ3ZCdAIqjwE6SsEAHcVKLZN0XXQGKq1DmbMSF/Vi/sHoBABtxpuHRCcAAFAZSfOg6AQAbeFVSpfxfoH66B2cIomdF1AsdwboKAUDdBTP/IroBFTeu/Wxi7eOjgBK0bf05ZJeHJ0BoN0kDNABAMiLGwMxACNhajir0FEfphMkWXQGKm2VDrzjxugI1AMDdBTP7bLoBFTedlrT+f7oCKAUnsyNTgDQhlwvjE4AAKAyjHu7Ahgh96OULtsnOgMo3IJL9pT7v0ZnoPKu1KxZzegI1AMDdJQguzy6ALVwgtL+baIjgEIt6J8haWZ0BoC2xAp0AADy8/zoAABto1NJdlp0BFA475wnaVx0BqrOmTWhNAzQUbyt/CpJw9EZqLzJSpLjoiOAQjVtYXQCgLa1h9Ilk6MjAABoe6cPbStpj+gMAG3l7eob2jc6AihM39C+cn9bdAZqwBNuF4zSMEBH8Y4/dLVk10dnoA78BKWXT4quAAoxf/CVMr00OgNA2zI1kmnREQAAtL11wz3i/q4ARqdDPjw7OgIojDfnSuqIzkANWMbtglEaBugoCVtroBSTlKw9MToCyJ27yZzV5wA2T2aHRicAAND+bHp0AYB2ZEepd3BKdAWQu3TZQZK49znKsE7Z6mujI1AfDNBREhuILkBtHK906V7REUCuegeOktQTnQGgzZkYoAMAsLncZ0QnAGhLHZJ/NjoCyF2SfVJSIzoDNeB+udKZj0ZnoD4YoKMcWbM/OgG1MV5J46PREUBuzlgyQWYLojMAVEK30sVsqwcAwFgtWtSQrDs6A0DbeqX6+v8xOgLITd/AayQdEZ2BmjAxY0KpGKCjJI9eJWlldAXqwt+sBf2sCkA1PNI4SdIe0RkAKmFLJRMOjo4AAKBtXbfX8yVtE50BoI25PqWzhjqjM4DNli7ukOv06AzUiBsDdJSKATrKkc4cluvS6AzUSGZnKHXe49De0qE9ZPpQdAaAKkleEl0AAEDbSrgdCoDNZfvrL8Pvja4ANltj4vslTYnOQI0krEBHuRguoTxssYFyTVVj8D+iI4DNkmSfk7RldAaACrGME/8AAIyZcyEagM3n1qcFg7tHZwBjlg7tIdf86AzUyl80p+fW6AjUCwN0lMcZoKNkroV8IUHb6h2cJflrozMAVIwbA3QAAMZuenQAgErYWpk+Hx0BjFnS/IKkraMzUCtLowNQPwzQUZ7OzosleXQGamVrZf7l6Ahg1E4f2lbSp6MzAFTS7lxcBgDAGKQXP1vS3tEZAKrCX6u+/jdGVwCjNn/wTZJeE52B2vlddADqhwE6ynPqi+6TdF10BmrnH9ev5AXayNrmJyV/dnQGgIpqcv9WAABGrdHB8RNAvtzO1Ed/v110BjBi6ZLJMv9MdAZqKGGAjvIxQEe5nDc6RPAvPLZaAGh9fYOvlnRMdAaACuM+6AAAjJ4n3P8cQN520botvhodAYxY0vEFSTtHZ6B2HtZzb788OgL1wwAd5TL7TXQCaulZSjq/LneLDgGe0cL+neT+TUn8rgIojtlLoxMAAGg/flh0AYAq8jeod/Co6Apgk+YP/Jvkb47OQC1drFmzmtERqB8G6ChXxgp0hDlCfcveHx0BbJS7qWlnS9oxOgVAxbkO1sKhXaIzAABoGx+5bAdJh0RnAKgq/5ydirIAACAASURBVLzSpXtFVwAb1Tewt0xnRmegtn4bHYB6YoCOcqXd90i6MToDdeUfU7rsoOgK4GktGHivpNdEZwCoBdNw8/DoCAAA2sbw8BHiHBqA4myrJDlHixY1okOAp0gXdyjTf0vaJjoFdZUxQEcIPvyjfG6/ik5AbY1Xkv1Apw9tGx0C/J0Fy7rl9qnoDAA1kuiI6AQAANqG+aujEwBU3mG6fs+F0RHAU9iE02U6NDoDtbVc2aOXRkegnhigI0D2P9EFqLXnam12DvdDR8tIl0xWlp0raYvoFAA14jqCFS4AAIxA6olcr4rOAFADpg+rr/+N0RnAE/oGXiez46MzUGf2a6Uzh6MrUE8M0FG+8cP/K2lddAbqzF+rBYMfjq4AlHqipPEdSXtHpwConcm6Yfeu6AgAAFpesuzFknaMzgBQCya3byjtPzA6BFDfsufJ9U1JLEJCoOyi6ALUFwN0lO+kGY9I6o/OQM25Fmr+4CujM1BzycBCiW2UAQSxhO1oAQDYND6vAyjTVkpskT528dbRIaixtH8befYjcd9zRDNjN2OEYYCOIM590BGtIfMfKl12UHQIamr+wFskOyk6A0CNOQMBAAA2LeOCMwBlm6I1nYuULu6IDkENLVrUUGLflnRAdApq7w+a03NrdATqiwE6gviF0QWApG2UZD9Vegnb8aFcfQOvkOm/xDZYAGJ1K10yOToCAICWlV4+SbKe6AwAtfRq2cQzoyNQQzfu8SVJr4nOAOSsPkcsBuiIkU1bJune6AxA0t6yjp/pE1duGR2CmuhbeoBc35c0LjoFQO01ZB2vio4AAKBl2dpXSWIFKIAYpveob/CE6AzUSO/gyXJ7d3QGIElKdEF0AuqNATpipJZJ/ovoDECSZOrS6ke/xdZYKNyCJbvKk59L2i46BQAkSca2tAAAbFTC7U4ABHP/uHoHZ0VnoAZ6B94q+UeiM4DHrFRz5W+iI1BvDNARx5LzoxOADfyLkolfU+q8L6IYH7lsB2WN/5G0V3QKAPyNHSF3bicBAMCTuZucATqAcInk39L8gX+KDkGF9S19rcStBtFSfqV05qPREag3BkWI01x5kSTeBNFK3q5k8KsMEpC704e21fC6X0g6IDoFAJ5kF/UNHRodAQBAy+kbnCZpt+gMAJA0TqYfav4AF/Ugf/MHXylPviepMzoFeIKLxZcIxwAdcdKZKyT9NjoDeJKj1bvs09ERqJB0aKLWNs+X9OLoFAB4Wu5HRicAANByXBwfAbSS9UP03oHDokNQIQv6p8n8x5LGR6cAG3D5Om7/i3AM0BHLnCuJ0HrMP6D5Ax9nJTo2W9q/jZLmLyXxBRdA6zJ/I7cwAQBgA+4m0xujMwDgSSZKOl8L+mdEh6ACegcOU2YXStoqOgV4kiGlM/4cHQFwogyxmskPJGXRGcBTmE5U7+CXGChgzD76++2U2EVieA6g9e2qjgG2cQcA4HHrb2+ye3QGADyNbZXZherrPzw6BG1sfv9MST+XtE10CvBU9sPoAkBigI5oafc9cvVHZwBPy3SsksFvKV3cEZ2CNrOwfycNj/uNpJ7gEgAYmYxtagEAeAK3NwHQ2ibK7Xz1Db4+OgRtaP7g/5XZz8XKc7Qqsx9FJwASA3S0AtMPohOAZ/BWJRO+pzOWTIgOQZvoG9pXTbtYrhdEpwDAyCVs4w4AgCSlnsj8DdEZALAJ4+R+rnoHj4oOQRvpHXyHzH8o7nmOVmW6SnOm3hidAUgM0NEKEjtPkkdnABtnr9eKxmKll+wYXYIW17u0R95cIuk50SkAMDr+bHUs416KAAAkgy+RtFt0BgCMQKfk52j+QCp3i45BC3M3zR9IJf+6JHbaROtyOy86AXgcA3TEm919p6Sh6AxgE3qUdCxVOrR/dAhaVN/g66VksSQutADQnjK2qwUAQM5tTQC0FZNpnhYMfkPpteOiY9CC0mvHacHgN2WaJ4kLLdDarMluxWgZDNDRGtjGHe1hHyXNS9Q7+LLoELSYvoGT5H6eJLb6B9DO3sA27gCAWks9kRnbtwNoP65/U7LiF/ro77eLTkEL+cjA9kpWXCTX26JTgBG4VnOmXx8dATyOE2RoDc3GdyVl0RnACEyW/FePDUy5arPu0sVbqa//XLlOF8dUAO1vFyXLDouOAAAgTLLsMMmfHZ0BAGP0Cq0bd4V6B6dGh6AF9C47RMNaJomFQGgX34kOADbEyX60hrTrDrkujs4ARqhDrtPVt+w7ShdvFR2DIOnQ/komDsjtTdEpAJCfbFZ0AQAAYdi+HUD720Py36p34O3RIQg0f+AYKVsiae/oFGCEXKbvRkcAG2L1JFpH38Cxcn05OgMYpWtlyRs0Z+qN0SEoUV//G+X2NUnbRKcAQM7u16TJu+q4/dZEhwAAUKozb9pCyx+4S9L20SkAkAvXl7Td5A/y2b5GzlgyQSsaZ0p6V3QKMCquJZrX85LoDGBDrEBH6+hYu0gSH+jQbqbIs8vV1/8BtnSvgTOWTFBv/2fldp4YngOopu21/P5/iY4AAKB0649/DM8BVIfpPVr+wKVKB18YnYIS9A5O0YrGUjE8Rzsy+3Z0AvBkDNDROk457EHJLozOAMZggtw+o77BX2jh0C7RMShI7+BUrWhcIdlx0SkAUCzjhAsAoI6OiQ4AgAJMUeJL1TdwklJnFlBF7qa+/g9Ifqmkg6NzgDEYVrbu+9ERwJOxWhKtZf7AkTItis4ANsM9Mr1bc3ouiA5BTs4a6tRfspPlPkdSZ3QOAJTAZY39NKfr5ugQAABK0Tewt1x/FAtNAFTbRcr8GKXT/hQdgpwsuGRPZR1fk/TK6BRgM1yguT3/NzoCeDK+GKC1+FY/kfTX6AxgM+ws1/nqHThfC5bsGh2DzdS77BDd21wq914xPAdQH6as+c7oCAAASuN+tDhHBqD6DldiN6pv4CQtWtSIjsFmSD1Rb/+/K+u4WgzP0e7MvhGdADwdVqCj9fT2f5YtklERyyU/SXN6viozj47BKKRDE2XNuTJ9SBJfKgHU0T3KVu2udOZwdAgAAIVatKihG/a8VdLu0SkAUBqzy9Rsvlvp9MuiUzBKaf8LlNhXJPVEpwA5+KsmTd5Nx+23JjoEeDKurkXryRKuOEJVTJLsLPUt+1/1DnAPonbgburtf7OS5g0ynSSG5wDqa2c1xv9jdAQAAIW7fs9Xi+E5gLpxf5GSpF/zB05X2r9NdA5GIL18kuYPnKHELhXDc1THOQzP0aoYoKP1pN1XSLo8OgPIj79c0mXqGzhH6eDO0TXYiAUDXeob/K1k3xUn0ABA8sYx0QkAABTO9K7oBAAI0inTSUrsFvX1f4Bt3VtU6ol6B96uZO2NMn1QUkd0EpCbzL8ZnQBsDFu4ozX1DrxP0ueiM4ACPCzTR7Rl80wdf+jq6BhIWjC4u7LsI5L9qzguAsCGhpWt21PpjD9HhwAAUIh0cGclfoekzugUAGgBV8rtBM3r/nV0CB7TN/hquX9S0pToFCB37oOaN43dFNCyWIGO1tS59tuSVkVnAAXYRq7TtaJxs/oG3q908fjooNpasGRXzR/8vDK/SbKjxPAcAJ6sQ0nnO6IjAAAoTMP/TQzPAeBxB8v8V+odXKwFgy+Njqm1+YOvVG//xXL/hRieo7KSs6MLgGfCsACtq3fga5KOjs4ACnaXzD+qbbc/m/u9lCS9+NlKOk6S7N8lcQEDADyzW5R176fUsugQAABy5W7qG7xR0n7RKQDQon4tJfM0d+ol0SG10bf05cqS+TJxAQOq7iFNGL+rTjx4ZXQIsDEM0NG6Fgx0KdOy6AygJHdJ9nl1rjlLpxz2YHRMJfUtPUCyD8rtbWJwDgAj5/46zZv2k+gMAABy1TfwGrnOj84AgDbwW1l2hprTLuDC2gKknqix7HXy7HjJXhKdA5TC9TnN6zkuOgN4JgzQ0dp6BwYlTY3OAEr0qEznqdn4iNKuG6JjKmFB/wxldpKkfxLHPQAYPdfvNK/nZdEZAADkqnfgN5I4vgHAyN0s889p/ISzWTWag3TxVkomvFXSByXbPzoHKJcdpLnd10ZXAM+EQQJa2/z+d8rs69EZQIBM8gvl+pp86/OVTlkbHdRW0qFnKRk+SrJ3iXtFAcDmSzRVs3uGojMAAMhFuvRFSpJLozMAoE09KPm3JPu65vZcGR3TdtKlL5I1jpb5v0qaFJ0DBPit5va8PDoC2BQG6GhtZyyZoBWNP0maHJ0CBLpP0reU+deUTrsuOqZlLVrU0I17vUrux0h6raRx0UkAUB12ruZ2vyW6AgCAXPQOfFvSW6MzAKDtuYaU2NfV7Pyu0kOWR+e0rHTJZCWNt8p0jFwvjM4BQrm9WfO6vxedAWwKA3S0vt6Bj0n6cHQG0CKuk+s8Jdn3NGf69dEx4VJP1DFwqDIdKdmRknaJTgKAihpWMvwczX7J7dEhAABslrR/NyV2i6TO6BQAqJA1kv5H0nka1/iJTu56KDooXHr5JCVrXyvpSEmHi4UegCTdpZ0ae+vYrnXRIcCmMEBH61swuLsyv0VSR3QK0FJMV8n9B0rs5xruvkypZdFJpUiHJsr8ZbLstZL+RdJO0UkAUBNnaG7PCdERAABslt7BT0j+oegMAKiwNZIukvzHyoZ/qXTGn6ODSrP+PPYRWn++6h/E0Bz4e6aTNafnY9EZwEgwQEd76Os/V25vis4AWth9Wn+l74VqNP5Hp3XdHR2UG3fT/IHnK9Hhko6Q7DBJW0RnAUANPazMd1c67eHoEAAAxiTt30aJ3SFp2+gUAKgPu1rShTK7UM0VFyud+Wh0UW7SoYmy5mGSjpDpCEkHRicBLWylsuYeSg99IDoEGAkG6GgPCwa6lGlZdAbQRu6W6WLJL5HpUu3QMdA2W+OkQxPVMfwiuV4s2UvkminpWdFZAABJ0gma23NGdAQAAGPSN3iC3D8ZnQEANTYs6UrJL5HsUmXZ75ROvy06asQWDu2i4axL8pfIfIZkXWKRBzAybl/QvO73RWcAI8UAHe2jd2CJpOnRGUCbekTSNZJdLfNrJF2rZuMqpV1/DStKPZGG9pI1ny+zKTJ/gWRT5Npf3LIBAFrVHcpW7at05nB0CAAAo5Iu7lAy8Y+S9oxOAQD8nTslX3/Oyv0aWeMaTZp0nY7bb01Y0RlLJmhFcqDcDpI0RaYXSDpI0q5hTUB7y5TpAKU9f4gOAUaKATrax/yBI2VaFJ0BVMxDMt0u1+2S3yqz2+R+t1z3yxp/VbL2AQ2vvV/pzBWjetSPDGyvtdpeHT5ZTdte8smyZE/J95R8L8n2lLSHuEoXANqQv0Vzp50bXQEAwKj09r9Zsu9GZwAARsQlu1vKbpXsdrndrsRvl3SvzB5QpvuV6X5pyweUTlk74kc986Yt9MhDk7XOHztn5dvLtNP681XJXuv/U3tJ2qWY/1tAXdlPNbf7n6MrgNFggI72sWhRQzfseb2k/aJTgBpyScsf++9rJK160t9P0vpjSqekrUrsAgCUzewyzZ7aJTOPTgEAYETcTQuWDcn9RdEpAIDcbXie6hGt3yb+cRuep9pS0rgSuwA8LrGXaHb3kugMYDQYoKO9zB98t8y/Ep0BAECLaUpqREegRlyv17yeH0VnAAAwIvMH/kWmH0ZnAAAA1I7rd5rX87LoDGC0kugAYFS22+4cyf4cnQEAQEsxnRKdgJpJ1KvU+S4BAGh97ibTvOgMAACAekpOjy4AxoKTXmgvx+23Ruafic4AAKCFXKdm96ckXRcdghpxHSQbfEN0BgAAm9S37EhJB0dnAAAA1I7pKs3t+mV0BjAWDNDRfsat+7KkB6MzAABoDd6n1DK5fhZdgpoxpaxCBwC0tNQTyVl9DgAAECHT6TLz6AxgLDjhhfZz0oxHZPbp6AwAAOL5Ddr/jvMkSQ27IDgG9XOgksE3R0cAALBR649TB0ZnoHZujQ4AAKAFXK8Dbl8UHQGMFQN0tKfmyk9L+kt0BgAAsZKFmjWrKUl67m2XSLo/tgc1lCpd3BEdAQDAUyxa1JB8TnQGaseV2eslPRIdAgBALEufOGcFtCEG6GhP6cwVkj4VnQEAQKCbla0894n/NWtWU6aLAntQT/spmfjW6AgAAJ7i+j2Pkmz/6AzUjOtSpd1XyHVmdAoAAHHsamVTvx9dAWwOBuhoX1s1PyfprugMAABCuC9UOnP47/4sM+6DjghzddZQZ3QEAABPWLSoIdOp0RmoIbOfSJJ83CclPRgbAwBAEGvOVmpZdAawORigo30df+hqmT4WnQEAQIBbtXPHfz/lT334F5KGn/rjQKH21T3Nt0dHAADwhOv3fIek50ZnoIay7KeSpPSQ5TJ9NrgGAIAIyzR72vnREcDmYoCO9rbt5K9IujM6AwCAkqU6tmvdU//00Ack/bb8HNSeabbOvGmL6AwAAHTmTVvINDs6A7V0q9JpVz3xvzobn5H0QFwOAAABXHNk5tEZwOZigI72dtx+a2RaGJ0BAEB57Gpl3U9dff63v/9heS3AE/bS8gc+EB0BAICWP/hBSXtFZ6COHtu+/XEndz0k0xlBMQAABPBLNK/nwugKIA8M0NH+dmx8XdIt0RkAAJTC/NRnvI9UtvbHkrjPFCKcpoX9O0VHAABqbGH/TpKfEp2BmvLHtm/fUHPVZyXdV34MAAARktOiC4C8MEBH+1u/he386AwAAArnulhzei54xp9JZ/xZ0kA5QcDf2UZNWxAdAQCosfXHoW2iM1BL98lX//4pf5rOXCHTRwN6AAAomf9Kc7u5rSAqgwE6qmH/278t6froDAAACmXJySP7Of2o4BJgY45Wb/+LoyMAADWUDr5Q0jujM1BX9iOlM4ef9q+aW31B0h/L7QEAoGSJ5kQnAHligI5qmDWrKVkanQEAQIHO19ypl4zsRxvcBx1REin5ZHQEAKCGEv+MpEZ0BmrKs+9v9O/SKWslY0tbAECVXaDZ0/qjI4A8MUBHdcyZep5cS6IzAAAoQFNZcuqIf3pO180yXVVgD/AM/OXqG3x9dAUAoEbm979B0suiM1Bb98tXL37Gn1h/zorBAgCgitbJsg9HRwB5Y4CO6jBzmf2npCw6BQCAfPm3lE69ZpT/aFEhKcBIuH9CZ960RXQGAKAG0sXjZfbx6AzUmOnHG92+/YmfMZclHyqpCACAEtkXNGc6t9dF5TBAR7XM7V4m+TnRGQAA5GiFsuExbPnYODf/FGDE9tFDD/xndAQAoAYaEz4oaZ/oDNRYpvNG9HNzp14i2Q8KrgEAoEwPKBvui44AisAAHdXT0MmSHo7OAAAgH7ZQ6Yw/j/qfzem6WdKl+fcAI+Q6TQuHdonOAABU2ML+neR2cnQGau1B+VbPvH37hjL7sKQ1xeUAAFAi06lKD30gOgMoAgN0VM9p0+6V7KPRGQAA5OBmTdru02P+16bv5dgCjNbWajYXREcAACosSz4qaZvoDNTaj5ROWTvin06n3iL5WQX2AABQliv1vNvPjo4AisIAHdWUbXmGpJuiMwAA2CyWHa/j9hv7ChWzcyV5fkHAqL1TfQOviI4AAFTQgsGXyv0d0RmoObfvjPrfdK5LJd2XewsAAGWy7D81a1YzOgMoCgN0VFM6Za1MH47OAABgM/xac6b/dLMeYXb3nXItzakHGAuT60tKF4+PDgEAVMiZN22hzL8syaJTUGt364DbfjPqf3XKYQ/KdUr+OQAAlMR0nuZM/010BlAkBuiorjk9P5Z0UXQGAABjMCw1P5jLI5mxjTuiPVfJhNOiIwAAFbL8gbmSDojOQM25zh3zyjvv/obEha4AgLb0qJoZixdReQzQUW1ZcoKk4egMAABGx7+ouYdenctDNZLzJLGlFoLZSepd8vzoCgBABaw/npwYnQHI7Ltj/repZcqy94nP6QCAduP6lNLpt0VnAEVjgI5qS6deI7ezojMAABiFex+7L2I+Tuu6W9Kvcns8YGw6pcZXlTrfPwAAY7doUUNqfFVSZ3QKau8Pmtu9bLMeIZ1+mVxfyakHAIAy3KWJ4z8aHQGUgRNYqL5OnyfpL9EZAACM0PE65bAHc37Mc3J+PGAsepQse190BACgjd2w139I6onOAOQa++rzv3uc5mxJ9+XyWAAAFM4/pBMPXhldAZSBATqq79Se++X6z+gMAABG4CLN7flO7o+aNX4s6ZHcHxcYNV+gdGiP6AoAQBtKh/aQfGF0BiBJcuXzmT099AG5TsnlsQAAKNYFmjvt3OgIoCwM0FEP83q+K+mC6AwAAJ7BamXJewp55LRrleQ/KOSxgdHZWknzi9ERAIA2lDS/JGmr6AxA0lKlPX/I7dG8+xtyLcnt8QAAyN8jSuy90RFAmRigoz6ydcdKeig6AwCAp2e9SqfeUtzD27cKe2xgdP5Jvf1vjo4AALSR+QNvkfSP0RnAev5fuT5capmS5GhJj+b6uAAA5MZO1uzuO6MrgDIxQEd9pDP+LPPTojMAAHgqu1o7JZ8q9Cma3b+RdEehzwGMmH1W6SU7RlcAANpAesmOMn0mOgN4zGqN6/he7o86Z+qNknGLAgBA63FdrGzql6MzgLIxQEe9NHu+JNfF0RkAAGwgk/xYHdu1rtBnSS2T27cLfQ5g5HZU0vE1uVt0CACghbmbko6vSeKiK7QG0491clcxuxvulHxMpqsKeWwAAMZmjZLs35VaFh0ClI0BOuoltUzeeLekNdEpAABIklxnaW7P0lKeK8m+IclLeS5g016jBcv+X3QEAKCFrT9OvCY6A/ibnLdv39CxXetkOkZSs7DnAABgNMwWas7066MzgAgM0FE/adcNMrbFAgC0hNs0ft1JpT3bnGk3yfX70p4P2BT3M5QuOyg6AwDQgvqWHiD3T0ZnABu4S8+749eFPsPsniG5zij0OQAAGBG7Ws0tPxZdAURhgI562jE5XbKrozMAALWWyf1onTTjkXKf1s8u9/mAZzReDf+m0mvHRYcAAFpIeu04efJtSROjU4AnuJ2jWbOKXx3ujVTSHwt/HgAANq4pNd+tdMra6BAgCgN01NOxXeuU2LvEtlgAgDD+ec2btrj8p+34gaRi7tsIjIX7i5Ss6IvOAAC0EFuxQNIh0RnABlw+/PVSnintWiXL3i2J+80CAGK4ztTc6QPRGUAkBuior9lTB+X+megMAEAt3aSs45SQZ067Vkn6bshzAxv3Ic3vnxkdAQBoAX0Dr5DphOgM4O/5r5UeWt6q8DnTfyPZmaU9HwAAf3OzJo6fEx0BRGOAjnrbbvvTZLoiOgMAUCuZpGMeG2THSPS1sOcGnl4is28pXTI5OgQAECi9fJJc3xDnq9Bq3L5S+nNO2u5kbj8IACjZsKS36cSDV0aHANH4QoJ6O26/NXI7StLq6BT8f/buPMquqs7b+LPPrQTCPMjggKKiYqMiWKkqEtCOE/iCiig4IQqitNqigghCDSdVYRI6KtoC4iwqBnEABwQUhZBUVdIgAg2CgmAjk9JMSUhS9+z3D+hu1AAZqup3h+ezFsuVxTJ5YC2Se+/37rMlqW2cSn/35aEFvd2LgatDG6R/9HSK2unREZKkQMWKs4BnRmdIf+du8kY/mvRf9fDnLafiIMD7ZyVJkyOlQfq7F0ZnSI3AAV3q77qOlI+KzpAktYXr2GyL/uiIRwScopGe3AEMjr4nOkKSFGBw+BDgLdEZ0ip8jXKnmBG77PoNpIGQX1uS1G4u5wV/PCE6QmoUDugSQG/3F4AfR2dIklracqp0IIc/b3l0CABVdTbwYHSG9I/yv1MOvyS6QpI0iQZHdob0uegMaRUyVf2s0IId/3gKEPsEK0lSq7uPYuxdHHBAPTpEahQO6BJASpmOKYcAd0SnSJJaVOKoR06QNIiy5wEyZ0dnSKuwAUX6ESeMbBkdIkmaBCdevjlwHrBBdIr0j/IvKGf8PjThgAPqJN4NPBDaIUlqXZkP0jvz1ugMqZE4oEv/49hd7yGlQ4AcnSJJajkX0Nv1+eiIf5DzGdEJ0uPYnjG+Rpl9vyJJrazMBSunfhN4bnSKtEqJM6MTAOjrvgXSR6IzJEkt6RsMdH8nOkJqNH4gJT1WX9eFkH1snCRpPN1OVTuElBrvC1plz2/JzI/OkB7HPhQjvdERkqQJlEb7gb2jM6RVS39m644fRVf8r/6ur5H4ZnSGJKml3EyVPxwdITUiB3Tp72225SeAq6MzJEktoSKnd1N2/iU65HElTo9OkB5fGmBo+P9FV0iSJsDs4deQ8ItSalwpf4HDOldGZ/yN+tIPAtdHZ0iSWsIYcCBlj1eESKvggC79vcOftxzSO4Fl0SmSpGaXT2Cg6xfRFU+o2uh7wF3RGdLjKMjpbIYW+2hfSWolc654Fil9B6hFp0iPYwVF/lJ0xD8oZz1EVRyAn1lJktZZmk1/98LoCqlROaBLq9LfdR0pHRmdIUlqYpkFVMtmR2c8qXKnFcCXozOkJ7A5uX4ucxdMiw6RJI2DuQumkTt+CGwZnSI9vjyP43oa80um5fRrIX80OkOS1MzSr9jxjydGV0iNzAFdejx9XacD34jOkCQ1pb+Qa2+nnDUWHbJaivoXgMZ6PKX0t3ZhSc3rBiSpFTxUO4PMS6MzpCdU8O/RCU+ov+eLJL4TnSFJakr/RbXyrRxwQD06RGpkDujSE9mo/i/AVdEZkqSmUifnd1B23hYdstp6Z9wOnBudIT2hzLsZHP1gdIYkaR0MDX8IOCg6Q3pCmcX09gxHZzypqSsPA26MzpAkNZXlUL2Fcubd0SFSo3NAl57IETOWkXgzcG90iiSpSaTcx0DPxdEZa6woPhudID25/BmGhl8bXSFJWguzR/Ykp89EZ0hPKvG56ITVcvTuD1Klt+J96JKk1ZX4CP27jURnSM3AAV16Mn3dt5CKtwI+0kSS9CTS+fR2nxRdsVZ6p48CC6MzpCcxhZy+x+DIztEhkqQ1MDi6y53ieAAAIABJREFUE4lzgI7oFOmJpT9TbXROdMVqK7t+Q07vi86QJDWBxDfp6z4zOkNqFg7o0urom34JpDI6Q5LU0G5ianEQKeXokLWWk6fQ1Qw2Bn5COfyM6BBJ0mo4fvFTIf8U2Cw6RVoNn6PcaUV0xBoZ6PqWr+MlSU8o8Rs2rB8WnSE1Ewd0aXX1TT8e0nnRGZKkhrSEqtiPYzrvjw5ZJ3nJecCfojOk1fB0inQ+5aUbRYdIkp5AuXgDxsZ+CDwzOkVaDUvpyGdFR6yVvOTjwKXRGZKkhnQvsB9HzPDKD2kNOKBLqyulzNTivcCN0SmSpEaTD6Wcfm10xTorZ40Bn4/OkFbTLhQbnMO8ebXoEEnSKsybV6OozyOlrugUabXk9FWO7f5rdMZaKWeN0THlrcCt0SmSpIZSJ+e30dd9S3SI1Gwc0KU1cUzn/ZD2Ax6KTpEkNYjMKfT3NM89iU9mau1M4IHoDGk17c312/vIUklqRDc88zRg7+gMaTVVFFVzv6Y4dtd7oHgT4AlDSdKjUi8DPRdHV0jNyAFdWlP9XddBei/QvHfcSpLGSTqf3HVMdMW4euTLYl+MzpBWW8ofYnDkiOgMSdJjDI0eCemD0RnSGriAvp6boiPWWf/0q8jpfdEZkqSG8AP6pp8cHSE1Kwd0aW30d80jMxidIUkKdTXVkndSpio6ZNwVY58BVkRnSGvgFGaPvCk6QpIEDI3uR86fis6Q1kiRT41OGDcDXd+C1Dr/PJKkNZfSlVRLDyIlDwFKa8kBXVpb/V2zgW9EZ0iSQtxFVXsD5azWvNKjd8btkL8dnSGtgYLE2cwZnREdIkltbXDRTHI+Gz9vUlPJV9DbMz+6YlxV048GfhCdIUkKcRtFsU/LfmYlTRLf0EhrK6XMNrVDIV8SnSJJmlQPA2+i7LwtOmRCVR0nA613ul6tbAOq/FPmjHRGh0hSWxoc2RmqC4Bp0SnSGknppOiEcVemio3q7yQzHJ0iSZpUD1Dl13Nc5x3RIVKzc0CX1sVhnSupeDOka6JTJEmTIkN6H/3dC6NDJlzZeQPw0+gMaQ1tSsXPGBzdKTpEktrK0KIXAD8HNo9OkdbQ9dS7WvM17xEzlpHTm4Bbo1MkSZNiJTm/hbLnt9EhUitwQJfWVdnzAFX9DcBd0SmSpImWj6e/6+zoiknk/aVqRk+BfDHlgh2iQySpLZQLdiBXlwLbRKdIay6dQJla96lLZdedkPYG7o9OkSRNsJwPY6Dn4ugMqVU4oEvjodztj5D3BpZEp0iSJkjiW/R190dnTKr+7svJXBadIa2Fp1LUfkm5cPvoEElqaeXwMyhqFwFPjU6R1sItVEvOiY6YcP1d15GqfYEV0SmSpAmS8xADPV+NzpBaiQO6NF76e/6DzFuBenSKJGm85Uuob3QIKeXokklX5OOjE6S1tB1FcTHHL3bUkaSJUF6xNQUXA8+OTpHWSsr/RjlrLDpjUvTt9ivIH4jOkCRNgJS/S3/3QHSG1Goc0KXxNND9E1I+MjpDkjSOch5l2rR9KXdqzxMbfT0XkfNodIa0lnagXv2cE0a2jA6RpJZywsiWFFMugbRjdIq0lu5iw+or0RGTqr/nK5AGozMkSePq12y65bvb8sCHNMEc0KXx1tfzWcinRWdIksbF78n113PUzu19RYen0NXU8oupcwknXr55dIkktYRyeBPG+BnkF0enSOvgUxwxY1l0xKTr7xqA9JnoDEnSeMg3UNX34/DnLY8ukVqRA7o0EXa87QgS34nOkCStkzuoqtdQzrw7OiRcb88FwNXRGdJay7yUlVN/xClXbxidIklN7ZSrN6RIPwamR6dI6+BuqtoZ0RFhqulHQmr9u98lqbXdRlHfi3LGvdEhUqtyQJcmwgEH1HnBre8icW50iiRprTwAxd6Uu/0xOqQhpJQhnRCdIa2jPVj28KWUC7aIDpGkpnTS4k1Z+vBFwB7RKdK6yadQdi6NrghTpoptioMg/yw6RZK0Vu6mqu1J78xbo0OkVuaALk2UAw6os+kW7wIuik6RJK2RZaTqjfRPvyo6pKFU078HXB+dIa2j6dQ6LqZc/JToEElqKuXip7Cy+iWJGdEp0jq6h2nTTo+OCHdY50qmTdufzHB0iiRpjfyVqngVZecN0SFSq3NAlybS4c9bzkb1fYFfR6dIklbLCjL707fbr6JDGk6ZKnKaHZ0hrbOcd6WoX8acBU+PTpGkplCObktR/ZKcd41OkcbBqRy185LoiIZw1M5LWK+2F17VJEnN4gFIr6Ocfm10iNQOHNCliXbEjGVU+Q3AougUSdITWknOBzDQ/ZPokIaVp58L6ZroDGkcvJCq9ivKxc+MDpGkhjbnimdR5Mshvzg6RRoHf6Fa+oXoiIZyTOf9FPW9gZujUyRJT2gpRd6b/i43BmmSOKBLk6HseYCqvheJ30anSJJWqU5O72Kg50fRIQ2tTBU5D0RnSONkB4r65QwNPy86RJIaUjnyfKqOy4EdolOkcZE4lXLWQ9EZDad3xu0UY68E/hidIklapeXkvC+9PfOjQ6R24oAuTZZyxr3Uprwa74+VpEaTgX9hoOu70SFNob/rh/hUFbWOZ5LT5ZTDL4kOkaSGMrTwhRTpUmC76BRpnNzJ+ut/PjqiYfXOvJWq9grglugUSdLfqJN5FwM9F0eHSO3GAV2aTMfueg9F/TX4hkSSGkUmpQ/R3/2l6JCmkVImp6HoDGkcbUORfsXgwu7oEElqCIPDLyMXl0F+WnSKNI6O9+7zJ1F23kYxNgtPoktSo6iAgxjoPjc6RGpHDujSZOudcTtV8Wrg9ugUSWpzmZQ/Rl/X6dEhTWeg6wJyHo3OkMbR5lD8nMGRPaJDJCnU4OgrIP0SeEp0ijSObmWzLc6KjmgKvTNvJeXXQvpzdIoktblM5v30d387OkRqVw7oUoRy+s2k2ivwW72SFCUDh9PX89nokKZV0BedII2zTYGLGBx+W3SIJIUYHHkH5J8Dm0SnSOMqM8Thz1sendE0+npuIqVXAndGp0hSm6pDOoSB7i9Hh0jtzAFditLX+QeK9HLgxugUSWozFTkdRn+3dyCui76ei4BfRmdI42x9SN9maPiT0SGSNKkGR3uBs4H1olOkcXYjeenXoyOaTt/035EqR3RJmnwrIb2D/q6vRYdI7S5FB0htr7xia4qOi4Cdo1MkqQ3UIR3qG5FxMmekk4pRfE2pVpTSV9m6OIzDOldGp0jShCkv7SBt8HkSh0WnSBMjv53+nnOiK5rW0MizyVwCPCc6RZLawHISb6Ov+4fRIZI8gS7FK2feTVV/JZnF0SmS1OL8Fu946+1eDJwXnSFNiJwP5q76jymHfZSxpNZ00uJNKTa40PFcLewqqu550RFNra/7FqraLOCm6BRJanFLyGlvx3OpcTigS42gnHEveeksfBSuJE2UFaT0Nvq7/ABtvFUcB3hCV63qtdTSFcy54lnRIZI0ruYseDor678CXhWdIk2YnI+mTFV0RtMrO2+jlvcAro5OkaQWdT9Fei0DXb+IDpH0fxzQpUZRznqIaeu/AdLF0SmS1GKWkYt96ev6fnRISyq7b4T01egMacJkXkQ1ZQHlwl2jUyRpXMwZ6aSqLSbz0ugUaQJdxECPn6+Ml+N67qKqvxJYFJ0iSS3mL1TVK+ntWhAdIulvOaBLjeSonZdQbbgPZEceSRof9wF7MjD9Z9EhLa1aMRtYGp0hTZz8NIriMmaPvj66RJLWydDoXlT8Etg2OkWaQBUUx0RHtJxyxr1MW38W4AlJSRofd0H9lZS7XRkdIukfOaBLjabcaQXbdLyNlL8bnSJJTe52qmIP+rsvjw5peeXufwY+E50hTbANSfkHDI58gpxTdIwkrZGcE0PDnyTnHwMbR+dIE+xs+qdfFR3Rko7aeQlV7Q2Q/YKyJK2bW6nqu9M/45roEEmr5gc/UqOaN6/G9dt/lpQ/FJ0iSc0n30BR34vembdGl7SNk+dvzPIpNwHbRKdIEy+dx3orDubo3R+MLpGkJ1UOb0KRvg7sG50iTYKHqWovoOy8LTqkpZWXdlDb8IvkfHB0iiQ1n3QNBXvT2/Wn6BJJj88BXWp0gyNHAKfgEyMkaXWNUNX2oez8S3RI2xkcfj+kM6MzpMmRbyDl/ejb7froEkl6XIOjOz16Rdjzo1OkSZE5hYHuT0RntIWcE0OLSsj90SmS1EQuosr7U/Y8EB0i6Yk5yEmNrr97Lpm34N2ykrQa8iWst/I1judBdrzty5B8/JjaRNqRXIwyOHpAdIkkrdLg8Nsgj+B4rvZxD+vVjo+OaBspZfq7BiAdDKyMzpGkhpfSV9mmto/judQcPIEuNYs5wz1U6UfA1tEpktSgvsE2tUM5rNMPbyLNHtmTxIXRGdIkymROJS89lnLWWHSMJFFe2kHa4FMkPhadIk2yD9DffUZ0RFuaPbI3ie8CG0anSFIDykAv/d0nRIdIWn0O6FIzGRp5NpmfAC+MTpGkBpLJDNLfNZuUcnSMgMGRnwF7RWdIkypzGTm9lbLrzugUSW3shCu3Ymzld4BXRadIk+w/qZbu7JfZAg2OTod8AbBNdIokNZDl5PReBrq+FR0iac34CHepmfR130JV353MZdEpktQglpF5KwPdpeN5I0kfB/zwUu0l8XKKvIjBhd3RKZLa1JzRGYyN/QbHc7WjVHzE8TxYf9ciUm0m5BuiUySpQdxLkV7reC41J0+gS83otJvW4757vwK8IzpFkgLdAemN9Hctig7RKgyOfA741+gMKcBy4Fj6uj7tF3skTYoyF9RGjyQzB5ganSNNvnQ+/V1vjK7Qo05avCkr6ufgE6kktbc/kIq96Zv+u+gQSWvHAV1qVjknBkcHSAxEp0jSpEv8ljT2Bnpn3hqdosdx4uWbs3LqjcBTolOkIL+gqL+b3hm3R4dIamHl6LYU+as4VKl9raDixZTdN0aH6DHmzatx/bOOJ3F0dIokBRihGnsD5cy7o0MkrT0HdKnZzR59Jyl/EdggOkWSJkc6n2rJOylnPRRdoicxNHIYmTOiM6RAfyXzPga6fxAdIqkFzR7Zn8QZwBbRKVKYnP+NgZ6PR2focQwOHwLpdHw6hqR2kfg6G9Y/wBEzlkWnSFo3DuhSKxgc2Rn4PvCc6BRJmkCZzKfIXcdSpio6Rqth3rwaNzxrEbBLdIoU7EtMW/+jHLXzkugQSS3g5Pkbs7zjNEjviU6Rgt1BlXek7HkgOkRPYM7w7lTpPGDr6BRJmkArIH2M/q4vRIdIGh8O6FKrOPHyzVk55VuQXhedIkkT4EFyPpiBnvOiQ7SGBhfNhOpyfN0p3QTpnfR3LYoOkdTE5gz3UKWzgedGp0jhcjqQga5vRWdoNZQLt6dW/IjMS6JTJGn8pT9Dfgv93QujSySNHz/IlFpJzok5o58gcwJQROdI0ji5EdJ+9HddFx2itTQ0cjaZd0ZnSA1gjMzxvPDWIQ44oB4dI6mJzJtX43fP+jiZIWBKdI4ULjOf/q6Xk1KOTtFqKi9dn2KDfwcOiU6RpHGTmU9H7QCO67wjOkXS+HJAl1rR7NHXk/I3gM2iUyRpHf2AKr/HxzI2uXL+0yim3ABsHJ0iNYjLqaqDKHf7Y3SIpCZQLnoOqfomiRnRKVKDGKMqdqGcfm10iNbC0OgHyPnTwHrRKZK0btJnqJYcRTlrLLpE0vhzQJdaVblgB4qO70N+cXSKJK2FOpk55K5B7ztvEUMjHyMzNzpDaiBLSQzygltP9TS6pFUqc0ExciikfwM2is6RGkbm0wx0HxGdoXVQLtyVovge8OzoFElaCw9D+gD9XV+LDpE0cRzQpVZ2ytUbsmz5lyC/LTpFktbAX8j5HQz0XBwdonFUXtpBbYNFZF4anSI1mBGov4/+GddEh0hqIOXoS0n5LBKd0SlSg7mTKr/AJ1S1gBNGtmSMbwF7RqdI0hr4PdT38/2b1Poc0KV2MDj8UUgnA1OjUyTpSfyaKh9I2fNf0SGaAIMLu6FYABTRKVKDWUnmU+SlcyhnPRwdIynQ3AXTeLA2QOJIoCM6R2o4mXcw0P2d6AyNkzIXpNF+En34HkFS4/sR1dT3UO5yX3SIpInngC61i3LhrhTpW5B2jE6RpFWokxjiBbfO8VHGLW72yBkkDovOkBrU7yjS++ntuiw6RFKAoZFXkjkT2CE6RWpQF9Hf7WnlVjR7+DWk9A1g2+gUSVqFZaR0JL3TzyClHB0jaXI4oEvtZO6CaTxUnATpw/jfv6TG8V8U6Z0ORm3ixMs3Z+XUG4Cto1OkBpVJnE2Nj3Fs91+jYyRNgvKqzShWngz5ffg+TXo8y0i1F9PX+YfoEE2QE67cirGVXwZeH50iSY9xHVV+B2XPb6NDJE0u35hJ7WhoZF8yZwFPiU6R1O7S+XTkQxyJ2szgyEHA16MzpAZ3J3A0/d3fiA6RNIFmj76elE8Hnh6dIjW0lI+lr+fE6AxNgkfeK5wObBCdIqmtZcifY7MtP8Hhz1seHSNp8jmgS+2qnP80io6vQ3p1dIqktvQwcBR9Xf/u46/aUM6JodGLgVdFp0iNL/+MlI+kb7fro0skjaNy0Yso8lzIr4lOkZrAdVQb7Uq504roEE2SwQUvJtW+TeZF0SmS2tIdpPwe+nouig6RFMcBXWpnZS4oRo6AdDwwNTpHUptI/IZcP4j+GddEpyjQ0OLnkuu/xZMl0upYCfl0qmo25Yx7o2MkrYNy8VNI9UES7wM6onOkJlBB8XL6p18RHaJJNnfBNB7sOIWUP4ifYUuaNOl8OjoO5dhd74kukRTLFx+SYHDRLlD/NqQdo1MktbQxyCexTccgh3WujI5RAxgaOYrMp6IzpCZyLzBAtfQMyllj0TGS1sCZi6dwd/1fyfQBm0fnSE0jcyYD3f8SnaFAs0f2JnEW8NToFEktbRkpHUnv9DN8UqIkgCI6QFID6J9+FVXHy4AzAF8gSJoI10OaQX9Pn+O5/ld96aeB/4jOkJrIFsDnKDa4mtkje0bHSFpNQyP7cFf9GjJzcTyX1sRt5PyJ6AgFG+j+CVNW7ETim9EpklpUSldS5U76uk53PJf0PzyBLulvzRnenYqzPI0uaZxkSGcxbb0jOGrnJdExakDl8Eso0mJgSnSK1HzyJVS1j1FOvza6RNIqDC16Abn6N2Dv6BSpCWVS+n/0dV0YHaIGMnvR60jVF4FnRKdIagnLyHyKvNEJlDutiI6R1Fgc0CX9o7kLpvFgbYDEkXgvn6S1dzNFOpjersuiQ9TgBodPhHRMdIbUpFaS0xeYkoc4tvuv0TGSgBOu3IqVYwOkfBi+n5LWTspn0dfz/ugMNaBywRYUxWchHRidIqmpXUpVfz/ljN9Hh0hqTA7okh7f4KJdSPlL5LxrdIqkpjIGnMa09fs9da7VMnfBNB6q/QZ4fnSK1MQeIOfPktebS7nLfdExUlsqF2xB6vg4KX8Y2Cg6R2pit1HlF1P2PBAdogY2e/iNpHQGsG10iqSmch9wFH1dX/Zx7ZKeiAO6pCdWXtpBscERQAlMC66R1Pj+g6p6P+VuV0aHqMkMLpoJ1WVAEZ0iNbn7SGku9eqzDg/SJCmv2oxi5ccgfxTYJDpHanKZlPeir+ei6BA1gXLBFhS1k4H34ufckp5U/j61jn/luM47okskNT5fWEhaPeWi51DUz4T06ugUSQ1pKYlBXnDrqRxwQD06Rk1q9vCppHRkdIbUIu4l8zlynuuQLk2Q8tKNqG3wITJHA5tH50itIX2R/q7DoivUZAYXzYR8OuQXR6dIakh3kjmcge5zo0MkNQ8HdEmrL+fE0Oi7gLnAltE5khrGTyjGPkTvzFujQ9TkTrtpPe679z+AnaJTpBbyFxKnUq99jrJzaXSM1BJOuXpDHl52KDl9EtgmOkdqIbdTTX2RV5ForZSXdlCb9iFymoPXaEh6RCZxNjU+xrHdf42OkdRcHNAlrbnjFz+Vqn4ymQPx9xGpnd1Ozh9hoOe86BC1kDnDPVRpPlCLTpFazJ2kfBL1ZWdSzno4OkZqSnMXTOOh2geAo4Gto3OkFuOj2zU+yoXbUxSfA/aJTpEUKPEbUvoIvV2XRadIak4OX5LW3uDCbig+C3RHp0iaVA8Dc5m2/gkctfOS6Bi1oMGRk4FPRGdILepOEp+nxhmewpBW0wlXbkV95QfJfBCHc2mifIn+7vdFR6iFDI3uR86fAbaLTpE0qe6B3MuOt33ZKwYlrQsHdEnrJufE4OhbSJwKPDM6R9KE+zFV8RHK6TdHh6iFnXbTetx/72IyL4pOkVrYchLzoDqRvt2uj46RGtLQ4ueSxw6HdCiwQXSO1MJ8dLsmxtwF01hSO5zMccDG0TmSJtRKSF+lKo6j7PxLdIyk5ueALml8lJduRNrwWFL+GLB+dI6kcfefpOIj9E2/JDpEbWLOSCcVC4Ap0SlSi6uAH1HkufT2zI+OkRrC4OgrIB8J7A0U0TlSi/PR7Zp45fAzKDgR0jvx83CpBeWfUXUcQdl5Q3SJpNbhCwZJ42vO6HbkfDyZd0WnSBoX95E4ifpGn6bcaUV0jNrM0MhxZOZEZ0htI6UryfmzVEu/TTlrLDpHmlRlLkiL9oZ8LIme6BypbaR8Fn0974/OUJuYM9JJlT8DaWZ0iqRxcROZ4xjoPjc6RFLrcUCXNDGGRl4JfJrMS6JTJK2VFeR0OrmY46OvFGbevBrXP+syEjOiU6Q280fIn2Vqx1c5pvP+6BhpQpVXbUZt5XvJ+XC8kkqabH+kyjtT9jwQHaI2knNicNE7SPkk4BnROZLWyv3AINvUPsdhnSujYyS1Jgd0SRNn3rwa129/CCn3AdtF50haLRWJb1Gv+il3+2N0jES56DkU1W/wzkIpwlIS55Lyl3y8u1pKzonjF+1BzoeSeQswLTpJakN1ivzP/vmiMOXiDajVP0zmE8AW0TmSVstyyGdS1Y+nnHl3dIyk1uaALmnilddNpXjwPVAMQH5adI6kx5Mvgdon6J9+VXSJ9DcGhw+B9OXoDKnN3UjiK9THvuqHVWpa5ei21Kq3QjqUzIuic6T2lgbp7xqIrpA4ef7GrJjyQTLHAptE50hapZUkzqFelJTTb46OkdQeHNAlTZ5y8QbUxt5HTp8EtonOkfSonEeBYxjouTQ6RXpcQyPzyOwfnSGJOuRLyemL5KU/8K50NbwyF9QWvxKq95PZF5gSnSS1vcxitq3N8LG7aijl4qeQ6h8n8RFg/egcScAjT0k8D/Jx9PXcFB0jqb04oEuafCfP35jlHR+D9DFgs+gcqW0lfgPMpq/7h9Ep0pMqFz+Fov5b4KnRKZL+160kvkpKX6G360/RMdLfKBduT0qHkNLBeMet1EgeJNV2oa/zD9Eh0iqVC7enKGYDBwJFdI7UpipSPpd6R0nZeUN0jKT25IAuKc6Jl2/OyqkfBw4HNorOkdpGZjFFNURvzwWklKNzpNU2e/RVpHwRfpAlNZoK0mXAudSq8ziu567oILWp4xc/lar+lkefWDIT/7yQGk/mPQx0fz06Q3pSQwtfSE7HQnob0BGdI7WJDJxPlfspe34bHSOpvTmgS4p3wpVbMbbyGOADwLToHKllZYYp8hB9PT+NTpHW2uzRE0j5k9EZkh5XHfg1cC4dU87j2F3viQ5Si3vkXvM3k9P+wB44mkuNK+Xv0tfztugMaY0MLX4uuX4McBAwNTpHamEXQuqnv2tRdIgkgQO6pEZSLn4Ktfp7yXwEH9ErjZ/MAkgnMdB1QXSKtM7KSztIG/yaxIzoFElPqoK8kMS5FJzjyXSNm3LBFhS1fYD9gb3wZKDUDG5mam1Xjum8PzpEWivl6Lak/FESHwY2iM6RWkQF/JQiH09vz3B0jCQ9lgO6pMYzd8E0lnS8h5yPAHaIzpGaVAZ+Rs6nMtBzaXSMNK4euZfwKmCz6BRJq20M+CVwLtXY+ZQz744OUpMpR7ellt/46OPZ/xmoBRdJWn0rIO3uqUK1hHJ0WwqOhPwveB2htLZWkPgmFKfQN/130TGStCoO6JIaV5kLaov2JeePA7tF50hN4mFS/ibkT9O32/XRMdKEGRw9APJ3ozMkrZUKuIrMhSR+TrV0IeWssegoNZgzF0/hrmoGVHtB2hN4KX6GITWnxBH0dX86OkMaV+VVm1GseD/wr8B20TlSk7gf0lkUY5+hd8bt0TGS9ER88ympOcwZ3p0qfRx4Pd5rKK3K3SS+QH3sdE/1qW0MjpwFHBqdIWmd3Q/pEsgXUqSf09v1p+ggBZlzxbPIHXuR2Qt4FbBxdJKkdXYBfV1vJKUcHSJNiPLSDtKGb4bqCFLqis6RGtQfIJ3Geiu+ytG7PxgdI0mrwwFdUnMpR55PkY6EfBCwfnSO1AD+E/g01dKzKWc9HB0jTaq5C6bxUG0hsHN0iqRxdR05X0hRu5BNN7ucw5+3PDpIE2Tugmk8WHs5Ke316EnzHaOTJI2rP9HBLhzb/dfoEGlSzBmdQc4fJbMfXjUiQeYyCj5Nvet8ylRF50jSmnBAl9ScThjZkrF8MKTD8J50tZ8VpPwDKs6kv/tXnuZQWxsafh45LQY2iU6RNCEeJrMYuIKiWkB9ygLKzr9ER2ktlVdsTa1jBjnNJOcZJF4GrBedJWlCjFHkWfT2zI8OkSZduXB7UvFBEu8BtorOkSbZg8C3qPLplD2/jY6RpLXlgC6pueWcmLP4VVC9n8ybgI7oJGkC3U7mbHL+PGXPf0XHSA1j9sj+JOZFZ0iaNHeQmA/5CjLzqbqv8kRLgyoXPYei2h3STMi7Ay/EzyGk9uC95xKU100lPfRGUn4/pFfhn4FqafkGUvoaHSu+yCf3+O/oGklaV/6hLal1zBndjqo6GNLBwPbROdI4qQM/Jhdnkjt/7kAgPY7B4c9COjw6Q1KIe4GFwAJyXkRHx7Uc13lHdFTbKec/jTTlxaQ6doKrAAAgAElEQVQ0HfJuwAxgs+gsSQFS/i59PW+LzpAayiNXEr4P8rvxVLpax0OkdC45fZn+6VdEx0jSeHJAl9R6ylyQFs2iyAc/eu/UtOgkaS38jsQ3qeeve9pcWg3ldVMpHroM6I5OkdQQ/gpcDflaSNdQFL9l7KH/pJz1UHRY0zt5/sas7NiJipdAejGkF0F+CbBFdJqkBpC4lvXX7+GonZdEp0gN6bSb1uO+v74J0qHALKCITpLWXL4C+ArrjZ3L0bs/GF0jSRPBAV1Sayuv2ozayrdT5QNJ7Ia/76mx/QU4h6L4Jr3TR6NjpKYz54pnUXX8B7BldIqkhpSBm4FryPkaSNeQuJFp6//eoWcVTp6/McumPpeC55PzS0i8CHgx8Gx8TS1p1e4n5en09dwUHSI1hXL4GdTS24EDybwkOkd6ErdB/jap9jX6pv8uOkaSJppveiW1j6GRZwPvIPMO4J+ic6RHLYf0Y1L9G2w95Wcc1rkyOkhqakPDryWnnwK16BRJTeVOyH8gpd9D+gM530rOf6Lgv6gv+xPlrIejA8ddeen6sMEzqfEMKrajYHvguVQ8l8QOwNbBhZKaSyZV+9K32/nRIVJTKodfQkoHkng78IzoHOlR95I5l8S36OuaT0o5OkiSJosDuqT2VI6+lJTfQeItPHKKRppMK4FfAt9jyorz+OQe/x0dJLWUoeFPktMJ0RmSWspdwH8Bd5DSPVTcSaruJhf3UKS7yPyVVN1Hx4r7wv5czzlx0vzNWL7+5jC2GSltSSq2IeWtyHlrYFtIW5HSU8l5O7x/VdK4ynPo7+mLrpCaXpkLaqP/DOlAcn4jXpGiyfcgiR9DdQ71TS6k3GlFdJAkRXBAl6TB4ZcBb4H0ZuB50TlqWQ8DF5M5j6krznc0lyZQzomhke9B2i86RVLbug+4j8QDZFY++uMxEg8AK8jpMY+Mrx4mp2X/8DOkPA2K9R/z4w2BqWQ2BTqATUlMefTHmwGbTuA/jyQ9kQupuvamTFV0iNRSyks7qG30z1TVfiT2BZ4anaSWdR+JC6D6HvWHL2rJpy9J0hpyQJekxxoc2RnSfiT2Iedd8PdJrZulwE8hn8d6Yz/h6N0fjA6S2sbJ8zdm+ZQR4IXRKZIkSS3sFqp6J+WMe6NDpJZW5oKORT3Uq/1IaT98mqLWWfozqfoJ8EPqG1/iSXNJ+lsOQ5L0eMrhZ1BLe5N5PfBKYFp0kprCH8jpQop8IfXaLyk7l0YHSW2rXLwjRX0E2CQ6RZIkqQUto0ozKLt+Ex0itZ3BRbtA/fXk9DoS04FadJIaXgauJPNjUr6Avu4rvdNckh6fA7okrY5y8Qak+ixgTxKvBV4QnaSGsQz4NSlfSD39jLL7xuggSY8xNLIvme/j615JkqTxlfNBDPR8MzpDanvlgi0oOl5NYi8ye0J+WnSSGsZfSfkSMhdRjV1Iufufo4MkqVn4QaIkrY05VzyL+pTXUuTXkHkVsEV0kiZNReJaqnQppJ+z8cpfccSMf7y3VFLjGBoZIFNGZ0iSJLWQz9Pf/eHoCEmrUA6/hCLtBewJ7IZPVGwnK8gMU3AROV1ENf0/KFMVHSVJzcgBXZLWVZkLGHkRRfHPwMshvxzYKjZK46gO/IbMZRTVr6jn+d7vJzWZnBNDo/OAt0SnSJIkNb98Bdt0zOKwzpXRJZKexGk3rccDf51OlV4O7AHMBDYOrtL4eZjMKCn9ipR/Tb027FWCkjQ+HNAlabzlnBha9E+Q9+CRb/p2A8/H33ObxTIeGcznA79mvdp8jum8PzpK0jo65eoNefjh+WReGp0iSZLUxG6llrs5rueu6BBJa2HevBo3PmsXMnuQeQWPDOpPic7SarsHGCYxQkqXM7ZklHLWw9FRktSKHHMkaTKcMLIl9dxNRQ8pdQO74huURjAGXAcsgrwIaovYJl3rSQqpRZWLn0lRHwW2iU6RJElqQg9S5d0pe34bHSJpHA2NPJuKThKdQCfwMmDT4CrBw8A15DRKYphqbJhyxu+joySpXTigS1KUOaPbUa92hbQLKe0C+aXAM6OzWthS4HrgOlK+klQsYoOxq7y/XGozg4tmQvULYL3oFEmSpCZSkdO+DHRdEB0iaYLlnJiz+PlU+X9G9ZdCfhEeBJlI95O5GtJVkK8i1a+kWn495ayx6DBJalcO6JLUSE5avCkr6v8E7ARpp0f+N/8T8PTgsmaynMT1wPWQr6HiPyk6rqX+slsoUxUdJ6kBzB4+mJS+Ep0hSZLUNBKfoK/7lOgMSYFOuHIrVq54Eal4ITm/iMSjn185rK+B+4EbSFxL5j9J+VpScT29XX+KDpMk/S0HdElqBqdcvSHLHt6BnHegSDuQ2QHSDpCfDTwNmBKdOMnuJXMzBbeQuYXEzZBvoV7dDMv/6Dd0JT2p2SMnkTg6OkOSJKnhpfRV+roOic6Q1KDKK7amo/Z86jybIj0HeDaZ7YFn88iBkFpo3+S7C7gN0h+g+j05/Z5auomxlb+nnHl3dJwkafU4oEtSs5s3r8aNz9gWOp5Fne1I1XbAdlBsDfmpwFY8ct/vlrGhq+VhHnmj8WfgbuAOMneRuJOc7yAXt7J+cQvHdN4fmymp6ZW5oDZ6Dpn9o1MkSZIaVuYy8kavodxpRXSKpCZUXjcV7n8mqXg2qXg65KdB3gaKrcn5aaS8NaRtgc2iU1fDUuBOMneSuIfMnRTcQU63kvkTOf8Jlt5GOevh6FBJ0rpzQJekdlFeN5WO+7eiYguobUaqNicXm0HajJQ3p2IaKW0OuYPExmSmQV4f0sZAx2N+pgLY9DE/fhB45MR3ZiUpP/SYv/cAKdUh30fFAyQegEf/SjwAtfvI+X6q4kGo3Um5y30T/G9Bkv7P3AXTeLD2SxI90SmSJEkN6HdU9RmUM+6NDpHU4spL14eNt6YY24qUNgU2ocobU7AJudiYnDcjsSmJjYGpZDaFXDzyf07rARs85mfblEc+u4LEUjLL/+5Xux9YSeIBcl4OxVJyXgIsJeX7yOm/Id8HxX3k+n9TK/6b9de/m6N2XjLB/xYkSQ3EAV2SJEntq1z8FIr6QmCH6BRJkqQG8hdSnkFfz03RIZIkSdJkK6IDJEmSpDBl519I1RuA/45OkSRJahDLKNIbHc8lSZLUrhzQJUmS1N76druenPYHvNtTkiS1u4qUDqS3a0F0iCRJkhTFAV2SJEka6PoF5HcDVXSKJElSoKPo6/p+dIQkSZIUyQFdkiRJAujvOQf4ZHSGJElSjHwa/d1zoyskSZKkaA7okiRJ0v/o7/4UpM9EZ0iSJE2yb1N1fyw6QpIkSWoEDuiSJEnSY1XTjyRxbnSGJEnS5EgXU210MGXyKhtJkiQJB3RJkiTpb5Wpor7RgcAvolMkSZIm2AjT1nsT5U4rokMkSZKkRuGALkmSJP29cqcVTFmxP6RrolMkSZImRrqGKStex1E7L4kukSRJkhpJig6QJEmSGlZ5xdYUHZcDz49OkSRJGkc3U6vtznGdd0SHSJIkSY3GAV2SJEl6IuWi51DkyyE/LTpFkiRpHNxDKvagb/rvokMkSZKkRuQj3CVJkqQnUk6/mSrtCdwbnSJJkrSOHoBiT8dzSZIk6fE5oEuSJElPppx+LUXxOuCh6BRJkqS1tIwivZ7+6VdFh0iSJEmNzAFdkiRJWh2900dJ+c3AiugUSZKkNTRGTm+lt+uy6BBJkiSp0TmgS5IkSaurr+ciEm8FVkanSJIkraYM+TAGui6IDpEkSZKagQO6JEmStCb6un8I+SCgHp0iSZL05PIR9Pd8JbpCkiRJahYO6JIkSdKa6u85h8x7gSo6RZIk6XGlfCz9PZ+JzpAkSZKaiQO6JEmStDYGur8O+X1Ajk6RJElahePo6zkxOkKSJElqNg7okiRJ0trq7/kKpI9GZ0iSJP2d4+jvPiE6QpIkSWpGDuiSJEnSuujvOg3SJ6MzJEmSAEgc43guSZIkrT0HdEmSJGld9XedBPmo6AxJktTmEr30dZ8cnSFJkiQ1sxQdIEmSJLWModEjyfnU6AxJktSGHhnPj4/OkCRJkpqdJ9AlSZKk8dLX9W+k9PHoDEmS1G5Sn+O5JEmSND4c0CVJkqTx1Nf1b8CR0RmSJKldpD76u+ZEV0iSJEmtwgFdkiRJGm/93XO9E12SJE2C4xzPJUmSpPHlHeiSJEnSRBka/QA5fx6/uCpJksZbSv30dQ1FZ0iSJEmtxgFdkiRJmkiDI4cCZ+KILkmSxkvKx9LXc2J0hiRJktSKHNAlSZKkiTY4/DZI3wCmRKdIkqSmlkkcSV/3p6NDJEmSpFblgC5JkiRNhqGRfcicC6wfnSJJkppSncxhDHR/OTpEkiRJamUO6JIkSdJkGRrdi5y/D0yLTpEkSU1lBZkDGeg+NzpEkiRJanUO6JIkSdJkGhx9BeTzgU2iUyRJUlNYRspvoa/np9EhkiRJUjtwQJckSZImW7lwV4riZ8DW0SmSJKmhPQDpDfR3/To6RJIkSWoXDuiSJElShHLRcyiqi4DnRqdIkqSGdBdV9f8od7syOkSSJElqJw7okiRJUpTjFz+Vqn4hmZdEp0iSpIbyRyr2pOy+MTpEkiRJajdFdIAkSZLUto7rvIOOFf8M+YroFEmS1DCuo6jv7nguSZIkxfAEuiRJkhTtlKs3ZNmycyG9LjpFkiQFylzGerU3cEzn/dEpkiRJUrvyBLokSZIU7aidl1AtewPwlegUSZIU5ofkpXs6nkuSJEmxPIEuSZIkNZKhkaPJnIiv1SVJaiPpi1RLPkQ5ayy6RJIkSWp3fignSZIkNZrZI+8mcRYwJTpFkiRNqDqkI+jvOi06RJIkSdIjHNAlSZKkRjS06NXk6jxgk+gUSZI0IZaQ09sZ6LogOkSSJEnS/3FAlyRJkhrV4PDLIP0Y2DY6RZIkjavbqdI+lF2/iQ6RJEmS9Lcc0CVJkqRGNmfB08kd55PzrtEpkiRpPKRrqIp9KDtviy6RJEmS9I+K6ABJkiRJT6B3xu3Ul7wC8PGukiQ1v59TVbs7nkuSJEmNywFdkiRJanTlrIfY8dY3kTk5OkWSJK2t9EWqpftQ9jwQXSJJkiTp8fkId0mSJKmZDA6/H9K/Ax3RKZIkabXUSRxHX7dfhJMkSZKagAO6JEmS1GxmL3odqToH2CQ6RZIkPaElpOod9O12fnSIJEmSpNXjgC5JkiQ1o6GFLyQXPwKeF50iSZJWJf2Zqv56yt2ujC6RJEmStPq8A12SJElqRn27XU+VO4EfR6dIkqS/k9KVVMVujueSJElS83FAlyRJkppV2fMAO966LxnvVJUkqWHks9lwbHfKztuiSyRJkiStOR/hLkmSJLWC2SNvJ/FlYFp0iiRJbWqMRC993X6xTZIkSWpiDuiSJElSq5gz3EOVvgc8PTpFkqQ2cw+k/env+nV0iCRJkqR14yPcJUmSpFbR2zNMLb8M8MN7SZImS0pXUoxNdzyXJEmSWoMDuiRJktRKjuu5i2rpqx+9Fz1H50iS1NIS36Re7EHvzFujUyRJkiSNDx/hLkmSJLWq2cNvJKVvAJtEp0iS1GKWk/LR9PV8NjpEkiRJ0vhyQJckSZJa2dCiF5Cr7wP/FJ0iSVKL+BNU+9O/20h0iCRJkqTx5yPcJUmSpFbWN/13TK3NgHRedIokSS3g53Swi+O5JEmS1Lo8gS5JkiS1i6GRD5M5FZganSJJUpOpQx6k6p5DmaroGEmSJEkTxwFdkiRJaiflwl0pinnAc6NTJElqEn+iSAfy/9m78zi7y/pe4J/nN5OEhEXZREHABVAWQTRkQsC2ILWtS7W1oMVe6r22Ra+ttHq9Ws1yMoNUr9arWNtiW71irRVqrUpbN6Qqy8wkoEEREMWyWFlkkzXLnOf+EVREtoRzzm+W9/v1CgnkzPf5DK+ZOcvnPM9v+ZKvtB0EAADoP0e4AwDAXNI5/KJ067NScmbbUQBgBvhUhnOo8hwAAOYOO9ABAGAuqrVkbOKkpLwjjnQHgPu7JylvyMolf9l2EAAAYLAU6AAAMJdtPtL9Y0n2azsKAEwP9bKkvDwrR9a1nQQAABg8R7gDAMBc1jn8omw39cykntp2FABoXclHsnDhYuU5AADMXXagAwAAm60ef2lK+ZskO7YdBQAG7EepeXVWjXys7SAAAEC7FOgAAMBPddbulTL10ZQc2XYUABiIWifTDB+fFYu/23YUAACgfY5wBwAAfqqz+OrUu45KrWNJNrUdBwD6qJvklNS7j1CeAwAAP2YHOgAA8MBOHl+abjk9yb5tRwGAHrsqJf8jK0a+1HYQAABgerEDHQAAeGDLl45nu6lDknpqktp2HADoiZIzM2/DocpzAADggdiBDgAAPLyx8eellg8m2aPtKACwlX6QWk7MqiWfaTsIAAAwfdmBDgAAPLwVSz+f4RyS5J/ajgIAW6yUD2X+0P7KcwAA4OHYgQ4AAGyZ1RPHpuT9SXZtOwoAPIzrUuurs2rpp9oOAgAAzAx2oAMAAFtm1ciZ6W46KCVnth0FAB5UyZkZzkHKcwAAYEvYgQ4AAGy91ZMvSqmnJXlC21EA4F7Xp+Y1WTXyybaDAAAAM48d6AAAwNZbteQzmbfhwKR8oO0oAJCSM9MdOkh5DgAAbC070AEAgN4Ym3hJav4iyR5tRwFgzrkhtf7PrFr6ibaDAAAAM5sd6AAAQG+sGPmXdOsBST01yVTbcQCYI0rOzPC8g5TnAABAL9iBDgAA9N7Jk8vSrR9IcmDbUQCYtb6T0rwmKw77YttBAACA2cMOdAAAoPeWLzk/uw0dmpI3J7mn7TgAzCobU/OOdO96hvIcAADoNTvQAQCA/hpb87TU7vuTPLftKADMcDVfSdN9dVYcfmnbUQAAgNlJgQ4AAAzG6skXpdT3J9mz7SgAzDg3p9TRTI28L53SbTsMAAAweynQAQCAwXnnum1z1z0rUvKGJMNtxwFg2uum5KOZGnp9Oot/2HYYAABg9lOgAwAAgzc6cUhq/jIly9qOAsC0dWHSfW1WHj7RdhAAAGDuUKADAADt6NQmzcQrk3JKkt3ajgPAtPHD1Lw5dcmHHNcOAAAMmgIdAABo1+Zj3d+YkjcnWdB2HABasykpH0y3eavj2gEAgLYo0AEAgOmhc/4+GRo6JTXHth0FgIE7O93mj9M57JttBwEAAOY2BToAADC9jK05JrX7niQHth0FgL67IjVvzaqRM9sOAgAAkCjQAQCA6ei0tfNyffc1SV2ZZOe24wDQc7cmGctuQ+/LiYs3th0GAADgxxToAADA9NU5Z7uURf8rJW9Ksk3bcQB41DYm5UPpblyRzhE3tB0GAADg/hToAADA9Hfy5J7pZnlSfy9J03YcALbKWelO/Uk6y77TdhAAAIAHo0AHAABmjpPXLEm3+64kz2k7CgCPUM25GapvzPKl421HAQAAeDgKdAAAYOZZPfGClLwtySFtRwHgQV2amrdm1cgn2w4CAADwSCnQAQCAmanWktHJ37q3SN+37TgA/MTVSX1bund/MJ2jNrUdBgAAYEso0AEAgJnttLXzcv2m/540q5K6e9txAOawG1Py55m6673pHHVP22EAAAC2hgIdAACYHTprF6WZ+sMkb0yyS9txAOaQm1PyfzI19L50Ft/VdhgAAIBHQ4EOAADMLp1ztsvQwj9KLW9IsnPbcQBmsVuS+p7MH35v3rz4trbDAAAA9IICHQAAmJ02F+mvSi1vSfK4tuMAzCK3p+YvU+e/PZ1Db207DAAAQC8p0AEAgNmtM75DhpqTUuufJNmx7TgAM9gtKeX/Zl5zqh3nAADAbKVABwAA5obO+A4ZKq9JzZ8k2a3tOAAzyA+T8t7Mb96nOAcAAGY7BToAADC3nHrFgtx688uSrEiyT9txAKax61Pz16n13eks/VHbYQAAAAZBgQ4AAMxNp62dl+unfjupf5qUp7cdB2AauTKlnpqpu09L56h72g4DAAAwSAp0AABgbuvUJmXypSl5Y5LD2o4D0JpSLkq3vj11ySfSKd224wAAALRBgQ4AAPBjJ48fmVpel5rfTDLUdhyAAahJPTu1OTUrDzsrpdS2AwEAALRJgQ4AAHB/nfP3SdP8UVJ+P8nCtuMA9MGGlHw8tbwjK5dc0nYYAACA6UKBDgAA8GDeNr5bpvKHSTkxya5txwHogZuS+lcZyl/krUuvbzsMAADAdKNABwAAeDidS+an3PHilPxJksPbjgOw5eplKfnrbLPwb/PGQ+5sOw0AAMB0pUAHAADYEqPjz04pJ6Xm5UnmtR0H4CF0k/xbSvPeLF98tuubAwAAPDwFOgAAwNbojD8xTXlNklcl2a3tOAD3cWOSv0m3/lU6S69tOwwAAMBMokAHAAB4NH5yvHv9g6Q8N55nAe25MKkfSHf479NZfFfbYQAAAGYiL+wAAAD0ytj4vumWV6XkVUl2aTsOMCfclpSPJ5v+IiuXfaPtMAAAADOdAh0AAKDX3n3+wtw+dFyS30vJEfHcC+i5el5qTku9+8x0jrqn7TQAAACzhRdxAAAA+qkzsV9Kjk/JK5Ps3XYcYEb7QVLPTDd/l87Si9sOAwAAMBsp0AEAAAahU5sMrT066Z6Qmt9KsrDtSMCMsCHJ51Nzeh4/9C85cfHGtgMBAADMZgp0AACAQeus3SVN9/jU7itSypK24wDT0oVJOT3D9aN5y8hNbYcBAACYKxToAAAAbTr5vL1Th1+emlcl2bftOECrrknqJ9NtPpTOkq+3HQYAAGAuUqADAABMF6Pjz05yQlJenuRxbccBBuKWlJyVNKdn+eKzU0ptOxAAAMBcpkAHAACYbk5bOy/X1WNSpo5LyouT7Nh2JKCnbk3y6dSckccPfd51zQEAAKYPBToAAMB0dsYZQ/n2Xoenm2OTcnySXdqOBGyVW1PymXTLmdlxx8/ndfuubzsQAAAAP0+BDgAAMFOcesWC3HLL89LUl6bmhUl2bjsS8JBu3lya58zU7b6QzoEb2g4EAADAQ1OgAwAAzEQ/3pk+VV6Ykt9Isl/bkYAkyVVJ+Vxqzsrjm886nh0AAGBmUaADAADMBqNrDk3qS5L64iSHtB0H5pivpeRTmSqfSmfJ19sOAwAAwNZToAMAAMw2nfEnpsnzk/L8JMck2bbtSDDL3JHk7KT+W5rm37N8yTVtBwIAAKA3FOgAAACzWeec4QwvXHrvUe/HJHl225FghroyKV9MzVnZccfP53X7rm87EAAAAL2nQAcAAJhLOmuekqHuL6eWX07q0Ul2bDsSTFM3J/lSSr6Y5PNZMfK9tgMBAADQfwp0AACAuapTmzQTh6aUY1LrMUl5TpIFbceClmxKsi41X0zTfDGPK1/OiYs3th0KAACAwVKgAwAAsNk7122bu+5elpJfSC2/lJLDolBn9lqfZDKpX07NV7J999y8ftndbYcCAACgXQp0AAAAHthpa+fl+k0H32eH+hFJFrYdC7bSXUn9Wmo5N03zxWy78TyFOQAAAPenQAcAAOCR6VwyP8O3PyvdLE0py1KzLMkebceCB3FNkguSekGajGfX4QsdyQ4AAMDDUaADAACw9U6e3DNTWZbk8KSOpOSZSbZpOxZzzt2p+VpKxlPqBSndC7J82ffbDgUAAMDMo0AHAACgdzrnDKfZ9mlJffbmX3l2Up4VR7/TOxuTXJGSC5N6YUouzA47r8nr9l3fdjAAAABmPgU6AAAA/dW5ZH6G7zg4U+XQlHpwag5OycFJHtt2NKa9W5JcnJqLU3Jx0lyY3co3HcUOAABAvyjQAQAAaMfJ5+2dqXkHp6kHJzkkNQck2TfJ/JaTMXgbUvLt1PLNJOtS6zcyVC7O8iXXtB0MAACAuUWBDgAAwPTROWc42W6vDOUpydSBqc0BSffApDwjyQ5tx+NRuy3Jd1JyZbr5VpJLUuqVeezO33QEOwAAANOBAh0AAICZ4W3ju6U2T0237pOUp6bUp6ZmnyRPTbJL2/H4iRtS852UemVK+U5q+W5Sv5vupu+mc8QNbYcDAACAh6JABwAAYOZ7+9rHZMOGvVKG9k4teyXdPVPKnulm75TsmWSPJMNtx5wFNia5Nsm1KfnP1FyT5JrUXJPaXJXc8Z/pHHVHyxkBAABgqynQAQAAmP06tcm8C3fLxu5uGerunto8LqXukW52S8kTUvP4lLpLUnZOsnOSpu3IAzSV5Oak3pSUG5P8IKnXJeX6pPxXSveG1PL9dMv1yWE3pFO6bQcGAACAflGgAwAAwP392Vd3zKZ5u6TWnVLKzqnNTindx6Q226fWxybZIU22S832SbZP8tikbpuU+UkWJVmQZJskC/uY8q4k65Pck+TupG5ILXek1FuTcnuS21PL7Um9I01uSS23p+a2NLkppdycWm7K1NBN6Rx6ax8zAgAAwIyiQAcAAIB+OvWKBbnzukVJku7CbbKxPkCpXuan2bRtytAdmcrGn//7elcWrF+fJFm/053pHLihn5EBAAAAAAAAAAAAAAAAAAAAAAAAAAAAAAAAAAAAAAAAAAAAAAAAAAAAAAAAAAAAAAAAAAAAAAAAAAAAAAAAAAAAAAAAAAAAAAAAAAAAAAAAAAAAAAAAAAAAAAAAAAAAAAAAAAAAAAAAAAAAAAAAAAAAAAAAAAAAAAAAAAAAAAAAAAAAAAAAAAAAAAAAAAAAAAAAAAAAAAAAAAAAAAAAAAAAAAAAAAAAAAAAAAAAAAAAAAAAAAAAAAAAAAAAAAAAAAAAAAAAAAAAAAAAAAAAAAAAAAAAAAAAAAAAAAAAAAAAAAAAAAAAAAAAAAAAAAAAAAAAAAAAAAAAAAAAAAAAAAAAAAAAAAAAAAAAAAAAAAAAAAAAAAAAAAAAAAAAAAAAAAAAAAAAAAAAAAAAAAAAAAAAAAAAAAAAAAAAAAAAAAAAAAAAAAAAAAAAAAAAAAAAAAAAAAAAAMBspyMAACAASURBVAAAAAAAAAAAAAAAAAAAAAAAAAAAAAAAAAAAAAAAAAAAAAAAAAAAAAAAAAAAAAAAAAAAAAAAAAAAAAAAAAAAAAAAAAAAAAAAAAAAAAAAAAAAAAAAAAAAAAAAAAAAAAAAAAAAAAAAAAAAAAAAAAAAAAAAAAAAAAAAAAAAAAAAAAAAAAAAAAAAAAAAAAAAAAAAAAAAAAAAAAAAAAAAAAAAAAAAAAAAAAAAAAAAAAAAAAAAAAAAAAAAAAAAAAAAAAAAAAAAAAAAAAAAAAAAAAAAAAAAAAAAAAAAAAAAAAAAAAAAAAAAAAAAAAAAAAAAAAAAAAAAAAAAAAAAAAAAAAAAAAAAAAAAAAAAAAAAAAAAAAAAAAAAAAAAAAAAAAAAAAAAAAAAAAAAAAAAAAAAAAAAAAAAAAAAAAAAAAAAAAAAAAAAAAAAAAAAAAAAAAAAAAAAAAAAAAAAAAAAAAAAAAAAAAAAAAAAAAAAAAAAAAAAAAAAAAAAAAAAAAAAAAAAAAAAAAAAAAAAAAAAAAAAAAAAAAAAAAAAAAAAAAAAAAAAAAAAAAAAAAAAAAAAAAAAAAAAAAAAAAAAAAAAAAAAAAAAAAAAAAAAAAAAAAAAAAAAAAAAAAAAAAAAAAAAAAAAAAAAAAAAAAAAAAAAAAAAAAAAAAAAAAAAAAAAAAAAAAAAAAAAAAAAAAAAAAAAAAAAAAAAAAAAAAAAAAAAAAAAAAAAAAAAAAAAAAAAAAAA6KnSdgAApql3n78w66e2+cm/77Twjpy4eGOLiQAAAAAAAPpKgQ4wV5xy0a7pbto3tbt7kj1Sy+5J3T0peyT1CUnZPsmiJNskWfgQk+5MsuHe329PyvVJ99qkuS7pfj/JdUn5fppNV2f5EVf1/fMCAAAAAADoEQU6wGzzjnO3z/rh/ZJyYGoOSMmBSQ5I8pQW0vwoyRUp+VaSS9It30otl2TV4u+llNpCHgAAAAAAgAelQAeY6d5x7vbZsGAk3e4xKfXIpCxJMq/tWA/j+iRrUnJuav1iuiNfS6d02w4FAAAAADPS2AX7J9ktGR5+wL+v3TvTzU054Krv5rjjpgYbDmBmUaADzDSdc7bJ0KJj0s3z0uQXU3NQkqbtWI/SzUnOSylfTspZWXHY5W0HAgCALVJryejk85M6kpRdUsrQA9zojpRya2q+l2xal6df+y0vYAMAj8o7122bu+75fEqWPcKPuCvJuqR+Nt3m0+ks+Xo/4wHMRAp0gJng3ecvzO3Dx6Spx6bmxUl2aDtSn12Z1LPS5My8deQ8x70DADDtrZ747ZT8wxZ+1E1J/feUfCxTI591KhMAsMVWT7wgJWdt9cfXjCd5d1Yu+SevwQFspkAHmK42l+a/mVJ/K8mvJFnYdqSWXJ3Uf0mGzsjKw85rOwwAADyg0Ym3JHnbo5jw7dQymlVLPtqrSADAHPBoC/Sf+nJKc6KTIQEU6ADTT+f8fVKGfi8lr0qyS9txppnLU/KhDOVv85aRm9oOAwAAPzE2+Zup9RM9mHR2huor8tal1/dgFgAw2508vjTdckGPpt2aNC+0iQWY6xToANNBpzYZWnt0avekJC+In88PZ31KPp00H8iKw77YdhgAAMjY+L6p5ds9mvbtdId+OZ3FV/doHgAwW3XO3yfN0BU9nHh7ukMHeRwCzGVN2wEA5rTOOdtkbPykNJNXp3a/kOSFUZ4/EgtSc2xq9wsZm/haxsZ/K53qPg0AgPZMjXw3yd09mrZfytRHUqvnBgDAw1j4wx4P3D7N1J/3eCbAjOKJGEAbOpfMT3P7K5OyMskebceZJS5J8n/y9Ks+muOOm2o7DAAAc9DoxDeTHNizeaX74qw4/NM9mwcAzD61loxNrk8yr4dTN2bhNjvmjYfc2cOZADOG3XoAg3Ta2nkZnTghzR2XJuW0KM976cAkH85le6/L6MQJOeOMobYDAQAw59zc02nd5piezgMAZp9SapLbejx1Xu7csFuPZwLMGAp0gEFZPXFsrp+6IsmHkzyl7Tiz2OYi/fK9L8rYxNFthwEAYE7p7S6tUnfs6TwAYLbq9nzi0JTNKcCcNdx2AIBZrzN+QJpyapLnth1lTqk5OMnZGZ38RJqNb8jyI65qOxIAAAAAADC92YEO0C+dc4YzNvGmNOWiKM9bVF+a7vClGZt4k2PdAQAAAACAh6JAB+iH0TWHplm0NjVvT7Kg7ThkYWrensv2Pi+jkwe2HQYAAAAAAJieFOgAvVRrydj4SUn3giSHtB2HnzOS1LUZGz8ptZa2wwAAAAAAANOLAh2gVzrnPS5jk59NLe+JXefT2Tap5T0Zm/x0TpnYue0wAAAAAADA9KFAB+iFzuQz0wxPJHle21F4xF6YTflaRicPazsIAAAAAAAwPSjQAR6t0Ynj09Tzkzyp7ShssT2T+uWMThzfdhAAAAAAAKB9w20HAJjRRiffnNRTksz062lvSPKD1FyTUu9J8qOUMpXUW9Mt3STdlDKU1McmaZL62NQyPyW7J3likm3aDP8oLUzy9xmdeFJWjpzSdhgAAAAAAKA9CnSArdGpTcqaU5P62rajbIFNSS5PycVJ1qVbL0vJtek238+qw65PKXWrJ59y0a7ZtHH3lOyZmv1ScnBqDk5yYJL5PcrfTyXJ27J6Yq/sf9Vrc9xxU20HAgAAAAAABk+BDrClOrXJ0OQHU/O7bUd5GDcl5T9Scnampiay0y6X5HX7rn/AW3Ye5UpvedaNSW5Msu5n/vtpa+flB/VpKVOHpSnPTc3RSZ7wKFfrn5ITc9ne26dzzu+mc9SmtuMAMAt1vvbYDK8/KLXulG6z4OdvULtJbk4d/m46i68eeD4AAACAOU6BDrAlzjhjKJdNfjA1J7Qd5QF0k/KVlJyVWr6U7uJ16ZRuq4lOXLwxyTfv/fWhJMnYBfsn5ejU8vwkx2T67VA/Ps2i4XTOeYUSHYCeWT35opTum5INS9MtQ0l5kAvA3Psfy1QyOnFpkrdn5cjpA0wKAAAAMKcp0AG2xOV7/VUyrcrzmtTzU8rH0wz9U966+AdtB3pYKw6/NMmlSd6fzvk7pQz9RkqOS3J0ps/90nEZWrQxnXpC629CAGBm69QmzeT7k/rqB2nMH8r+ST6c1RPLsmrk1X1IBwAAAMD9TJeiAmD6Wz0+mlp+v+0Y97o+Kaelyd9m+cg1bYfZap1lNyf5uyR/t/k66ht+NymvTfKkdoMlqXlFmjU3JvmTtqMAMIM1E8uT8ujK75ITMzpxvp3oAAAAAP3XtB0AYEYYHf+DlLKi7RhJLkzyu3nsTntn5ZJVWb5k5pbn9/eWZ92YlUvfladftU9qfjPJOW1HSuofZ3T8f7WdAoAZqjP5+KS8uUfT3pJat3gLOwAAAABbxg50gIdz8viR6Zb3tZqh5twMlbdm+ZKvtJpjEI47birJJ5N8Mp3JZ6apY0le2F6g8vaMTX4zK5Z8tr0MAMxITfd3krKwR9OelpPHn57Nl0EBAAAAoE/sQAd4KG9b+4R0m48nmd9SgktSc1xWjTxnTpTn99dZ8vWsHHlRmnp42tuRPpRaP56xC/ZvaX0AZqzmOT0d122e2dN5AAAAAPwcBTrAg+nUJlNTH0vq7i2sfl1q+Z10lxycVSNntrD+9LJ86XhWjhydmhcm+U4LCXZImn/IqVcsaGFtAGasumdPx5W6W0/nAQAAAPBzFOgAD2Zo4k1JfnHg65acmeEclFVLPppO6Q58/els1ci/Zrupg1OzOsnGga5d88zcesvJA10TgJluh96Oa7br7TwAAAAA7k+BDvBAOhc8K7WsHvCq30utz8uKkePylpGbBrz2zPH6ZXdn1UgnTZYlWTfYxevrMzZx9GDXBGAGK70d1/X8DQAAAKDPvAADcH9nnDGUpvlAknkDW7PkzCzYeEhWLf3CwNac6ZaPrM1uQ4cl9dQBrtqk5rS8+/yFA1wTAAAAAAAYEAU6wP1d9qTXJnn2gFbblJI3Z/mSl+VNR94+oDVnjxMXb8zKpSel5vgkdw5o1X1yR/OWAa0FAAAAAAAMkAId4L5OuWjXpI4OaLXrk3JMVoy8I6XUAa05O60a+Vi6dVmS7wxmwfK/Mza+72DWAgAAAAAABkWBDnBfGzeuSPKYAax0dbpTR2blki8PYK25obP04nQ3HZGSrw9gtfmp5eQBrAMAAAAAAAyQAh3gxzoXPCklfzCAlb6Xkl9KZ9mAdkvPIZ0jbsjU/KOSXDCA1Y7N6AUjA1gHAAAAAAAYEAU6wI81zYokC/q8yiXplmVZMfK9Pq8zd3UOvTULNv5Kar7S55VK0qzs8xoAAAAAAMAAKdABkuRt47slOb7Pq3w/zdSvpLPkuj6vw5uOvD116NeSrOnzSr+W0YlD+rwGAAAAAAAwIAp0gCTZ1JyUZJs+rnB7uvX5Wb7s+31cg/vqLL4r3Y0vSXJtH1cpSf3jPs4HAAAAAAAGSIEOcOoVC1JqP699PpVSX57O0ov7uAYPpHPkf6XJbyS5q3+LlOPTWbtL/+YDAAAAAACDokAHuO2mFyXZuW/zS96aFUv/rW/zeWjLR9Ym+f0+rjA/Q5te0cf5AAAAAADAgCjQAWp5Zf9mZzxPu+pdfZvPI7Ny5B9Scmbf5tfmVX2bDQAAAAAADIwCHZjbNh+9/St9mn53muaVOe64qT7NZ0tMbfrDJDf2Z3h9RjprDurPbAAAAAAAYFAU6MDc1kw9P8lwX2aXsiIrDru8L7PZcp0jbkit/TvKven+et9mAwAAAAAAA6FAB+a6F/Vp7ncyded7+zSbrbVq6aeS8h99mV379rUEAAAAAAAMiAIdmLs65wwneV5/hpfV6Ry1qT+zeVSarOrL3JIlOeWiXfsyGwAAAAAAGAgFOjB3DS96ZpId+jD5inTv/Mc+zKUXli/5SpIv9WFyk6mNR/RhLgAAAAAAMCAKdGDu6pZlfZrcsft82uv0ZWotCnQAAAAAAJjBFOjAHFb7UXbelO52/9SHufTSypGvJrmk94P78jUFAAAAAAAMiAIdmMue2YeZZ6Zz4IY+zKXXSj7Wh6mHpFPdtwIAAAAAwAzlRX5gbupcMj/JU3o+tyn9KGXph7Lp75PUHk9dlIzv1eOZAAAAAADAgCjQgbmpuXPfJMM9nnptNh12bo9n0i/Lj7gqyXjP5w6VA3o+EwAAAAAAGAgFOjA3lbpv72fmnHRKt+dz6aN6dh+G9v5rCwAAAAAAGAgFOjBH1T16PzKTPZ9Jf5W6pucza9m95zMBAAAAAICBUKADc1PN43s/tNv7Mpb+mhrqx5se+vC1BQAAAAAADIICHZijSq9Lzo3Zrl7c45n0W2fJdUm+39uh5Qm9nQcAAAAAAAyKAh2Yq3bo8bxr8vpld/d4JgNRvtXbebXXX1sAAAAAAMCAKNCBOaps09NxNTf3dB6DU+p/9Xhib7+2AAAAAACAgVGgA3NU7W3JWeqtPZ3H4NRyY48nLuzxPAAAAAAAYEAU6MBctaCn00q5pafzGKS7ejzPDnQAAAAAAJihFOjA3FRTejzvtp7OY4Dq+h4P7O3XFgAAAAAAMDDDbQcAmB1Kt+0EbKVSa6rOe9bq1CZDFz456e6bWp+YlD2T7l5J2TXJTkndMSk7Jpmfzcfv3/8EgVvu8/stSbk5pd6Qbq5NU69Jt7k6tV6eA676bo47bmqAnxkAc0nnkvkZ+tFTk6G9U7t7JdkzKXsl2Sk1O6VkxyQ7ZfP92bwk293no6eS/OjeP9+V5LbU/DAlNyXlxtTu9Um5Kk2+l6nulck916Zz1KZBfnowK3XW7pLhTfuk2+yVdPdKLXulyeNTs3PKvd+7yfb33vox+dlNLnck2ZhkQ5KbU3NTSrk5JTelW69O6lVJc3XqpqtywLXf8zgU4F7vPn9hflT2TylPTtM8KbU+Kcke9/7s3TnJztl8KuX9n//fneSeJHem5IepuSEl16eW76XWKzNUrsi8Dd/Im468feCfEwCtUKADALPDO9dtm/V3H5puWZLk2Sk5IHXy6an3fVJc87OHBDzsmyd2/Nnf609H1JKUuvnPl+29PmMTlyb5RlInUjOe7t3rFBAAbLG3je+WTc2SlCxOcmDSPTC5Y5/UZvjn78d+/l8fwFB+9v5sj59+TE1K+ckf0zRJFm3M2MTlSdYlWZdu/Xpq98J0lt38aD81mJU6tUmzZv/UujTJISk5MMlBydTj0i35yfftj/+Y+/z+4O77JpjdNn/P3udx6I+HlaHksr3vyejEpUm9JKV8M906mXr3mnSOuqN3nyTANHTa2nm5fmpxSlmWdA9LLQfnjuyXJkNJknqfH7YP/3hp4b2/dkzNEzd//L3/KEm6NVk/r2Z04rsp9cLUcm4y9eV0D78kHZtqAGYjBToAMDO9c922uWf9c1Lz3JQcnbvvOTgpP31s8/AvTPbSgtQ8M8kzk/LfkiTNorsyOvGVpH4upX4uKw6/dKCJ5oLOOcNpthtJpg5MsilNvpVNI5NewJgBxi7YP93y22nK07N5d91EpuZ/JJ1Db207GgxcZ81T0kwdkzRHJfXwTGXvlPveiQ38pJx5qTkoyUFJXpFSkjLUzdjEt9LNV5NyXmrOTmfJdYMOBtNC55zhNIsOS8nzUuuRyeSSJDu0eCGnbZIcmpRDNxfsJSmLpjI2cUlqzk/Nl1KnzvYmGGBWGJ08MKkvSPKruX5qaZKFm4vygfwQLkn2SS37JHlZMpQ0kzdmdPxfU3NW6vC/p7P4rkEEAaD/FOgAwMzROXf3DM1/cWp+I3ff84vZfFTtoMvyR2pRkl9Nyq+mlmR04ookZyY5IytH1rWcbWY744yhXL7XH6Y2/zvp7v6TF0u6SZrJKzI2+easWPLPrWbkgZ16xYLccsufp9ZXp2ToPt+7r0iz4W0ZG//TLB/5y5QyPb+roRc6l8xPueOolLwkyfOS7lN+dmvqtNSk5qCUHJTU16SkZnTioqT+e5r8qzcvMet11u6SMvXilLwgydFJHrP5W3baXgpqKDUHJzk4Ja9OGZrK6vELk3wutfnndJZ8ve2Ac9LYmqel1sNT6q7pZucHuMWmNLkptf4gTferWb7s+wPPyIPrTD4+pT4npe6x+RIMZf7P3aaUW5PuDek2FyWHXey+sUc6FzwrpRyfUn4zqU9uO8797JqUV6bklSlTt2X1xD+mlL/LyiVr2g4GwKMzbR/pA/TV6okvp+QXejewfCArl5zYu3kMzNj4n6aWU3o48ZqsHNmrh/P4s6/umE0LXp5u/Z2UHJ7Z8Pil5Jup5W8yb/1H8qfPueXhP4Cf6Iw/MaV8LCVHPuTtat6XlUtOUsROI53xHdKUzyY5/KFvWP85CxeekDcecudAcvXT6MR3kzylZ/Nq+bPMX//Ons3bGn5mbZ3T1s7LdZuen6Ycm5oXJHls25F67JrUekZK8/E5/4Lx6MS/J/nV3g2sf5+VS/9b7+bxiHXW7pKme1xSX5rkF5N7jwSeHa5MzSdS6sezcumFbYeZ9UYvGEktp6aUJVv4kWenyZuzfGRtX3LxyHTWHJSm+2dJXpAtey56ZZLVWTlyen+CzXKd8x6XZt7/SOoJSfZvO86WK99I6f5dphZ8eGCnbI1OXJ/kcT2dWep+WbH0ip7OBJghZv4L0ABbQ4HOjynQp6daS05e+9zU7olJXpRkQduR+uTulPxDpobelc7iy9oOM+2dvGZJut1/SfKER3T7mvdl1cjr+huKR+TUKxbk1ps/l80FxCPxtXTrr6ez9Np+xuq7Xhfo08NUSlmXmrMyPPwXecuzbmw70LQ2OnFIUl6Z1Fck2bXtOAPy7aT+TYbnf3hOfn0o0Ge2M84YyuVPPirp/kFqXpwfn3Y0u12akg9nqnzYpRn6YGzi6NSclc3XVt4a61PL72bVko/3MhaP0Oo1v5bSPTPJto9iyruzcuQNvYo06528Zkm6U3+UlGMzO14HuDUl78m8offkzYtv6+tKCnSAnmraDgAA8BPvOHf7jI2/NmMT30rtfiHJb2V2PGl+MAtT86o0U5dkdOKTGR1/dtuBpq3VE8em2z0nj7Q8T5KSP8ro+B/3LxSPSK0lt938N3nk5XmSHJqmTObkNVu6U4v+G0qtz0rqymza+J2MTbyk7UDTTueS+RmdOD6jE+NJvp7UP87cKc+TZL+kvDObNl6bsfF/dN/GjNA573EZm1yRy550dWr3C6k5NnOjPE+S/VPz9jT16oxOfDwnTy5rO9Cs8c5126bm9Gx9eZ4kC1Lq/8vo+c/oVSweobGJJ6d0/zGPrjxPktdn9eSLehFpVjt5/MiMTnwm3e5EUn4ns+d1gMemppMNU9dk9cTb0/nabDuFCGDWUqADAO17x7nbZ2ziTVk/7z9Ty18k5eltRxqwJslLkrImYxNnZGx837YDTRu1loxNrErJx7P5uvJbqLwrY+PP73kuHrmxyT9NzdbsnnxCut3/yOrJl/U8E72yQ2o+kdUTv9J2kGnhz766Y0Ynl6e54z+TfDTJSMuJ2jY/tbwsKWszOvG5rB4/qu1A8HNGz39GRsc/lGb46tQ6mtTd247UonlJjku3npfVE2syOnF8zjhjNh1bP3h33/2yJHv0YNI2SdPpwRy2zFuT7NCTSSWv78mc2Wh04jkZnTg/3fLVJC9sO04fbZ+SN6XZ8J2sHv/vqdXJwADTnAIdAGhPZ3yHrB4fzfp516Tm7Ul2ajtSy0pqjk0tl2T1+LvSOWe7tgO1qnPOcMYmTk9NJ1t/6aGh1PKxdNYc1MNkPFKrx1+aZOxRTFiYUv8ho+N/0KtI9FyTkr9K55zhtoO05pSJnbN6opON869M6li25KSMueN5KeVLGZ24KKMTJyjlaN3o+c/I2MTpydDXNl9mYdbsdOyNksVJPprL9r4iY+Mn5dQr/P/ZKuXXejjr1/OOc7fv3TweUuec4XtPouiReuScfqz0QDoT+2V04p+TfCXJ4W3HGaCdU8oHM7bmS+lM7Nd2GAAenAIdABi809bOy+jk/0xTrkgpK5I8pu1I08y8lPKGNIu+NaePRx5adPq9x/c9Wjuk6X4mnfN6ez04HlrngmellNPz6J9zNEn5aycJTGtPTlk0944mfce522d0fCyb8p8pWZXEkZwP79AkH87le1+UsTXHtB2GOagzfkBGJz+VDK2793QUb+Z4aE9OLe/JrTdfmtGJE9KpXkfcIrWXb+Aczj3Di3s4j4fSLDowvdp9vtlwhhfs1sN5M1fnnG0yOj6WJt9I8httx2lP/aU0WZexyRXeXAEwPXngCwAM1urJ5+b6qW8k9f1JFJoPbc/UfDKj4x+Zc9dKG534vdT8dg8nPinN0D/bQTUgnXN3T9N8Olt17P4DKqnlg3nnukd7DUr6pjy37QQD06lNRidOyPp5307K8iRz+7SQrVFzcGr3Cxmd+EzG1j617TjMAZ21u2R0/L1pyrqk/nq2/mSbuerJST6cZvIbWT3xgrbDzBxl596OK044GZR+/L/elLt7PnOmWT1+VJpFF9/7+Gl+23GmgW1S62iaRV9K59y5fAkRgGlJgQ4ADEbnvMdldPwjKfWLSZ7WdpyZpfxOmg3rcvLkL7SdZCA2H+371t4PLkfk1ps/0Pu5/IzO2kUp8z6V3lzz8752yz3rT+jxTHql1P/P3p3HaVWX/x9/XeeeAUYR11xT0HIv12FmQCzRzKzEnTYtS/1q9cvKcoWZObPgkmlp9S1K08xMx9JE0ywVS4S5hzFbRDG/pWjlkrsCAnOfz+8PqFwAWc51zj33eT8fD/4I4X1dzQwz932uz/LOvFvIRHfvOEp9fwR+BGyedzs14MOEyhw6yufpaGJxsfTUozOJKo+CnQJol9/a2QXj5qWLX8rb5t3MIJDWQsKlDH2fzEqSpL9oc0SBB+hT++vpKMeY3Q5sn3c7VWhfovo/0lE+KO9GRETkvzRAFxEREX8d5Y8R1T2Y0nHcRbUNSbiDzvKpeTfi7qGtdwBGOaV/ks6+M52yJQQjSi5bdneqQz7F2eU8+GyUdwOu4pkb0Vn+AYn9jkCaR/IKDMU4g0VD5uqqBklVd+84nq78HsK5gE4wSdeHCcyhoxzrdJ8MBZ2ckJlIH+vUdM3amacqs5ddd6NZxIptgvFLOstn592IiIgspR9aIiIi4ufcuzeks++nGFdT68OVbNQBF9LZ91MumtmQdzNuQrSJc4EpdJQLfN+eo65yJ4SPuuWHkPaudklP7e7q7CofRlR6EDgBHfvsKGxJsF/SVb6UuDfNe2elaM6fsR4d5e9pwYu7Box2XnjuXrrLuptbRN6sa9YEQjQL2D3vVgaJEjCFzt7LdS+6iEj+NEAXERERH52z92HJkD+7DtMKK3yUV6LfcE453XsVq0WSPO5cIcL4MZ2z93SuUyyd5Y+DORy9/xoWnnfNlzVnFvJuIXXn9a9PZ+/lBG4ANs27ncIIHE9kf6KrvH/ercgg1Fkew6L6ezFOQgtesrIrCbPoKJ9HPEd3GovI0iu5OsrnEaJfAOvn3c7gY8cRrfOzml40LyIyCGiALiIiIunr6v0iJNNJ/w5k+Q/bh4Ewg+57RubdSeriMY8Cc5yrrAvJNKb0b+Fcpxg6y2OAy/AeVpjd45ovay6EF/NuIVWd5TEsrvwR7Li8WymokQRup7O3i56eUt7NyCCw9H7drwEz0P26eajDOAN75R7ime/MuxkRydFFMxuYO/I6jDPQQqa1cSgvl37N+TPWy7sREZGi0gBdRERE0nPRzAY6+35KsG8C9Xm3U/tsJ5K6u4hnjcq7k9SFcGEGVd5OktxM3L9OBrVq19JFHDcAw5wrLaFS+rFzDVlTxj/zbiE1nb3/A9wF1N4CpcHFwCYzd9TtTOndLO9mpIrFvW/nqYHpGKeh51z5MhqJSr+no+8jebciIjmIZ27EK6XbAF2XlQZjHIvqbiWePjzvVkREikhvLERERCQdq0mhpgAAIABJREFU8T2b8nLpzkFyZPuLwB/BfoNxHcZPwL4PXETgG2Dfx8K1YNMIzASeyrnflRlFFN1FV3nbvBtJ1c6PXbnsY+8rhL2IKpcTgnZHrIl4+nBC3TQgg+GWXUzc+Jh/HVkjgbvybmGtXfDHdeksXws2FdAxxFUj7EfFZhPP2ivvTqQKdZQPIrL7wPbJuxX5j/WwcA2dvRcztV8LakWKIu7bnKh0N7Bv3q3UFtuHaJ2fc8nDQ/PuRESkaOrybkBERERqQNy/E1Hll8B2ebfyBi9CmA3Wh9m9VPgb1D9KvOcLq510/oz1WDjkHURhFwj7YPYeArtQHQsSRxL4DVN692FSSzUP+1fdxIkV4v6PYZXfA953vU+ka/ZcoN25Tm2JQ0TUdzWB3dxrGX9g/Q0nu9eRNfUMSejJu4m10j1zKxa+ehOwZ96tpOwFlp4O4X1ChLetiaLpdPd+iMktM/JuRqpEV/nLBC4AauWY/5dY+rqyRnYa2ik8lezGOeWjOLv52by7ERFHU/q3oDJwJ9hOebeyhhYCS4AReTeyAu/nhed+ShyOIrYk72ZERIpCA3QRERFZO52z94TKr4FN8m4FeBW4E2MaJL+j0vJQam8wzxj3MvCHZb+uBuDcuzdkoP4Agn0E+BDQkEqtNfMOKvZLzp8xflmvg1/c+Bid5cOB23HfDRpa6ej7C+1NP/GtU0Os/DWwQzKo9AyUjuKU7RdlUEtWXwXjROKWl/JuZI3Fs/YiiaYBW+Xdyip6jhD+j8geBh4m8DDwCLCAJHoZ7CXWrV/IabvPf93fiucMgfkbQbIpZltgYSuC7YCxA7ArS++NrubTOEaQ2M+JZ+xJPK52rgyQ1Te1v56nB75D4MS8W1lFT4H9iRDmEvEICY9iyT9JwrMMG/Ivzmx88U1/47z+9amwDksWr0sUrY+VNoSwPYEdINkRbAdgFFW/eCDsxwC9xP2HEDfOzbsbEXEQ921OpTIdbMe8W1mBv0OYCzYXswcgPESwp4iWvEIpeYlF41580zODc8obU0k2xUpvoxK2xdgBY3sCewHvyOf/BodjfecBp6/kz1SyakZEpAg0QBcREZE1193bQpLcCmyQYxcLMH5OEm4kLLyNePwrmVU+a9/ngZ8BP+P8GeuxaMihEE4A3ptZD6+3N4vqrqWn5xAmTqyNN89tzXfT0XsyZj90rmRYuJTu3r8yuaXXudbg19l3HISvZFDpVWACrY1/zaCWrL5HsHAyrS2/zruRNdbReyBmNwDr5t3KCgwA9xL4HRG/o8SsNd7JGe+6GHhy2a8/vem/n9e/PouSRowxEPYHxgLVdlzoplh9G3By3o1ITs6fsR5PVW4AOyDvVlYgYMwhhDsxm05lYCbxPk+vdsrSofobB+u3v+5/xXOGEC3YFSrvhWg8hH2BDde4cz/vJKrMorvvUCY3/S7vZkQkRXHvCKJwC1BNw/MnIdwO9htKpd8wqfGJ1U5Y+lrrWeBB4PXft+L+TShVWkh4P8ZBwA5pNL1KjNPoKD9Ee/NlK/gTizPrRUSkADRAFxERkTXT3TeWJPwKWC+nDh4Am0pSf+UaHcmetqW7vq8CrqJzVjOUToNwOJkf8W4HM3ebbuCsbOs6am+5nM7yu4BTnSsNI7EbiPubddf2SnT3jiMJ38ugUgA7kbamWRnUGiz+CuGR/MpbgoXnSfgLETOoNN8+qI+R7CofRuAaqm9I/DcIPQTuJCycldnCsKUDuzuW/ermopkNvFy/H1HlcIIdBrwtkz7eivExeno+XzMLxWTVxf2bsKhyCzA671be4BkCP8fsTpIld63RwHxNLF0Uc9+yX98kDhH07kEU7QccBoyjek6V2IAk/IqOvo/Q3nRT3s2ISAoueXgoLzx3A9Vx/c2TBH5ECFfT3vxnzIJbpbjxGeDmZb+ga/aOJMnHMD5GFsN043/pnHU/bWPKy/mvS9zri4gUiAboIiIisvo6Z+9JkvySXIbn4Vai6Lyq3sGy9M3sUcTlHYjsAggTsm3AzqCj/Hvam6/Ltq6jpOk0otnvzOBjuTlR5Rbi3rGD+khqL13lbUm4nkwGjmEKbc1X+dcZTMKVtLV05t1FTejsO4YQLqd63hM/RaCHUri6ak7BOHXsQuBW4FZ6ej7Lg9u+H0tOBD4M1OfY2Qj+stXbgXk59iBZi3vfTlS5Ddgl71aWWQR2M1a5ksqIXy0bZudr6YKm3y/7dRHxrFFEpWMg+USV3EvcgIXr6ej9DO0tP867GRFZSy8+dxmwf44dVIDbCFzK5qWbOalx6fA4zriL1tEPATEhdNDdN54QPg92KH5XbAyB6FrOvXvPZSfivVb+P4tERGpItTwsEBERkcEiLu8AORzbHpgJYTLtLdMzrbs24ua/AIfS0XcAFr4F7JxRZcP4IV29f6C15eGMavqKLSGe/glK69xDYDfnarsS2U/p6ZmgHY6vEfeOAKaRyS7UcD1Jc7t/HSmkzvLHIVxB/ncHJxB+gTGVHR+7o6q/3yztbekwfUr/FiQDxxHsePK6BzRqWJBLXclH98ytSGw68M68WwHuw5hK3eKe5Qwuqks85lGgG+ims280JMeBfRpoyLGrOsyuoLOvRFvTFTn2ISJro6t8BoFP5FQ9gXA1VhdX1TVPS3e93wncSVfv9gSbDHwcn/nLSJYMuZylp428pgcW47f3XkSkcDI+UlREREQGtSn9WxBxO7BZZjWN+wnh/bQ37zOohuev1d50BxtstCeEbiCr446HE+xHxNNrZ8FkPP4VbGAC8FQG1T7I3JHnZFBncOjpKRHZ1QTelUG1+2ho+OSgPhpcqldH75HAj8h3eL4IuBSLdqGt5UhaW35d1cPzN5rU+AStLeeSNO1AsAnA7Iw7+Ctn7/WvjGtKXqb0bkZS+g25D8/DPQSbQGvT3rQ2T6364fkbtTXNpq3l89TVjyTQAeTZfwThMjp6j82xBxFZUx3lDxHI431SAH5BEu1OW8uxVTU8f6PWlodpa/4UFr0LuMWpyqF09H76db8TeNmplohIIWmALiIiIqsm7l+Hgco0YOuMKi7CrI3K8L1pb/lNRjX9nLL9ItpaWgn2fuDJjKqOobRu7dyFDjB5n3lEfBhYmEG10+noOzGDOtXvwVEXAx/KoNITJGECp+0+P4NaUjRdvR/E7GryO4ntJeBrlErb0tZ84rIjPwev2BLam26irbmJEH0QmJVNYbsimzqSu/ieTalwF9md4LM8vwbbj7aWcbQ33eR6r24Wzt7rX7Q3xyRDtsOYDOS1GCXC7HI6+ybmVF9E1kR339YYV5L1TMH4EyRjaGs+nHj0/ZnWXhutox+irflDWPgQHlfPmH2DuPftr/mdF1KvISJSYBqgi4iIyFuLQ0SUXInRmFHFu0lKe9Da1FUVd0qmqb3pDkphD5Ye7+YvhEl0zcrzwXP6Jjf3E+xEyOCAOgvfprO8r3udatbV+3ksfD6DSgsgHELc8vcMaknRdPbuTbAeYEgO1QNml5MMbE9b8xlManwihx58tY++lbbmsYTwfow/OFZ6giS5xDFfqkU8fThW98sc7+6+j8j2oa35INqafptTD37iPV+gtXkKyYLtCFwALMmhixKEH9NVzvMOZRFZVfH0OirhamCjDKsOAOdQGT6atjHlDOumq7XlFoYueTfY90n3Pez6RFz8n/9lGqCLiKRJA3QRERF5a9HssyEcmUGlQOB8kqb9iBvnZlAvH5NaniJZcBBml2dQbShJ9EPiUFuv+9qbfpLR0YFDgBuIZ1bDvavZ6+g9kGDfzKBSgHA8bS33ZlBLiqZ75lZgvwDWzby28QeI9qW16TPE+zydef2stbf8hkrT3sCnSP+6jYCFE4hbXko5V6pNT0+JaJ2rMly4+VovYuFL7DRvNJObZuZQP1vx+Fdobz6dhHcBv86hgyEEbiDu2yOH2iKyOqJ1WzHGZVjxQaJoH9qaJ9XEovozxr1MW9NJBI4EXkwv2I74z0KkxJ5LL1dERGrrQaqIiIikr6u8P4Q4g0rPE6IP0d58ZiHuPo7HD1AZfQKBb7nXMlqIyse518laW1Mr2DUZVNqYKLqJ+L4NMqhVPbpm74hZD9kcdz2ZtpYsPpdSNOfPWI+kdBvw9rf8s+l6DrPPseO8RtpG35Nx7XzFltDWfCVDSjsSwoUs3T2WAvsBrS1e94hKNZk78nvAoRlXDRg/IbGdaG25mIkTKxnXz1fc/Bdamz5AsGOArE/JGEEUbl662ElEqlI8ay8IZ2dWz/gpyYK9mDy6L7OaWWlvvgEr7Y2R5lH031i6+CzU3ilHIiI50gBdREREViyesSWBq4GSc6U/kkSNtI++1blOdYktob35FLBO/2I2hfNnrOdfJ0NmgeEDnyGEDB6s2E5Ei68lnp7X3cnZimduREhuArJYNNBDa9O5GdSRognBWFx/GbBrxpXLJMnetDZ9t3BDuNc6s/FF2lu+ShL2BmavZdpzJNGkNNqSKtdV/gJwQsZVn8LCB2htPoa46cmMa1cPs0B7009IKu8Cm5Zx9a2oRNcTTx+WcV0ReStT++uJoh+SzaLagBEzuekTxONfzaBePlob/0ol7ENaJ38EdmPuNscT7B+p5ImICKABuoiIiKxICEZU/0NgM99CdhdDl+xLPPpvvnWqWFtTO8G+41xlcxbVZbdrICunjl1IXd1hQBb3Zr+fqOHCDOrka2p/PVHpOmB791qBmWyw0Scx87/PXoqnu+90AkdnWDGB0E2yYBzxmEczrFvd4pY/kSwYi3E6sGDNQsJZxI3PpNqXVJ/u3nEEvp5tUbuLZMletLbkcXx5dYrHPkfr6MOw8CUgu2OTzZoorfP9zOqJyKp5KjkD2D2DSq9C+DitzR2FeG8Qt7xEsuBDQE86gXY2IbF0skREBDRAFxERkRXpnn0ycJBzlVsYPvBBzhj3snOd6hdGnwLhet8i9qWaPB5zUuMTEE0A5vsXs1Po7Pucf50cPVn5FrB/BpXmUReO4JTtF2VQS4qmq7w/gSkZVnwSiw6iraWVeHxKR5bXkHj8AK3NF5CwJ1Bezb89i6T5Uo+2pIp0921NYtcDQzKqWMGI2enR9xGP+2dGNQcPs0Bry8WQvAd4NLO6gWPpLP+/zOqJyMp13zMyo6PbXyayAwp3pVM8foDNSsek9BxgJGZXppAjIiLLaIAuIiIib9bV/w5C+JprDQvXslnpME4du9C1zmARW0JSdyyrP1hYHcOo1J3mmJ+fttH3YfZJIPEvFi6ma/b7/OvkoLP3qxgnZVDpZZIwgUktT2VQS4omnrkRgR/hf/3Iv5UphT1oHX17RvUGr7j5LyQLxoG1AktW4W88TRImElsG39slNz09JSrhKuBtGVX8FyEcSGtzR6GvWVgVbWPK1C/ei7SOGV41Xyfu2yPDeiKyIkn9hUCDc5WFWDKByU0znetUp5Mal7BZ3UeBG/NuRUREXk8DdBEREXmzUJkKDHcscD07PvYJTmpclYfnxRE3LiCyo4Hn3WpYOIl4xpZu+Xlqbboeoy2DSnWE5Od09mV9r7KvjtkHg52XQaUES44hbvlTBrWkiKLSVODtGVW7jYZhB2gxyGqIxw/Q1tQNtidwx0r+5DySMJ64JYsrOiRPD42cjPGejKo9ikX70t4yPaN6g99Z+z5PMvwQjJ9mVHEoUbiO82esl1E9EVmerln7QTjSucpizI6gdcxdznWq20mNS0iGTwRuybsVERH5Lw3QRURE5PU6yx8HDnCsMJuk7ljt+FmByU2PY3aCY4VhRPVfdMzP1+SmczB+nEGlERCmEfdvkkEtf3HvLljyU7LYsWt8ldYx09zrSDF1lD8FHJVRtatJhk/gtN0zuD6iBrU1zaGt+X2QtBCYCvZn4AkC/WCtDF3ybuKWB/JuU5x1940lMDmTWsafSJbsQ+vohzKpV0viXRdTaTqGwLcyqvhOFtd/I6NaIrI8SXSuc4UK2LG0Nv3Kuc7gEO+6mIZhEzHuz7sVERFZSgN0ERER+a+4dwTYBY4V/kYy8GHixgWONQa/1qbrIVzhWOHkpZ/rGmQWqAw/AfhtBtW2I6pcTzwnq/tafcT9mxDZTcD67rXMLqe1WQ/ExUfctzlGVl9f3yZpOpZ418UZ1atdbWPKtDefTFvTbrQ1b0l782jamro5Y9zLebcmzi55eChJuBSoc68V6KXE/rrvfC3EltDefArGmUBwrxc4funpOCKSua7yYRgtvkXsVNqaenxrDDKn7T4fwhHAC3m3IiIiGqCLiIjIa0VRBwSv472fxcIHiPd52im/tiQLvwDMc0ofQRQd55Sdv3jXxSSlo4C/ZlBtX0rzv5dBHR/x9GFElWnAdhlUu5vKuidnUEeKqhQuATbMoNI5tDV/Qfdyi6yl55/rAnbOoNIvWa+yP2c3P5tBrdrX2nw+Fr6cSS1Lvqej3EUyFocI6PItYtfQ1nSJb41BqrXlYYxjAb3OFBHJmQboIiIislRXeVsIn3XLD+F4WlsedsuvNfH4Vwh2hl+B8HlCML/8nMWNz5CECcCL7rVC+DSdvV9yr5O2EIyo4QfAmAyqPUJSOkK7dcVNR98hBI72LxQuoa15kn8dkRrXPbsJ41T3OoEZDK8czaljF7rXKpLWlosJ5n28M8A2vFp/fgZ1ROTfrHw4gXc5VniIJDnJMX/wa22+meC9iEFERN6KBugiIiKyVLBzgKFO2d+hveVGl+xa1t50LYHfOaXvwJTyPk7Z1SFueQCzjwIV/2J2IR19h/jXSVHX7Elgx2RQ6SWwQ4gbn8mglhRRPH0YFjLYxRSuorV58C2WEak2cYhIkm8DJdc6xv0MWTxBw3MnbaMnAT90r2OcRPfsJvc6IrKU2Vcc018hCUcQt7zkWKM2hKZOCPfk3YaISJFpgC4iIiLQ2bs3hI+4ZBv3s97AaS7ZRVDiK3gd35ZwvEtuNWlt+hVwegaVIixcRTzbc7dGerp6j4LQmUGlAUI4iramORnUkqIqNXwZGOVaIzCDDTY+ATP/e39Fap3NPh4Y7Vzlccw+yFn7Pu9cp7jMAjvN+x/gF86VIirJd5YdKy0inrp7x+F6OpV9gbjlAb/8GhJbQlI6GdAJXiIiOdGLTxEREQFsMuBxnPerVKKPaefPWpjc3I/xU59wO5oL/riuT3YVaWu+iMDUDCqNIEpuJr5n0wxqrbl41l4EuwKff/OvZ+FLtLf8xr2OFNeU3s0IdqZzlUcJpcM5ZftFznVEat95/etjodu5yjNYdCCTmx53riMTJ1ZoGHYMgX7XOkYj1nesaw0RgcQ8r9aYTuvoHznm15549P2EoGssRERyogG6iIhI0cW9uwATfMLD14lH3++TXSChcj7gsetxXRYu+pBDbvXZvPQF4M4MKo3E6m7gkod9rkNYW1P6tyCKbgSyWDhxKa0t38mgjhRZxWJghGOFAaLwMV1BIJKSRZVJgOdCs4QQPk7r6Icca8hrnbb7fEL0EeBF1zpm5xD3r+NaQ6TIpvRvAXzYKX0xlnxeJ/msgQ03ngJo176ISA40QBcRESm6KGrF5zXB32loOM8ht3jaxv4Zwh0+4YnP0f3V5qTGJSSVo4GH3WsZY3nxuR+411ldF81sYGDgF8Db/YvZb0gWfNa/jhRa3L8N8BnXGhbamNzS61pDpCim9G+B8XnfIuEcnXySg3j03wic6FskbEk08DnfGiIFVkmOB+p9wu08Wsc86JNd407ZfhGWOP/sFBGR5dEAXUREpMjiWaMgHO0Tbl/htN3n+2QXkEUXOgV/kHj6cJ/sKhOPfQ6LDgH870MNHEtX71nudVZVCMYrdT/ErCmDYnNJ6icSjx/wryWFFlVagSGOFX7Ljo99zTFfpFgqA5MBvx3Egd+RLOxwy5eVa2++DrjUt4idSdzreeqISDHFIYJwglP6wyTzz3XKLobWMXcBt+XdhohI0WiALiIiUmQWnQyUHJKn09bU45BbXJNH3wbMcUgehjUc4JBbnVpHPwR2OLDYvVawKXT0VccO/66+bggfzaDScxgTiPd8IYNaUmRd5W2BTzlW+BfJko8zcWLFsYZIcXTfMxLMazgD8C9KlY9r8VbOktIX8Xm9+m8bE/Elx3yRYrLye4GRLtnBWonHv+qSXShhEj7XuomIyApogC4iIlJU8fRhGMe7ZEec7pJbZGYB40c+2dEHXXKrVVvTbwlkcQSoYeFyOvtGZ1BrxTr7JgJZ7IZfgnE0rS3+x+SLJPYV3I4ZBcxOJh73T7d8kaJJSqfieWKEheOYPPYfbvmyauLGBSR2DOC4+MhO4YI/ruuXL1JAFnkttH2QMPo6p+xiaWu5F5iWdxsiIkWiAbqIiEhR2TofATZxSP41k5v7HXLFBnpwWXUeDk4/s8q1N19G4FsZVGoAfkHcm8G948vR3TcWwpWAudcyvkBr853udUTOvXtDLDjuPg+30tp0vV++SMHEMzcC+4xbvoVraW25xS1fVk/c9Afgu44VNubVV/2+nkSKZmp/PYQjndK7iS1xyi6eJJoM6OMpIpIRDdBFRESKy+nBk53jkytM3mce0OuQvDVxeQeH3Oq287wvAzf7FwpbUopuJO73u/d1ebrvGUkSrgeG+hezr9PaPNW/jggwMOR/gOFO6fNJ6k52yhYppqjuc/j9m30ZS77ilC1rqn5xG/Avt/zAqcTT69zyRYrkycr+wMYOyQ+x07xrHXKLKx59P9qFLiKSGQ3QRUREiiieNQpj39RzA720Nf029Vz5Lws+DyHM3uuSW80mTqwwdMnHMe53rxXCXkTJlYTgvxMc4PwZ6xHqpgGb+RcLt7LTo2f61xEB4ul1BD7vlh/4OnHjY275IkWzdGej379Zsw4d3V6Fztr3eYLr9TGjsIZDHfNFisPCBJfcEKYwcaLjdQ4FFcL/5t2CiEhRaIAuIiJSRJF9Eo8jnSOmpJ4pr2fJz/A4xt2S96SeORicMe5lKskhwNP+xcKRdM2O3cvEIWLRkKsI7OZeCx5gSN3H9HBMMmPrHgxs7ZT+NMOWXOiULVJMTw8cCmzulD6HTaNLnLJlbYWmy4GyW77Z/7hlixSKfdAh9Gk2r7vGIVfamm8H/pJ3GyIiRaABuoiISCHZMQ6hj1Np0v2T3iaP/QeEh9IPtvRPJBgs4jGPEoUjgUX+xUIrHX2fcC1hfV8Hp50kr/cMSXQIZza+mEEtkaUsON6jbDFnjHvZLV+kiELkN+S05P9xUuMSt3xZO7ElROGrjhXeRzx7O8d8kdrXWd4dGJV+sF2p789OzAJm38+7DRGRItAAXUREpGji3t2A7VPPDVxJbEnqufJmwTyOyR/JOWWPu+8Gh8ktMwiclEElw8KldPe2uKR39H4a48su2a/3KjCBePTfMqglstSU3s2ADzml/531N/yhU7ZIMcWzt4NwgE+43UXrmLt8siU1k1tmAHc7pUdEyfFO2SIFEQ50Cr7CKVcASuEKYGHebYiI1DoN0EVERIom4jCX3FC6yiVXlsfnnvkBe5dL7mDR3vwj4GsZVBpGYjcQ92+TamrXrP0wm5pq5vIF4HjammdlUEvkv5LoGKDeJ9wu4JTtMziFQqRASsmxeD13Csk5LrmSvsD5junHEkL611KJFIbt5xBapq1pjkOu/NvZzc8CN+TdhohIrdMAXUREpGgsOtQhdRZx41yHXFmeutJdTsm7O+UOHknTWcCNGVTanKhyC3HviFTSusrbEqIe3IaLrxFCN23NV7vXEXmjEI52Sn6O4QM/cMoWKa7ARKfk+5bdASuDQXvzL4H7nNK3ZsrsMU7ZIrWtp6cE7JN6rnF56pnyZoGf5d2CiEit0wBdRESkSLpnbkUIe6aea/wo9UxZsUmNTwD/l3quhd1SzxxsYktISh8n0J9BtV2JuGbZw6s1F/eOIHAT8LZ02loZ+zmhOfavI/IG3X1bA01O6Zdy6lgdgymSps6Z7wZ2cck2OjELLtniI9iFbtlJ8hG3bJFaNnebPYANUk5dTH3pmpQzZXlC6TZgft5tiIjUMg3QRUREiqRSeh+Q9jGHgag0LeVMeWt/Tj0xoAE6QNy4gLDkUOAf/sXsYOaOXPNjaOPpdUT8HNg1vZ5WwOz3NAz9FLEl7rVE3mjpTlaPY3orGN9zyBUpthB5nRgxh0qTXncONmH+tcA8n3A7mjjo+abI6jIb65B6N2c2vuiQK28UNy4A+1XebYiI1DK9wBQRESmSiANSzzT+uGxHtGTrQYfMd631buhaEY/7J4RDgQUZVDudzt7/WaO/GTVcDPa+lPtZDvsnleRQTttduxwkH0k4zCn5dlqbH3HKFimuyA5xyTW+pYVcg1A8foDAVU7pW1DXt5dTtkgt2zv9yKCBbpaC7kEXEfGkAbqIiEiRBPZPPTPhttQzZRWYxwC9gQe2294hd3Bqa7kXC58CMjgm1r5NR+/41forXeUvgH3OqaHXWggcRtzy9wxqibxZ3DsCo9klO+gKEpHUxX2bE9jdIXk+lfBTh1zJQih5DdAh2MFu2SK1Klj6C0+SkgboWRoa3QwszrsNEZFapQG6iIhIUXTN3hHYKvXcKNGb5FwkHgN0sLCtS+5g1dryMwKdGVSqx+w64pnvXKU/3dX7fgIXOfcEEAj2adqaZmdQS2T5jAOBeofkF1mv8guHXJFis+RgPK5cMOshbnkp9VzJRtw4F+MPLtkhaIAusjri/nUg7JJy6uPEo+9POVNWZulx+ffm3YaISK3SAF1ERKQoQhjjkPoylREzHXLlrTQ0zMVjZ7Ql6S+yGOzamjqAqzOotDFRdBPxfRus9E/F/TsR7Fqgzr0jC5Nob7rWvY7Iyph9wCc43MSpYxf6ZIsUWMRBPsGWxc9i8eX1OWzi3Ls3dMoWqT3RwM5Ayld32a3p5skqujvvBkREapUG6CIiIoWRjE4/M8wg3lVHhuVh6V3UT6cfHLZMP3OQMwskC44n0Juntxx8AAAgAElEQVRBsZ2IFl9LPH35w/FzyhsTVW4CVj5kT6UVfkxry7nudUTeWvrXjwAYN7rkihRdsHEOqc9QeeUuh1zJktk1gMcd9iUWDxnrkCtSo2xHh9A7HDLlrQR+l3cLIiK1SgN0ERGRwjCP+2N1XFi+nkk/MtIO9OWJx79KsMOBxzOo9n5snTcfzz61v54BrgNW7Zj3tRGYyfobneheR+StxH2bA9s5JL9KZaGuIBFJWzxrFB5XBmHXE48fSD9XMjW56XG/BYm2j0+uSC1yGKBb0JVPeRiyeCY+C5NERApPA3QREZEiuOThocC7U88NTvcYyiqyf6WfqR3oKxQ3PUliE4BX3GsZX6Cz73Ov+72nkm8D491rw6OEgcM5ZftFGdQSWTlLnAYiYQbxeP9/yyJFE5U8dp9DSG5xyZXsRfzaJzhogC6yqixJe4D+ApObHk05U1bFWfs+D/w57zZERGqRBugiIiJF8NzzOwNDUs8NQTvQ82TBYYDusWushsRNf8DCR4CKf7FwMV2z3wdAZ/l0CP/jX5OXoTKBeB+H6wFE1sgYn9hIx4yKeAi0OKQuZtjAnQ65kgcLt/nkMnqFV+CIyOslbJty4n2YhZQzZVVlctWYiEjxaIAuIiJSBFHYxSH1edpb5jnkyqoKGqDnorXlFoxJGVSqIyQ9dJZPBbK4i7yChY/SNlY7GKR6mDU5JWuALuIi7J5+JL2cMe7l1HMlHzs8Nhvw+Hw2QMMODrkitcdsZMqBWlifp4g5ebcgIlKLNEAXEREpgoDHAF2rzHMXOdyBzibavbMKWpvPx8IPMqi0IXAhmbxuD1+ltUVH5Er1CMHwuH4EFpDMv88hV6TYQjCMdzkk3+2QKXmZOLEC9LlkR+zmkitSS+I5Q4C3pRsa9LoqT4k9kHcLIiK1SA9HRUREisDY1SF1fzrLGqDnyuXDH9FQ34DPzqDasmnd53kq2R7Cfnm3koIf0tbyzbybEHmdjt6RRNEGDsn3Eo8fcMgVKTavf7NRmJl6puQr0ItxQPrB9m7gmvRzRWpI6ZWtCCkvzk3CH1LNk9UTmIPl3YSISO3RDnQREZFi2D7vBmQQGahbJ+8WBoWTGpdQF44C/i/vVtZK4Hckwz+bdxsib1Jy2kkYgs/OR5Gis8hjwSaUrOySKzkKs31yzeMEBJHaYrZFyokBFv4t5UxZHXHTk4DH6XQiIoWmAbqIiEgxbJN3AzKILKkbmncLg8bZzc9iyQTghbxbWUN/I5SOJN51cd6NiLxJKHlcPwLwR6dckWIze4dD6uOc3fysQ67kKaq73yl5W6dckdoRwkYpJ/6LePyrKWfK6nsw7wZERGqNBugiIiK1Lp65EbBe3m3IIFIKDXm3MKi0jnmQwEeBwXYk9PMkHEzcqN0KUqWCxzAODN0TKeIijHQI/bNDpuStsvcjwPz0g8Oo9DNFakwg7QH64ynnyZowdAqAiEjKNEAXERGpdVG9x8NMqWUVDdBXW3vzbWBfybuN1bCEYEcTN/8l70ZEVsJjJ2FCQ8Nch1wR8RheBuaknin5iy0BPF6DrEfcv4lDrkgNSX0Hugbo1SCEJ/JuQUSk1miALiIiUutCeHveLcggE2mAvkbami6B8L95t7FKzL5Ie9Mdebch8hZGOWT+g9N2d9j1KCJg6S/a1I66WvaoS2pdZZRLrkjtGJFqWrB/pJonayjSAF1EJGUaoIuIiNQ6C5vl3YIMMiEMy7uFQStZ+EUIt+fdxsrZN2lt+m7eXYisVE9PCdgm9dygXVIijtJ/zWn2aOqZUh2CPeaSW4ne5pIrUitClO57PQs+/5Zl9WgHuohI6jRAFxERqX1pH9EmtS6KhubdwqAVjx8g4Uio2iNnbyOZf1reTYi8pQe22hioTz3XnAY2IgIurzkr89LPlKoQBafPbUVHuIusVNqLpe2f6ebJGjGezLsFEZFaowG6iIhIzTPtwpDVE3g27xYGtbjlJYxDgGfybuUNHiQZ8lHi8QN5NyLylqJ6n59dIdExoyIe4v51gHVSz62Ep1LPlOqQBJ/XScbGLrkitcJCuoulLbySap6smaSiHegiIinTAF1ERKTW6SGSrJ4BkvqH825i0GttfgQ4AlicdyvLPEtSmUC85wt5NyKySkKyqUuuRdW2sEWkRgx4nHhUgTH6uVWz7DmnYL33EVkZs3QH6AkLU82TNRReyrsDEZFaowG6iIhIrQuMyLsFGVTu1JA1JW3NdxPCyXm3ASzBkqOIx/5f3o2IrDLzusM28RrYiBScpb/7HJ4ntsQhV6qB4fT92OVrUaR2BEKqecaCVPNkDZVezbsDEZFaowG6iIhIzQsNeXcgg0gUuvJuoaa0t1xO4Bs5d/E5WsfclXMPIqsnsL5Prj3vkitSdFEl3R2NS2koU8sS89q1OsQpV6Q2BCqp5kXagV4d1tMAXUQkZRqgi4iI1D4N0GXVBC5gcsuMvNuoOaHpq2DT8qlt59LWfGkutUXWhjn97IrCfJdckcKLPIaW1XINingoVRa55KZ9v7NIrbGQ7gDdbzGMrI5418WQ8uIIEZGC0wBdRESk9g3LuwEZBIJdzM7zzsq7jZoUW8LQxcdg/CnjyjcQRk/OuKZIOszp9JSEJS65IoVnGqDLaqp3+vy6fC2K1JCUr8bQAL2aaBe6iEiKNEAXERGpfRqgy8rcR4g+SHvTl5g4USvWvZwx7mUoHQEMZFRxHg3DjtXdsTJoJU470C3SQE7EQ2SWfmjQM6taVgnp3sP8bwGHr0WRWmLpvh+pW+JzmoSsCQ3QRURSVJd3AyIiIuLOY4C2CMIpDrmSFeM5KskfiMf+X96tFEZI/h/Zvf7ehgWLDgN+klE9kXRZGIrHDCRKtFBIxEVwWJxi66SfKVWjNDDUZY2EBQ3zRFYu3QF6KOnUh+pRn3cDIiK1RAN0ERGRWhdY4jCDKNHW8v3UU0VqVWfvZyB8KcOKhoVL6Sz/jbbmWRnWFUmLz2kNIeg9sIiHgbCYKPUXnOumHShVJEQ+Q7dEJ42IrFTazwcqYb0U02Tt+JzgJCJSUDoOS0REpPZ5PESqY2q/VjeLrIruvveAfTeHysOAG4j7t8mhtsjacrqrXHfjirgolTx2/WooU8uiaKhPsMdpCCK1JEl3kWJU0vfqatDTU0I70EVEUqUBuoiISK0zp4dIz6NjNUXeSjx7O5LwcyCvod1mRJVbOa9//Zzqi6wZM6cjeDVAF3FRsYUOqUOI79vAIVeqQSXZ0CXX8PhaFKkdUZTuIkXTDvSqMG/HYXm3ICJSazRAFxERqXnRApfYV9FATmRlzr17Q6LkVmCTnDvZhcUDP122K0FksPBZ/BUY4ZIrUnTr1j/rE7x4U59cyZ2xsVPuMy65IjUjvJJuXjI83TxZI/OX6Ph2EZGUaYAuIiJS85LnXGLrKnqgKbIiU/vrWTLkOmCHvFtZyg5m7qjz8u5CZJUFXnZK3sgpV6TYTtt9PpD+yRF1tnnqmVIdLPjsQE/wee8jUivSfo2V6LqNqlCXaIAuIpIyDdBFRERqnvk8RKpEb3PJFakFT1YuBg7Iu43XC1+lq3xS3l2IrBJz+tlF0ABdxI2lvws9Sd6ZeqZUh2BbOiVrB7rIStlLqcZFOt2nKgwEDdBFRFKmAbqIiEjNs+d9chPtQBdZns7eL2F8Nu82livwLbrK++fdhshbqzgN0E2Lv0S8WHAYXEY7p58p1SFs4xJbCk7XCYjUCCPdAbrfYhhZLbZO3h2IiNQaDdBFRERqnsfDTMDCSJdckcGso3wQ2AV5t7ES9QSuo6t3+7wbEVmpEDkt/jKfgY2IQOAxh9Cd0s+UqhCcvh8PDDh8HYrUkEDKi0z02qoqlNCVJyIiKdMAXUREpNYZf3dK3tYpV2Rw6pq1M8Y1QF3erbyFjQhMI75vg7wbEVmhUulpn+CwtU+uiBBsnkOqdqDXKjOP4/kXwT5POuSK1I5oSbqvsYLTaRKyepKwVd4tiIjUGg3QRUREal0lOO3CiEb55IoMQueUNyZE04BBMpS2nYiW9BBPr/ZhvxTVkr2fAhY5JI9yyBQRgCh4DNC3JZ4+zCFX8hT3joCwhUPyPGJLHHJFasfA4qdSzTM0QK8GEW/PuwURkVqjAbqIiEjNG+o0QNeRmiIATO2vZ8B+BnjspHIUDiRa57t5dyGyXEsHIB4nqGxI3KcjLkVchEccQiNo2MEhV/JUxy6AOSQ/6pApUlvi8a9Cqvegb8HU/voU82SNaAe6iEjaNEAXERGpdfGeLwAvOiRvTty/iUOuyODyVOV/IeyXdxtr6AS6ej+fdxMiK+CzAKwUdnHJFSm6ED3okhvR6JIr+alE73bJDebzNShSe/6RYlaJpyva/Zy3YBqgi4ikTAN0ERGRYviLS6oN+Dz8EhksunrPAk7Iu421EuxiOsofyrsNkTcxe9QlN9i7XHJFii6Z/xAeVy+Y7Zd6puQrCs0+weHPPrkitSY8mmpcYtulmierz3SEu4hI2jRAFxERKQKz+11yI9vDJVdkMOgoH06w7rzbSEEJ42ri2RoqSpUJTjsJk9E+uSIFF48fwHgo9dxgB6SeKXnzGaBb4vOeR6TWhJQXKUbouUDeggboIiJp0wBdRESkEJyGEIEWl1yRatc5e0+MH5PF62njD+41YARR8gtdyyBVJeEBn2Bz2vkoIoTwJ4fQLYnLuge9VpzXvz6BnR2SE5JX5zjkVg8LpbxbKIwkqu2PtfFoqnkh0QA9T/HMjYCN8m5DRKTWaIAuIiJSCMHrYdIYp1yR6hX3bQ7JjcC67rWMy9i01ARMd68F78AqN3DJw0MzqCXy1kLi9bPrnZxT3tgpW6TgotkusSXGu+RK9hYN7AekP5w0HiAe/0rquVXF1sm7g8KwxP91fp5C+Gu6gbZnunmyWkolLWAQEXGgAbqIiEgRVKLfOyVvTdy/jVO2SPW5aGYDUfgFsHUG1X5LZfjnOKlxCUnlKOBh94rGOF58bqp7HZFV0d4yD3jZIdlYEvZzyBWRKMz0CQ4aoNcMpyP5E+5xya0mSQaLN2Ups9r+WAfSPqFuJ+J+LfDISwh75d2CiEgt0gBdRESkCOKmJ4F5Ltk2oHsppRhCMOaXLsPr3s7Xe4j6xYcT77oYgHjscySlCcAL7pUDn6KrfJp7HVl9gbq8W8iUWQC71yn7fS65IkX3ttIfgQWp5wY7kHjOkNRzJXsWDnRKnuWUW000oMxObX+st6h7GFicYmKJuvCuFPNkdZhpB7qIiAMN0EVERIrCQq9LbsRBLrki1aaz3EHgYxlUeg4Lh3DWvs+/7nfjxrlY+Agw4N5B4Dw6eg91ryOrx6KGvFvIXuLzswu8BjgixXZS4xKwPofkjSi99AGHXMlS1+wdwXZyyXY7/aCKGOvl3UJhhDA87xZcndS4hLRPt0oS7YLOS0ADdBERBxqgi4iIFIaVXWKDvY+envTvMRSpJh3lozGbnEGlJQSbSGvL8h9otbb8GvhyBn1EmF1FZ3n3DGrJqgqhto8TXR5z+tkF7yCerZ1SIh6MO52CP+6TK5kJ4XCn5MdX+Nqptrw97wYKpPY/1hbuTzeP/VPNk1Vz0cwGYMe82xARqUUaoIuIiBRFCL9zSt6YB7d5j1O2SP46e/fGuAKwDKqdQnvTHSv9E23N3ybYdzLoZTjYLXTP3CqDWrVqSappFoq3Az0qeQ3QoeQ2yBEpNgu3uuQGm0DcO8IlW7IREqfvu+bzNbf2KinnbZtynqxQNCr1yJcWpfu6cG0F+lPO2584aNaQtVdsNyjYNU8iIhnRDzUREZGiSJrvA/7lEx4d6ZMrkrN4xpZgN5LNPYgX0db8vVX6kzs/+kXgFt92AMKWJKUbiftr+x5IL8bClAOL93mY1PgE8KBPeDjCJ1ek4Aaafg887ZDcgJkWvgxWXb3bYzbaJdu4zSV37aV5xzTAKELIYkGnEEamHJgQj/e/hml1WEh3gA4bU9enY9wzF7037w5ERGqVBugiIiJFEVsCTHfJtnCEjnGXmhNPH05UfwuQxQ7sX7HTvNNX+U9PnFghCR8D5vi19B97U6pcoQe2ayCkPUDPZCFH9Qnc7pS7B3Hvbi7ZIkUWWwLh1y7ZZp9wyRV/iX0Kn9N8llAfrfz0ntxY2gP0demY+baUM+WNlr6vTfsI97S/FtbekMq9QJJqZsL7U82TVXFQ3g2IiNQqDdBFRESK5TdOuVvw0KgDnbJFsheHiGidq4As7gB/gCGljzJx4uod8xm3vIRxCG4nS7xG4Gi6yq3udWrPgpTz1k85b5Awr59dYHzSLVukyCy6wSc4HEBc3sEnW9z09JQwjnVKv4MzG190yl5L4dXUI0tDtPDL2wPb7AjUp5ya/tfC2jpj3MsYD6QbanomkKV4+nBgXN5tiIjUKg3QRUREiiSxm0l7lfl/hM/45IrkIJp9PnBoBpWewUoT1vjBb2vzI8CRwKJUu1oui+ksf9y/Tk1J+2Fp2seJDg7DFt+F184ts2OI5wxxyRYpssr8W4CXHJIjSuGrDrni6aFRhwLbuGSH0OOSm47nU08MoSX1THk9o9kh9TmHzLWX2G/TDQxjiXtHpJspK1Qatj+g17EiIk40QBcRESmSuOlJCLNcsgOHcs7vdaSgDH6dfcdBJg/nF4MdRWvjX9cqpa35brCTU+ppZQy4jO5ePbhdVZb6DvStmNqf9o6o6nfGuJcheB3PuxnR/IlO2SLFFY9/FeOXLtnBPkk8Y0uXbPER+IJT8hJCcqNTdgrMYWgaPIa78lpmTalnhiodoBu/SzlxCFF0RMqZsiJJ9IG8WxARqWUaoIuIiBSOXe8UPITKQBZDPBE/3X3vgTA1g0oB7HjamtLZ9dHWdAUhXJhK1soNI7Hr6e7bOoNaNcBeSTmwxNNOO/iqntvPLiB8yS9bpNC8dgYPxepPccqWtMWz9oKwn1P6r4nHVudgEsASj97GEILHXfLyX+kvUrAqHaAnS+4CQsqhn0g3T1bIdP+5iIgnDdBFRESKJkmuJ/U3ycuE8DkueXioS7aIt67ytiThZ2RxDF7gHNqarko3s/l0sGmpZi7fFoQwbdmde7IyIflH+qGVYh7jXld/I1BxSt+bzvK+TtkixVVZcDPwhEu28Vni+zZwyZZ0RaWz3bJDuNwtOw1J9KRD6sZ0lHd2yBWA8/rXB96Veq7xVOqZaYj3eRrjz+mG2v50z9wq3Ux5k7hvD2C7vNsQEallGqCLiIgUTTzmUQJ3O6VvzgvPasW5DD5L7+qbBmRwDUG4ntDUlnpsbAnJ/E9g/Cn17DcK7EG0zrX09JTcaw1mZn9PPTNh29QzB4Oz9/oXcJdfAWv1yxYpqHj8APBjp/QRRIs/55QtaYl7d4FwuFP604T1bnLKTkfE4z65dphLrsCiygeB9K/LCWFe6plpCeGWlBMjQt1HU86UN4rC8Xm3ICJS6zRAFxERKSIzx90adnYh7+iVwaunp0RkVxMcdpu82X00NHyS2BKX9Hj8K9jABMhkl8sHmbtNdwZ1BrHg8ODc3p1+5mBhV/hlhwPp7hvrly9SUAmX4XXyEZypu9CrXGTn4fXsMfAj4l0Xu2SnJvEZmga8FiVIxCE+wVa9A3Qs7QE6hKBF9Z7i6cMAfYxFRJxpgC4iIlJEDUOvA152Sn8HTw0c65Qtkr4HR10MfCiDSk+QhAmctvt81yqT95lHxIeBha51ALAz6eg70b/OIBWS9AfoFoo75B0+8HPgBbf8SjjXLVukqOLmvwB3OqWvR6n+HKdsWVtds98HXsNIEgKXOmWnJ/CIS66xN919W7tkF9nU/noCH3DJDubztZCGZMEsSP2O9j3p7m1JOVP+LVrnCGDDvNsQEal1GqCLiIgU0dIB3rV+BayNi2Y2+OWLpKSzfAIWPp9BpYVE0WHELekf6b08k5v7wY7Db9fff1n4Dl2z9nOvMxjVVzw+33sQ96/jkFv9Th27EAvXueUb76Gj91C3fJGisnCRW3bgk3T3jnPLlzXT01MiOH7eYdqyxRnVraFhLuBx6pCRhKMdcovtycr+eA0l66IHXHLTEI8fwOzG1HMTTks9U/5Nx7eLiGRAA3QREZGiSqKL8RuujWR+6VSnbJF0dPQeCHw3g0oBwmeYPLovg1r/1dbUQyCLnXn1hOhnxDPfmUGtweWsfZ8n/dM+6okqe6ecOXiYfd85/2tc8vBQ1xoiRTO5+VbAa3hkhOhi4qDnW9XkoW1OhuB35UgULnTLTtPSRcteO48/q6/7lBknOyU/x6TGJ5yy09KTfqQdRlfv9unnFlxX/zuA8Xm3ISJSBHqhJSIiUlTx6PuB6W75QfdSShWL+3fCrAeoc69ltNLWco17neVpa2oFy6L2xkSlacT3bZBBrcHm/tQTjeIe4z65uZ/ADMcKO/Di86c75osUj1kAvuGWH8JeRH2fccuX1XPu3RsSLHbLD6GPyS2ePwfS9ien3HdifQc6ZRdP3Pt24MNO6X92yk3PptEdwLMpp0Yk9pWUMyUkpwOWdxsiIkWgAbqIiEiRBfumY/pwovqLHfNF1kw8cyOiyjQgi2FvD5Ob8ruf1SwwfOAzhJDF7vediRZfQzzdf1HC4HJv6omBg1PPHEyi4PuzJYRJxP07udYQKZpk+JXAY44Vvk5XeVvHfFlVA0MvBDbxKxB1+2W76HdLNrK4hqgYouhEvBbWBrI9hWpNnNS4BOznqecanyK+Z9PUc4sqnjUKwnF5tyEiUhQaoIuIiBRZGP1LYI5jhaPoKB/umC+yeqb21xOVrgP8jxMM9DO8ctyynXf5OXXsQurqDgOyuH/9IGzdr2dQZ/AI4fcOqfvSPXMrh9zBYcfHbgAedawwFKtcztT+escaIsUS77qYYJ6Dz/VJwjX6d5uzrr4jCOHTjhXupW30zY75Duwex/AP0jV7R8f8YrhoZgOEE93yI2a6Zaeq8kOH0GFEdWc45BZTFE0ChuTdhohIUWiALiIiUmSxJQTrcq1hfEerzqVqPFn5FrB/BpXmURc+zKljF2ZQ661NanwCognAfPdaFr5IV99n3esMFmYeA/SIJDraIXdwmDixAnaBaw2jhacGOl1riKySqHZO9dg8ugL4q1u+WRNPVia55cvKdc/cihB+4FojMCn3hYmra/hAH7DYKb1ESAbbjvzqM7/0/4AtnNIDpXrPRRTpaRtTxlyuHPiCFnqkIJ41Cvhk3m2IiBSJBugiIiJFF0ZfB+Z5L9sWRHXX0NNTcqwh8tY6e7+KcVIGlV4hCROY1PJUBrVWXdvo+zD7JJC41wrhErpmv8+9zmCQLJgDvJp6brCPpJ45mCTrXgrM8y1ip9PV+37fGiJvJQzNu4PUnNS4hBA6XGsYk+ks7+taQ94sDhFJ6cfARo5V7qa9+TbHfB+njl0IYbZjhSPp7BvtmF/b4t4RBPx2SBtzOHuvf7nlpy2Eyx1S6wmJ78LHIiiV2tDucxGRTGmALiIiUnSxJYD3zoXxPDRysnMNkRXrmH0w2HkZVEqw5BPELR67N9Zea9P1YO0ZVKojJD+ns2/XDGpVt3j8APDH1HON5kLf0x3vuhjsa85VIoL9mCn9XrvSRFZBGJZ3B6lqa76KEDzvAy4BPybud7yDW96k1HcaMN6xQgLhy475vsxu9UyHoOHkmjI7FdjYLT9wi1u2h2ToFcArDsmH0FE+yCG3GDpnNROCdp+LiGRMA3QRERGB1tHXQfA9Wi7Qpp18kou4dzcs6WHpQ3Vvp9E6ZloGddZc6+gpGD/JoNIICDcQz/TcjTZImMeOOSMaKPadkhtseBnwiHOVTakkP9IpKpKbYOvm3UKqzAIlvgh4HsM9Ehv4JXH/Oo415N86Zh9McF6Ma1xOW8u9rjU8hch7iPpeunqPcq5Re+JZozC+4lrDEs/FE+mL93yB8P/bu9Mwuapyb+P32tUJSQARUDhOzKOITJ2uJoAQZ19FFCWgxwEHQEVxPkzp6p3qgHBQPDgecABEBIOAA4qKGgWSdHUaGTSAAjIoIDIFCEOSrr3eDx2OiEASUnvvqu77d11eBkiv/xPooWo/az0rnJnL2oEvkM4dO9eSFCVdNBGSb1HMe1lJ0hPYQJckSaMPMwmfJd+HmQkxfIf08hfmmCH9q+MbG5KEC4B1cs8K4XRq1ZNzz1lTIUSaj3wQWFBA2tYklR+OPvgZx5Lw03wWDv+54j7E8emIrZfmOnb1/8TX8KdNvp5/jsaIkZauFti4peu1g5m9g8A5uWaE0EPSPJM0+twrT/WFu6zYpJhnU+xBmqGzJ1n1dV9F3teOxPA1jv/983PNGEtiDCThG+T7HuFeNuqQ+8+fKMlOIZ8rn3YgTOnsr+UyJA8fCzjVS5JK4BsJSZI0qlZdAOH7OadsTGXiT0jn5t/MlNJFExnhfGDLAtIuo7n2hwrIaY10+mNklTcDfykgbS+SJeO7+TjSPQzclcPKEwiVz+Swbufor54HXJZ7TgyHUB/K9+5mjRWPtHi9sXmFQBY+Ddyfc8rbCY28r3oYv2bPfxFkPybvTYohHkPa8/dcM/IWQgTyfp/1fEaWfyPnjLFjoHEIhFfnnHIeh3Uvzzmj9fp6bwB+lMvagWOpL9wjl7XHovr8HSEeVXYZkjRe2UCXJEn/lC37NLA414wYdyWZPMfxbcpdsuSrwN4FJN1M14S3jd7J3EHS7nvI4r7AAwWkvZ/64CcKyGlPacgg5jPCM8QPMLBw21zW7hRJ8hnyOSn1JLHGwNCH889RRwvh4Rav+BxOvHzdFq9ZvrTn70Q+m3tOCJ+mPnRE7jnjTTr4HLLKT4EX55zUoFkdG5vwspDv1IVR+1EfPKiAnM42e96mEArYXBPOzT8jL8kA+Uyn64LsLNLB5+Sw9tjypRvWgsq3gPE9yUuSSmQDXZIk/VO65x1AX/5B4Q0kU86xia7cDAweDXywgKQHIezLMbveXUBW66W912HlafwAACAASURBVBKTdwDN/MPCF5g1tG/+OW0qhrzuP51EzE4f12OKZ04dgvi/hWTF+GVmDb6tkKzxbGDB9tQb/0W98XXqgzXqQ50zujRr+Ql0WFp5acvXbAe1nm8Dv8k/KJ5MvVHEa4LxIZ27DknyI2CnnJOWksX3j25CGwPSnquAq/MPCt+k3sj7v03nSoenECdcAKyXc9JfyKbmPyEnL7WpV0L4SU6rb04lfCWntceOB+79MjC17DIkaTwbvw9ZJEnSU8t6vkZkfgFJbyeZcjZz5lQKyNJ4MqvxVmKYXUBSkxDfQa1nUQFZ+emfejEhFHCPNAkhnk06+PICstpPfORi4MGcVt+dysLDclq7M2QcDdxeQFKFEL7nCb+cjDbOf05MrgVOBD4EYRbEa5jVOLkjXjOE2OoT6ECyY+vXbAMhRAIfJL/vjY+rAKcx0PhkzjljXzp/A5Ipv4K4T/5hISXtvTb/nAIFijhNvzbwI44b3LiArM4SY6DS/CYx7pp7VuC0zt/8EVLymvATeTf1wUNzWXssqDc+SgyHlF2GJI13NtAlSdK/SkNGjIcAjxaQNoM/bXoO6dxJBWSND1+6YS1mLXzDipN7n2L20CvG1cnU+sJdCJxFIa9zwxH09eZ1qrhYfT1fIHJqAUnrkoQfj8uHuun0JcD3cls/xhMYGNw6t/XbXdr7IJGPFZQ2EcLZjoVusfrgocTkauB1T/FPEwKf5PpNziDGUHRpqyeHBnqku+Vrtou+6s0QDi8gKRA5mVmNEwrIGpuOG9yYpPIboJp7VuRStrvlpNxzitZ85GyKuTpnU5qcPzoCWv9n9tB/EXlHAUlLaY6cXkBOvmpTr4SY32tXwteYNbhffut3qHpjL+ALZZchSbKBLkmSnkraey2BIk6kQuQAwpRLOL6xYSF5Y9XJ8yczMNTH4vtuJ2Q/Y/Tk3hfI4u8IjQUMDG9Zdom5O274BZD9iNGTN/mKfJlaz9dyzynSf1Q+RiGjdNmUkXDBuHyom8U8T549hxguJh1+Xo4Z7a2/eiGBswtKSyCeQn3wlPZv6La5OXMqo03NcCow4Zl/c3gXs4c+U0hdz1pyT8uXDLy65Wu2k1rPdwv72g0cSb3xZb9uV1M6vAnNcBn5j20HuJ9YeTczZhRwvUzB0ulLIHyjmLCwB4vvvdCNyivUGx8kcnxBaWeR7vGPgrLylSTHkN/G+gohfJf64G45rd950sY2wAWs2b3nEcJpLapIksY1G+iSJOmpzez5CsSLC8kK7MkI80gXblFI3lhTX1BlSWURMdaBf9+IEEIPsfkb0stfWHxxBTl5/mSazQuBlxSQ9kviI58qIKdYh3UvJ2seANyQe1ZgGovv+864a2CkvdcAC3NM2JLQPJ900Zo8dOtsEyqHA7cUFxiOYKDxbU4dXknjV0/p+MaGXL/pRau1aS9yHLOHpuVY1ZqJ8aYcVt2SdP5WOazbPka/dvP/+TPqowwMnUs6d52C8jpbfWgqSXMeUMSUk0iM7yPtvq2ArHJUss9TzKQvILyBZMqFnDx/cjF5bWrW0CHAqRTzHLxJiP9dQE4xZvb8lcjJOSasA+EiBhqb55jRGQYWbE/Cb4E13Qz7U4jzWlCRJI17NtAlSdJTCyGSJe8H7iwocVuSbAGzB3sLyut8MQbqjU9BchmwsocOm5BM+N8iyipcjIGHK9+iiJGixOvJJh5IOn0k/6wSpNPuIyT7AvcXkDaD2Y2jCshpMzHfr8PAK0iWnDVum+hHdT8AybuAAk8uhoO5qzlvXEz6aKWBBfswwlXA61fzIyeQxe+37bSF2MyjgQ6h8q5c1m0XR3U/QFZ5M/nfh/64GSRTriBd+LKC8jpTvfEeiL8DXlxMYDyO/t4fFZNVkmN77yKGbxeY+HqWVH44bpvoA4OHE2JRzXMgnkNfb1GbgYoRK8cDN+eY8B9Efj3mN4o9k3Thy4jJXOAFa7hSE5hJCPuseVGSJBvokiTp6aU9fyeJM4DlBSVuRBYuZWDwaObMqRSU2ZnSy1/IwNBPGL0fbVVPPu7LrKF9c6yqHAONekH3Gd5Llu1LusviArLK0zf1T8R4IJD/JoEYjmPW0IG557STrOtcCHfknDKDZMmPOenq/K8zaEe1qfMgpAWnTiU2h5k1+LaCcztPOreLeuM4YvJrnn1T7sUkzdPbcorFCybeSh7fPwMHj/nXRmn39UQOBmJBiduQZAvG3c+hVZHOncRA45vAmUBBjddwCdvdlhaTVbK4vE5xm0UAXsuSyjzSBZsVmFmux68HieHLQFE/K5YRutKCsoqTdj9CCB/JOWVzksrl1BfuknNO+0mHdibJ5gIbr/FagTOoVa8mZruveWGSJBvokiTpmc3svZzApwtMnEAMx3P9ppd5mu9pzGocQDLhGuCNq/2xIX6FdHhK64sqyazGARCOLSBpOTEeQDrtxgKyytffewmRDxWQFAjxdGYv7Ckgqz2k3Y8QmF1A0ut49LFfkw4WdGqwzfRNPQ7CjwtOfS4h/IBZja955+zTqC/chTB5HnAMa/484k3Uh/5fC6pqrcO6lwN5jJ/elOs2Hdun0AH6qxcSwwkFJq5DiOcyq3GyX7crDCzclmTtISIfKDD1z2QjB43Je8+fSrrHPwjh8wWn7kKSDDOw8NUF5xbv+MaGXL/ZxSuuBylwo1X4En3d+UwhKVtfz88hnJtzysaQzWVgwT4557SPWUP7ksS5rPnYdoAlJJW+0WuFgs9RJKkFbKBLkqSV66t+GeIZBafuPnqar1HEyeLOMDC8JfXBSwjM4anuOl81mxCa/9XKskozu9FN4AwKeTAWP0p/79z8c9pIf/VbxPDVApImk2U/HFeN3o2SbwJFbMaokoQ/Uh88qICs9hJCZGLyHuDPxWfzYSpTFjJ7cM/Cs9vVCcPrMavxJcgWEkLrNswEPtyytVrr+lxWDaTjYrJEbeqxEL9baGbgkyRT/siswdcUmttOTh2ewMDgx4nZFRB3LDD5HkJ8E+m0+wrMLF8z+QJwS8GpGxKzi6kPfoY0js1nwvWhqYwwDLHor+V/MGHp8QVnFqsrfpT8r3dbj5hcTH1obG8YmzOnQn1wgBB/BDy3JWuGeDzHdt/JnWzJqk+okyQ9g7H5YkmSJLXexl2HAr8uOPW5BL5HvXER6fB2BWe3j3T+BsxqnExsXgthzU+NBI4kXbhFCyorz+x5m5JxEZD/afrISdR6T8s9px3Fhz8B/KKApBcQwoVjajrCMxk9odpfUNp6EM6hPng66dB/FJTZHkbvVN4PKL4pE3kZWbiU+uBZHDe8pvdZdq4YA/XGO1nWvI7Ax4BWjyB/VZve6zsvp3U349FH/zuntdtHCJFs3Q8Avyk4eUtC+CUDjTkc//vnF5xdrtmDe3JX80pi+B+gyE0ajwJvHnN3Rq+K0bHYZWwC6oJwEsnQMPXB3UrIz0c6PIVZjRMgLgA2Kzw/8gmO3uv+wnOLdEz1XiLvI/9rNiZBPIuBxhmkc9fJOat46fDzuH7Tn0GYSes2gl/JRl2jUy1C09PnktQiNtAlSdKqOax7OVncH7i6hPQ3kjT/QH3o1HH1QPPU4QnUBw8lqVxP4JPAxBatPIlKVmvRWsVL565D1vUjWnFP3ErFi9n+1qPzz2lT6fQR1lp+AIQ/5J4V6CYZOWvMnoh6sqznXAr9fhoOJol/ZqBx7LjZqACjdyrDW4ClJaQHCO+i2byBWY2UL92wVgk1lGdg4aupNwaBs4G8NhFMYglb5bT2Gkh+l9/a4cPUB9+f3/ptIt1hGVmzmJ8/TxY5gJHl1zKr8d4x/zPp+MaG1BvfIguXAjsUnL6cGA6kVl1QcG77KGYs9tPZBcICZg0d36YbkVbdrMYbSZrXrhjZ3uqNWqsgXkx/9Zzic0vQX/0Fka8UkhV5L8mUK0gX7FpIXhEGBt9O0rwKeG0LV11OFt6/YoMuEFpzol2SZANdkiSthrT3QbL4JoofNwjQBfFQRpZfT33wE2O6EZHOXYeBwY9zV/MGCKcCrd80EHknn7ts/Zavm7c0JiRTvgvsVEDatWSMn/s4n86Rez5E1nwz8I/8w8L+hEaaf04bSENGlr0fWF5g6rpEZpM076A+eAqz521aYHZ5atXLCjox9XTWJtDP4vuupj50MOmiVm2Gak+zGm+k3hgiZpe0dFz700mS9htpnk1ZCDyS0+oBwqnMGnx3Tuu3j3TafXR1vQq4toT05xE4g2ToD9Qb72HOnBKacjk6vrEhsxopI9wIvJ9C74kGoEnkvfT3/KTg3PYzYelHgNvKSifEo1lSuZmBxpEd10ivL9yDeuMnBC4CynpNcz9JclhJ2eWI63yGyGBBaduQJPMZGOrruM/PJxoY3pJ642JiOA94UUvXDvSR9lz1f3+d8JyWri9J45gNdEmStHrS3r8ReCXwt5Iq2ADCF1l8363UB2tj6kT6cYMbM6sxm2TKrStGaOb5IGgCI2tNz3H9fITGfwP7FZB0F1nlDaS9DxaQ1f7S3W+BZH+KOMUbwswxf+/h49Ldf0+kjHHM60E4gqzrRuqNnzJr8H2k8zcooY7i9FfPIcSPUV4THWBbiKeTLLmRgcYnx9RY0nRuF7MG30a9MbSikTG1oORI6Lq1oKxVl+6wDOL8HBO6COFM6o0vdHRDYVUcs+vdJM3XAjeVVMFLgTO5ftNrxkQjPR1+3orG+U0E+mnV3burJxLDh8fNid2VOXqv+0nCu4EyN2xuTOQEllRuYaBxZNtPqpk9uCf1xk8guxx4U6m1RA5jZs9fS62haOkOy4jxAArZXAvAWsRYZ0nlT9Qb7yTGojf8PHvp4HMYaPQTm38AXp9Dwi9o9pz0r38r2kCXpBbpnB84ktRKsxq/I/CK1i0YTqPWM752HY8VA4NHE8PxLVzxr9Sqm7RwvfaVNrYh4bfkN5Z1VT0GfJcsfpG0t4wTSmsmjQlh4XRC9i4IBwGTCssOHEFf9cuF5a2p+tDBEE8vIOkx4JXjeqTo06k33gOcWUDS+PlvkC6aSLJkiGKmKjyT5UQWEuKlBC4j6bqSY7vvLLmm1hsY+jQxfr7sMla4D+LXyLq+Qdpd1unDNZMOb0Kl+T4ih9DqE1WrIjJMf7WoZv3qqQ9+AsIXC0i6icgAcZ1zRhv3Y1Q6vAlJ8xJgm5IruQ7CV5iw9JyOuu84XfgyQvwgIX6QYu84f7ImMR5Cf28Rr+c6S31oFsR2uWLpPojnQvhu27wWSwdfTCW8A3gXkZeXXc6o+CVqvR8vu4rS1If2hvhLWnfN2KpqAJ+lVr2s4NxVd/zvn8/y5R8ncDi5bVQKd5At34V0j3/dyDBrsE4Ifa2LidvQ13tDy9aTpA5iA13S+GQDXY+zgb5mRpvolwDt8GeOROYRwnkkI+czc9rtZRf0jOqNnSC8C+I7KKPpAEB4H7WeM8rJXk31xl7AJUDeo/sjMbyb/p6zc87pXPXGicB/FZB0D1lSJZ36lwKyylVv7AQMUfwDyJW5l8h1BO4ghjtJ4u1k8e8k8a+Eyk0cO/VvhFDmie5np944Bjiu7DKe4PGfX+fQ1XUex+x6d9kFPaN0/gYkyVsgeTfEV1DmZLvI/vRXLywt/5mk8zYi6fobMKGgxLuB84nht0R+R9rz94Jyi3Pc4MZk4edEdi67FEYnslxC5DvERy4knT5SdkH/5nOXrc/yCQcA74GwR9nlAMuIvIv+6nllF9KW0piQDF1AMZOWVseNBL5L4Kdsc+uVhV5tlC7YjJC8isA7gX1or0mqc8keeW1bfu0XadbguwnhTMrpMVxBjF9l3excPjXt0RLy/93Agu3Jkg8T+ACQ5ySHRyHsTa1n4b/9ExvoktQyNtAljU820PU4G+hrbvbQS8iyX0LYruxSniAjMp8k/oBm14VtcbIvndtFMmV3YngDSdyXyMvKLomQbEff1D+VXcZKDTQ2J9Igj7vg/02oU+vpzz+ng40+4D0feEsBadcysTKNo7ofKCCrXPXGh4Cvl13GanoIYoOQ/JwmZ3dUw25g8OPE8EXa7z3xCMRLiJxHpfkbZu7RHuPJBxZsD8nriewL7AV0lV0ShPOp9by97CqeUb3xQ0prhoU7IN4E3Az8HcJ1ZPy8o75On8rnLluf5RN/CuxedilPcDtwNnAR2906v9AG45Ol8zYiVF5HSN4O8Q0Ut4FjZR4m8jb6q78ou5C2duLl67J04jyIO5ZdytN4ALiMEH5LCJcxsuRa0ulLWrJyumgiPLoFYWR3QtgH2Jvy7jVfmZvIKr2k3feUXUhbqA/WIMwqsYJ7iXybGL9L2ntN4emz521K7DqIyDsoZqJUJHLg025GsoEuSS3Tbg8LJKkYNtD1OBvorXH875/PyPKfUtydp6vrFgLzIMwjjlxOtvsi0pDlmnji5euydMLOhLgnMewJ7Am0z31kkUvpr+5ddhkrlQ4+hyTMB3bIPyycTzZ1Ru6fG2PByfMns6TyOwr5mo8Xs91t+5bakCjKrMHPE8Knyy7jWXoU4jHUev+n7EJW2azGewl8k7ZoBj+tWwlcSuRSMi4lrf4598R07iSStXeEuBuBVxDZh/Kva3mS8AcmJnu1/eaagcZbiLTTCfnHiHyB7W/t7+jvqaM/g74DtOMGivuBXxO4lGa4jJfe8odc/12n8zcgdO1BiHsC04HdaK9Tuoxu5sjeTK33irIr6Qiz57+IrDKP9m0eP9mdwJ+BGwjxL0TuJYaHID5CUnmYkC0mi5FQWZ8sTgamELL1IKxDDFsQ4tbAVoz+eStl/kFW0d8JlT3p676p7ELaSn3wFAhHlF0G8FcIFxPixTQf+VXLNng8UXrlcwnLVnzfDdOBHortsRxLrfr0z7BsoEtSy9hAlzQ+2UDX42ygt046PIUk+w7Et5Vdyip4ALgG4k2E5C/EeBNkN1EJt3BM9R+rPJI4HXwOFTaG8BIiW4w+BMq2hbATsAXt+1rrMUimUZt6ZdmFPKM5cypcv+nPgNfmnhUZZt3mK9pm/F8nmD30ErLYoIjGWuQk+qtFjI0v1+jp/h8Aby27lDXwMWrVr5RdxCqbNbQvIX4PWKfsUlbRvURuIOEGCDcQsxtIwo0kE25drdHvJ16+Lsu6/oNY2YiYbUWIW0GyFcTtgZfSPqdWn8oisuWvJd3zjrILWalThydwV/MG2q0RFjmV/uqHyi5jjcQYGGgcD+GosktZiUeI8Y+E5CrIriNyMyH7Cxm3k067b5VWSOdOgnU3Isk2J8bNgK0JYccVp5Q3z7P4FriaLL6JtPdvZRfSUQYWbkvMLgU2KrsU/YvFkLyy7d9DlSHGwOzGqcRwSNmlPMEyYBFwHSH+EcJ1NJt/ZO217+SzOz280o8+YXg9Hlu+JSHZkhC2HH2txNQVk+RK2qgUPk+t57PP+FtsoEtSy7TrQ11JypcNdD3OBnprxRioLzyOEI8uu5Q19BjwKKOniB5d8dcAk4DJECZBfB7td1/xqmgC76FW/V7ZhazUwFAfMdbzDwp3kGVVH+4+C/XB3SBcSr53/MHoqMK3te1dx62UDk8haf6W9p3osTL3kz2ySS4nfvKSDu1MEn8CvLjsUtZQBO5jdJPY4z/HHjeZ0Z9hE4Hnrfh15wmcw6RJh6zSg+92MWvwfYTw7bLL+HdhH2o9vyu7ijU2Okni64x+jneaJnAP8DDwEPDEu5SfA6wFbAisXXxprRAvYK2Rgzlyz4fKrqQjpcPbkWS/hvjCsksRAIshez213RtlF9K2RjeCngp8sOxSVkETeBBYTOAhIssZfT8zGViP0e+7bfZeP36NvupHV7rZ3wa6JLVMm411kiRJHS2ESH/PMRAOZPQNaaeaBKzP6CnyHRgdh7nbil9vseJBVpu9oV4lS4jxwM5onjc2J8bWvfF/eg+TNfe1ef4s1XqvgPgBRht3eQoE/pcTL18355zypd2PkE18LcR5ZZfyLK1PWHt62UWslrTnKiqVHmBh2aWsocBos20LRk+R7/aE/710xd9/MZ3ZPF9G4Aj6qu/sqOY5wPa3fQe4ruwy/l38SNkVtER/9UxG70O/sexSnoUKsDGjX5s78a9fs1sDm9CZzfMRAkfRV327zfM1kHZfT5a8Cri97FLEPWTZq2yer0QaMvp6DiVyUtmlrIIKo+/3Nyfycka/724PbLbi77fXe/3At8iqH1vlSXmSpJawgS5Jklqv1jOHELuBq8suRSvEOESIu9Lfe37ZpaySLHyc/EcIZ4TwHtLdf59zzthW6z2XSAGTAtiIpRM+VkBO+dJdFjN58uuAn5ddyrOSsHPZJay2Y7vv5Lkb7AXxa2WXon/zZ5JkL/qqXy67kGdlxoxmQRvCVtc+ZRfQMrXq1WQTpwI/LLsUcTvwSvqqJ9roaYG0+3qy5T0Eriq7lHHsZkKyp+8XVlEIccW1S0eS/wbbcSKewMyeQ0hDVnYlkjTe2ECXJEn56Ou9gXWauxP5Or55LtMIIdSIj+7RUaPXQnxDASl99PVcUEDO2FfrmUWI3889J/CO3DPaxWd3ephsnf0gnFt2KastskHZJTwrR2y9lFrv4UT2Z3QMusoVIZxG9shuzJw6VHYxa6S/93wC55VdxpNsxMnzO3Hs+VNLd1lMrfpW4L1A51whMaaE8+liJ2rVy8quZExJ97yD5sTpwK/LLmXciQySjfTSN/VPZZfScWrV/yayL509la5sTUL8KLXeo92QJEnlsIEuSZLy86lpj9Jf/Qghvh5wRHbxFpJlVfp6Bkinj6z8t7eVzXJdPcTv09fzuVwzxpMQIs1HDyYymGtOZHvSuV25ZrSTdIdlZFP/E+IJQOecOgmxs0ft91cvJGt2d/AY/bHgdiJvoNZzGOn0sdEMbVY+AtxZdhn/4tGJzy27hJarVb9DqOwMLCi7lHHkAWJ8D7Wet3NM9d6yixmT0l0Ws92tryMyi056PdDRwmnEdfYm3eMfZVfSsfqrPyULewO3lV1KB3qYEGbQ1/vVsguRpPHMBrokScpfX+8vySbuCPEMPI1ehMUQDifr6e3gcYNL81s6zmO9Dd/rTv4WS6c/Rldlf+CvOaZEXrBuyHH99pOGbPTkCa+BcEfZ5aySSOf/N0qn3ch2t+1N4Chy/X6kJ8lGT503X05/9RdlF9NSafc9hHgw7fQ6KC4bm8+E+rpvIuvZE+JhePoxbxeRhB3p7z2r7ELGvBkzmvRXU0I4ALiv7HLGsIdWbAg5jHSHZWUX0/HSnquYWHl5G05haWPxemju7qQ0SSrf2HyzJEmS2k+6y2Jqve8jCfsAi8ouZ4yKwPfIwvbUer7W4fekDee07i1kzf05YmsbYnk4tvtOSPYDHs5l/cAfOax7eS5rt7u+6m/o6toZ+FnZpYwbM2Y06aueCGE3IpeXXc6YF+MQhN7RpsW0sdkc6uv9JXBE2WWMC6Obj06jUtmOgM3dlgt3EOPbqVX3ZWZPnhvn9GR9PReQhR0gXlx2KWNOjEOEuJsbQlrsqO4HmNlzICF+Anis7HLa3HeYPLmb2rQ/lF3IP3V18jMFSVojNtAljU+B1o4yjozPh/ljQtLqXeWdNia7eDN7LmXjyi4E/gtYXHY5Y8ivIdudWvU/SXv+XnYxayzyjRxWfYgs2ddRjDmrTb2SwLvIY8RojF9v+Zqd5Jhd76av500QDgcck1uUWs8iaj2vYPRuZb9/tN59hPgJtr9tGrWehWUXk7ta9SsQZ5ddxrhxbPed9FXfQ0heQ+CasssZAx4hciJrLduO/t7zyy5m3Ep7/k5f9Y3EcChwT9nljAEPEOIniI/uQV/vDWUXMyaFEOnrPYWssguR+WWX04YeIMb3U6u+l8/utGYbkZOktc8nm0sfaul6ktRBbKBLGq9a/AIw+qa1U8Xs/havaEN4VRzWvZy+6klkzS2JnIg70dfEQmJ4M7Xqq6nt3ii7mJbZ/tY5wGUtXLFJ5B2kU//YwjX1dPqqP4RwbItXnUtW/WaL1+w8IURqPV9jwrKtIfwPtOEmvtBGI6pbJYRIrfodsub2K/69O9Z1zS0j8mWy5tb09Z7CjBnNsgsqTK23b8XnkYrSN/VXbHvrrgQ+hBthno0M4hlky7emv3oUR+5pQ6VsIUT6e75BNnFriF8Cxs/30NaJBM6iErelr/cU0uluhs9b2n09sWcvCB/HKzYeN4dKZXv6e09vzXJZK6f4LIVlY3MqkCStAhvoksanyF9aul4I17Z0PRUnocX/7UJrP7fGunTaffRXjyLwUuDbtGMjqF0FriGyP309Vfp7flJ2OS03Y0aTLL4TWvT9OvBZ+qs/bclaWjW1nhMInNmStWIcIpu4f4dfS9BaR+91P7WeTxKSHSH8mHa6VzkLS8ouITfptPuo9XySrLI1hNPIY9LC2JcROI9QeSn91SPG7Lj2lan1fJIQP0qZ04tGusZXw230WoZTmTxpixWjhDt/Yk/+MuAisrAbtd73ke55R9kF6UlGr8n6OFno9rqR1XIlJHvRV30Px/beVXYx40oaMmo9X6IStwG+yfh9LXUzIb6RWvXA0WuwWiSGVk5bucaNJZLGMxvoksanEAZbuNoyurrmtnA9FWnk0WFaOvYua+Xn1vjRV72ZWvUDZJWtVpygeLTsktpUBvFXxPBmZvbsTH/1QkJon6ZZq6W9fyOLe8MabnQJ8Rv0Vb/YmqK0Wtbb4LAWPMz9GZNGXk26ixM+nkrf1D9R69mPLL6MyKnAI2WXRBJb9xCwXaXdt1HrOQzYlcB5jN+Hv6tj+egJ1soO9FVn0Nd9U9kFla6v96vE+P8o60qG54w8UEpu2T6708P09Z7C5ElbAUcCY/971uobIXAOWdyRWnVf0p6ryi5IK5H2XEWt5xUE3gqMnalUrRa4CuI7yHq6qU2dV3Y549qxvXdRqx5CFnYDLiq7nALdB6GPrPIy+np/1vLVN64M0roNYj9o0TqS1JFC2QVIUilOyljWzAAAEAVJREFUnj+ZJZXbgfVbsNo3qVUPacE6Kkt9aCbEgRastJxs+WaezGiB4wY3ppkcAnwY4gvLLqcNLCGGM4nxS6TVP5ddTOFOvHxdlk44G9j3WXz0ZWTrvJp0B8ctl+X4xoaMMAhstfofHE4je/hwTz6shnT+BlQqhxD5CLBJKTWEbDp9u/+2lOyypMPbkTSPBg4CJpZdTptZQuR0KiNfYOYet5ZdTFtK521EMuEUiAcVmPoPatWNC8xrX+miiYQl+xH4NFAtu5ySPQjxDJLmyX69drjZg3uShSOBN+LzXyDOIyYnUpt60ZjegNzJ6kNTIdYYu5+z9xPCF2lmp5D25ju+vj54KIRT13CVO5mwbAeO3qvV1x5KUscYiz+MJGnV1BsfBL6xhqvcxIRlU31B2eG+dMNa3H/fbwn0rtlCcfbonZZqmVOHJ3BX9laIhwLTGW/TcwLXAGfQnHj6uD99O2dOhes3+zzET6zGR/2ZrLn7uB0P3E7qQztAnAest4ofsZwYDqe/Z01/To9v9aEdiPEAAjOA7QtKvZHtbt1uXN1n/UTHDW5MFg4mcjjwkrLLKdkNBL5Fs/kNvw+volmNNxI4iUK+XsOPqfXsl39Oh6kP7U2IHyDydmBy2eUUJsYhQjid7JHvkk4fu9dwjEf1hbtA9hlgf2BS2eUUbBmEn5Bkn2dmr5PiOsXAgu3Jko8ReDewTtnltMDdEL/CxK5TOKq7uMkv9cHPQTiSZ9f/WUwS92Vmr9dCSBrXbKBLGt/qQ0etOHnc9Sw++ndky9/paeMx4oTh9Vg28m0I+z+Lj44Qv8x2t31q3DYMipAOvphK+E8i7wZ2KLucHP2NyHnE8B3HZT6FWUOHEOJXgQkr+Z23kYy8wtNTbaTe2B34BbDuSn7n3cR4IP29Xo/SSqObGPaDuCeEHmDDHFIeIwmvYmbP/BzW7iynDk/gHyP7EcN7gdex8u9ZY8US4AICZzKzZ66n/J6FNCYkjRkQ+oCX5pYT2Z/+6oW5rd/pThhej+XNg4jx3RB2Z2xu4rwd+D6Eb1PrWVR2McrZCcPrsay5H3AA8AagUnJFebqCEM+i2TyHdI9/lF2MnqUThtdjefZOsvguAtPKLmc1RSKXAf/L+htcwBFbLy2litlDryCLnwBew6ptRlhMCBfSbNZJd78l3+Ikqf3ZQJektLENIR5KCPsAL+Tpd2UvI3A3kUFCPI++3l8WV6QKM3uwlyz8J4E9iWzMM38+3EUWLiNkp1PrvaLIMse9gQXbQ3gLMbwV6KbzX9PcSORCKvECjq02bDisxOyhaWTxbGCzp/znkWEqYX9m9vy10Lq0cvWhHQjxe0Re/jS/4yIqlUM5ttv7aPOWzt+K0FUlZD0QdgI2BV7Es2v0jj4kDBxBrXp1awsdA0bHcx9EjAeumHYz1hpxSyH+hsg5TJl8AZ/d6eGyCxoz6oO7QXIoxHew8s1HqyFcQjb19aQha92aY9js+S8i63obMb6NwB50duPxNiLnUwk/YGTqoJ8D41Q6vAlJ9k5CPJDITnT+eymARQTOg8p36eu+qexi1GLp/K1Iug6C+Gba+/3/lQS+Txg5t602cqcxgQVb0DVhAyLP+bd/HnmULLubl956k4dCJOmf2vWHjSRJ0qpJL38hyYRXE3glkVcBLy67pFWwGPgtIfySZvgF6dS/lF1Qxznx8nVZOvFwiAcD2wIrRt7H09io6zQO615ean16enPmVLhu0/0J8c0QtiWyFFhICOdQ61lYdnnj2pw5Ff682Qsh25Qs2QziRgQmkLE+gQkQ1oFsCiRdwINE7iXE68mSy/0+torSof+gEvcj8hZgbzp3RPRiCD8n8kNidnHud3mOdyddvTaPPTadLLyeEF8DbLMGq/2SCcsO8gqqZymduw5h7ekE3gTxdYxuPmpnj0KcRwi/IsZf0Vf9vRs19S+O//3zWb58H0J4NcTX8nQbVNvPPwj8jhh/Rdb1c9Lu28ouSAU5bvgFjDT/HyHuA2Fvyr0y5x7gcgI/pxl/Str7txJrkSS1mA10SZI0tjzxVGUMPQR2AdYqsaIR4M8ErgDm0UzmQfe1nvhpoZOuXpuH7wve2Smpo6RzJxEm7w7hVQReCewGTCy7rKexognHbwiVX7PNzVd4QqlEn7tsfZattSsJO5PFLQlsTuDFRNYGnguszT8/l5rA7RDmE7KzmFm92AZqCw00NicL0wixlxCmEePLKPfr+DYCDWKcT8IgI+v+nnSHZSXWo06TNrYhiftA2IXIywnsSEsnYDwrjxDjHwnJVcDVwO+8dkD/J12wGaFSJWQ7Q3g5sCP5NNUfAK4hhmsI8SqyOJ/+6nX+TJWkscsGuiRJGtvSuV1UJm8OYQdi2A6ybSFsyuib6pfQuub63cBfINxM5GaIfyJmf2CD5y0q7c4zSVLnSBdNJHlwF0imAlMJ4WXEuB0wpeBKHgMWERmGcAUhDLNx+KOTPTrMqcMTuJ8pHNX9QNmljCvp3C6YvA0h7EAILyPELYlxMwibAS+gNVc4PEDgVmK4hcjNhOxaqCwi61pEusviFqwv/VOMgdlXbEE2sjOEHQlsDvGFEF7E6OSvVjXXH4b4Vwh3EvgbGbcRwjWEcDXb3nyjm7a0WtK5k6hM2hzC5hBeAjyPjA0JbEhg8ugY81gZnaqUjYx+UHiUwGNE7l0xZekeYnInlXAzSeVmjtn17lL/TJKkwtlAlyRJ49txgxuzvGt9kub6RDYghPVHRxQDhHVGxxYDkYchLgNGiOEhCPcR4j0kzXsYWXov6fTHyvtDSJLGpDQmVIY2JUu2I8TNIXsJIbyEjE0J8XkQ1gfWZ9VPvEZGN3zdDeFuQryTyJ3ADYTkRsKyGxiZ9lenpEg5SBdNpOuB5zOSjDZxYIMV/w+EiQTWXvHrEWL20Oivk0eI4V4q3MvI8vuYnN3FkXs+VEr90lNJ565DZdJLgI2hqwuazyULgRDXh5AQWG/0N4YHiVmTmDwAMSNJ7idrNoncBfzNq0AkSVK7sYEuSZIkSVInO+nqtRl5cCJLJ60PQKVZISYTycKjdMXlVJYuIUzOPI0sSZIkSZIkSZIkSZIkSZIkSZIkSZIkSZIkSZIkSZIkSZIkSZIkSZIkSZIkSZIkSZIkSZIkSZIkSZIkSZIkSZIkSZIkSZIkSZIkSZIkSZIkSZIkSZIkSZIkSZIkSZIkSZIkSZIkSZIkSZIkSZIkSZIkSZIkSZIkSZIkSZIkSZIkSZIkSZIkSZIkSZIkSZIkSZIkSZIkSZIkSZIkSZIkSZIkSZIkSZIkSZIkSZIkSZIkSZIkSZIkSZIkSZIkSZIkSZIkSZIkSZIkSZIkSZIkSZIkSZIkSZIkSZIkSZIkSZIkSZIkSZIkSZIkSZIkSZIkSZIkSZIkSZIkSZIkSZIkSZIkSZIkSZIkSZIkSZIkSZIkSZIkSZIkSZIkSZIkSZIkSZIkSZIkSZIkSZIkSZIkSZIkSZIkSZIkSZIkSZIkSZIkSZIkSZIkSZIkSZIkSZIkSZIkSZIkSZIkSZIkSZIkSZIkSZIkSZIkSZIkSZIkSZIkSZIkSZIkSZIkSZIkSZIkSZIkSZIkSZIkSZIkSZIkSZIkSZIkSZIkSZIkSZIkSZIkSZIkSZIkSZIkSZIkSZIkSZIkSZIkSZIkSZIkSZIkSZIkSZIkSZIkSZIkSZIkSZIkSZIkSZIkSZIkSZIkSZIkSZIkSZIkSZIkSZIkSZIkSZIkSZIkSZIkSZIkSZIkSZIkSZIkSZIkSZIkSZIkSZIkSZIkSZIkSZIkSZIkSZIkSZIkSZIkSZIkSZIkSZIkSZIkSZIkSZIkSZIkSZIkSZIkSZIkSZIkSZIkSZIkSZIkSZIkSZIkSZIkSZIkSZIkSZIkSZIkSZIkSZIkSZIkSZIkSZIkSZIkSZIkSZIkSZIkSZIkSZIkSZIkSZIkSZIkSZIkSZIkSZIkSZIkSZIkSZIkSZIkSZIkSZIkSZIkSZIkSZIkSZIkSZIkSZIkSZIkSZIkSZIkSZIkSZIkSZIkSZIkSZIkSZIkSZIkSZIkSZIkSZIkSZIkSZIkSZIkSZIkSZIkSZIkSZIkSZIkSZIkSZIkSZIkSZIkSZIkSZIkSZIkSZIkSZIkSZIkSZIkSZIkSZIkSZIkSZIkSZIkSZIkSZIkSZIkSZIkSZIkSZIkSZIkSZIkSZIkSZIkSZIkSZIkSZIkSZIkSZIkSZIkSZIkSZIkSZIkSZIkSZIkSZIkSZIkSZIkSZIkSZIkSZIkSZIkSZIkSZIkSZIkSZIkSZIkSZIkSZIkSZIkSZIkSZIkSZIkSZIkSZIkSZIkSZIkSZIkSZIkSZIkSZIkSZIkSZIkSZIkSZIkSZIkSZIkSZIkSZIkSZIkSZIkSZIkSZIkSZIkSZIkSZIkSZIkSZIkSZIkSZIkSZIkSZIkSZIkSZIkSZIkSZIkSZIkSZIkSZIkSZIkSZIkSZIkSZIkSZIkSZIkSZIkSZIkSZIkSZIkSZIkSZIkSZIkSZIkSZIkSZIkSZIkSZIkSZIkSZIkSZIkSZIkSZIkSZIkSZIkSZIkSZIkSZIkSZIkSZIkSZIkSZIkSZIkSZIkSZIkSZIkSZIkSZIkSZIkSZIkSZIkSZIkSZIkSZIkSZIkSZIkSZIkSZIkSZIkSZIkSZIkSZIkSZIkSZIkSZIkSZIkSZIkSZIkSZIkSZIkSZIkSZIkSZIkSZIkSZIkSZIkSZIkSZIkSZIkSZIkSZIkSZIkSZIkSZIkSZIkSZIkSZIkSZIkSZIkSZIkSZIkSZIkSZIkSZIkSZIkSZIkSZIkSZIkSZIkSZIkSZIkSZIkSZIkSZIkSZIkSZIkSZIkSZIkSZIkSZIkSZIkSZIkSZIkSZIkSZIkSZIkSZIkSZIkSZIkSZIkSZIkSZIkSZIkSZIkSZIkSZIkSZIkSZIkSZIkSZIkSZIkSZIkSZIkSZIkSZIkSZIkSZIkSZIkSZIkSZIkSZIkSZIkSZIkSZIkSZIkSZIkSZIkSZIkSZIkSZIkSZIkSZIkSZIkSZIkSZIkSZIkSZIkSZIkSZIkSZIkSZIkSZIkSZIkSZIkSZIkSZIkSZIkSZIkSZIkSZIkSZIkSZIkSZIkSZIkSZIkSZIkSZIkSZIkSZIkSZIkSZIkSZIkSZIkSZIkSZIkSZIkSZIkSZIkSZIkSZIkSZIkSZIkSZIkSZIkSZIkSZIkSZIkSZIkSZIkSZIkSZIkSZIkSZIkSZIkSZIkSZIkSZIkSZIkSZIkSZIkSZIkSZIkSZIkSZIkSZIkSZIkSZIkSZIkSZIkSZIkSZIkSZIkSZIkSZIkSZIkSZIkSZIkSZIkSZIkSZIkSZIkSZIkSZIkSZIkSZIkSZIkSZIkSZIkSZIkSZIkSZIkSZIkSZIkSZIkSZIkSZIkSZIkSZIkSZIkSZIkSZIkSZIkSZIkSZIkSZIkSZIkSZIkSZIkSZIkSZIkSZIkSZIkSZIkSZIkSRpf/j+RftdMjMtvOwAAAABJRU5ErkJggg==;" vertex="1" parent="1">
          <mxGeometry x="1415.04" y="1400" width="54.96" height="39" as="geometry" />
        </mxCell>
      </root>
    </mxGraphModel>
  </diagram>
</mxfile>
